<svg width="800" height="800" viewBox="0 0 800 800" fill="none" xmlns="http://www.w3.org/2000/svg">
<g clip-path="url(#clip0)">
<path d="M390.2 480.142C390.2 502.275 384.6 522.009 373.4 539.342C361.933 556.409 345.4 569.876 323.8 579.742C302.2 589.609 276.6 594.542 247 594.542C217.4 594.542 191.8 589.609 170.2 579.742C148.6 569.876 132.2 556.409 121 539.342C109.533 522.009 103.8 502.276 103.8 480.142C103.8 458.276 109.533 438.809 121 421.742C132.2 404.409 148.6 390.809 170.2 380.942C191.8 371.076 217.4 366.142 247 366.142C276.6 366.142 302.2 371.076 323.8 380.942C345.4 390.809 361.933 404.409 373.4 421.742C384.6 438.809 390.2 458.275 390.2 480.142ZM354.6 480.142C354.6 457.742 345.4 439.875 327 426.542C308.6 412.942 281.933 406.142 247 406.142C212.067 406.142 185.4 412.942 167 426.542C148.6 439.876 139.4 457.742 139.4 480.142C139.4 502.809 148.6 520.942 167 534.542C185.4 547.876 212.067 554.542 247 554.542C281.933 554.542 308.6 547.876 327 534.542C345.4 520.942 354.6 502.809 354.6 480.142ZM218.6 207.745C218.6 167.745 226.2 138.412 241.4 119.745C256.333 100.812 276.867 91.3453 303 91.3453C319.533 91.3453 334.467 95.3453 347.8 103.345C360.867 111.079 371.267 122.945 379 138.945C386.467 154.679 390.2 174.145 390.2 197.345C390.2 217.079 387.267 236.145 381.4 254.545C375.267 272.945 366.867 288.145 356.2 300.145L324.6 281.745C333.667 272.145 341 259.879 346.6 244.945C351.933 230.012 354.6 214.279 354.6 197.745C354.6 176.679 350.2 160.412 341.4 148.945C332.333 137.212 320.067 131.345 304.6 131.345C287.8 131.345 275.133 137.745 266.6 150.545C257.8 163.345 253.4 185.212 253.4 216.145L253.4 279.745L107 264.945L107 106.945L141.8 106.945L141.8 231.345L218.6 238.945L218.6 207.745Z" fill="#CCCCCC" fill-opacity="0.8"/>
</g>
<defs>
<clipPath id="clip0">
<rect width="800" height="800" fill="white"/>
</clipPath>
</defs>
</svg>
