<svg width="800" height="800" viewBox="0 0 800 800" fill="none" xmlns="http://www.w3.org/2000/svg">
<g clip-path="url(#clip0)">
<path d="M390.2 460.056C390.2 482.19 384.6 501.923 373.4 519.256C361.933 536.323 345.4 549.79 323.8 559.656C302.2 569.523 276.6 574.456 247 574.456C217.4 574.456 191.8 569.523 170.2 559.656C148.6 549.79 132.2 536.323 121 519.256C109.533 501.923 103.8 482.19 103.8 460.056C103.8 438.19 109.533 418.723 121 401.656C132.2 384.323 148.6 370.723 170.2 360.856C191.8 350.99 217.4 346.056 247 346.056C276.6 346.056 302.2 350.99 323.8 360.856C345.4 370.723 361.933 384.323 373.4 401.656C384.6 418.723 390.2 438.19 390.2 460.056ZM354.6 460.056C354.6 437.656 345.4 419.79 327 406.456C308.6 392.856 281.933 386.056 247 386.056C212.067 386.056 185.4 392.856 167 406.456C148.6 419.79 139.4 437.656 139.4 460.056C139.4 482.723 148.6 500.856 167 514.456C185.4 527.79 212.067 534.456 247 534.456C281.933 534.456 308.6 527.79 327 514.456C345.4 500.856 354.6 482.723 354.6 460.056ZM352.2 72.0312L387 72.0312L387 273.231L359.8 273.231L249.8 159.231C236.467 145.365 225 136.031 215.4 131.231C205.533 126.431 195.667 124.031 185.8 124.031C171.133 124.031 159.8 129.231 151.8 139.631C143.533 149.765 139.4 164.431 139.4 183.631C139.4 214.565 149.533 238.431 169.8 255.231L146.2 282.431C132.867 271.498 122.467 257.231 115 239.631C107.533 221.765 103.8 201.898 103.8 180.031C103.8 150.698 110.867 127.365 125 110.031C138.867 92.6979 157.8 84.0312 181.8 84.0312C196.733 84.0312 210.867 87.2312 224.2 93.6312C237.533 100.031 252.733 112.165 269.8 130.031L352.2 215.631L352.2 72.0312Z" fill="#CCCCCC" fill-opacity="0.8"/>
</g>
<defs>
<clipPath id="clip0">
<rect width="800" height="800" fill="white"/>
</clipPath>
</defs>
</svg>
