<svg width="800" height="800" viewBox="0 0 800 800" fill="none" xmlns="http://www.w3.org/2000/svg">
<g clip-path="url(#clip0)">
<path d="M390.2 426.236C390.2 448.369 384.6 468.103 373.4 485.436C361.933 502.503 345.4 515.969 323.8 525.836C302.2 535.703 276.6 540.636 247 540.636C217.4 540.636 191.8 535.703 170.2 525.836C148.6 515.969 132.2 502.503 121 485.436C109.533 468.103 103.8 448.369 103.8 426.236C103.8 404.369 109.533 384.903 121 367.836C132.2 350.503 148.6 336.903 170.2 327.036C191.8 317.169 217.4 312.236 247 312.236C276.6 312.236 302.2 317.169 323.8 327.036C345.4 336.903 361.933 350.503 373.4 367.836C384.6 384.903 390.2 404.369 390.2 426.236ZM354.6 426.236C354.6 403.836 345.4 385.969 327 372.636C308.6 359.036 281.933 352.236 247 352.236C212.067 352.236 185.4 359.036 167 372.636C148.6 385.969 139.4 403.836 139.4 426.236C139.4 448.903 148.6 467.036 167 480.636C185.4 493.969 212.067 500.636 247 500.636C281.933 500.636 308.6 493.969 327 480.636C345.4 467.036 354.6 448.903 354.6 426.236ZM107 100.211L387 100.211L387 139.811L141.8 139.811L141.8 203.011L107 203.011L107 100.211Z" fill="#CCCCCC" fill-opacity="0.8"/>
</g>
<defs>
<clipPath id="clip0">
<rect width="800" height="800" fill="white"/>
</clipPath>
</defs>
</svg>
