<svg width="691" height="691" viewBox="0 0 691 691" fill="none" xmlns="http://www.w3.org/2000/svg">
<rect x="75.9995" width="869.388" height="107.406" transform="rotate(45 75.9995 0)" fill="#F9F9F9"/>
<path d="M345.5 688C158.266 688 2.99951 534.505 2.99951 344.355C2.99951 156.495 155.983 3 345.5 3C535.016 3 688 156.495 688 346.646C685.716 534.505 532.733 688 345.5 688ZM345.5 161.077C242.75 161.077 160.55 243.552 160.55 346.646C160.55 449.739 242.75 529.923 345.5 529.923C448.25 529.923 530.45 447.448 530.45 344.355C530.45 241.261 445.966 161.077 345.5 161.077Z" fill="#1E1E1E"/>
</svg>
