<svg fill="none" height="59" viewBox="0 0 68 59" width="68" xmlns="http://www.w3.org/2000/svg"><path d="m30.5852 0v16.3065c0 8.598-1.0393 15.5654-3.118 21.0503-2.0786 5.4849-5.4934 10.0804-10.5414 13.9347-4.8996 4.0025-10.54152 6.5226-16.9258 7.7085v-13.0452c4.45415-2.5201 7.12664-5.9297 7.72052-10.2287h-7.72052v-35.7261zm37.4148 0v16.3065c0 8.598-1.0393 15.5654-3.1179 21.0503s-5.4935 10.0804-10.5415 13.9347c-5.048 3.8542-10.6899 6.3743-16.9258 7.7085v-13.0452c4.4542-2.5201 7.1267-5.9297 7.7206-10.2287h-7.7206v-35.7261z" fill="#1e1e1e"/></svg>