<svg width="100" height="100" viewBox="0 0 100 100" fill="none" xmlns="http://www.w3.org/2000/svg">
<path d="M53.128 78.152V79.6672C53.5808 79.6672 54.0097 79.4647 54.2976 79.1153C54.5853 78.766 54.7018 78.3061 54.6152 77.8619L53.128 78.152ZM49.3744 68.455L48.1623 69.3641L48.1692 69.3732L49.3744 68.455ZM93.7927 42.1794H92.2776C92.2776 42.3422 92.3039 42.504 92.3553 42.6585L93.7927 42.1794ZM98.4848 56.2556V57.7708C98.9718 57.7708 99.4292 57.5367 99.7139 57.1416C99.9988 56.7464 100.076 56.2385 99.9223 55.7766L98.4848 56.2556ZM90.6647 56.2556V54.7405C89.8279 54.7405 89.1495 55.4188 89.1495 56.2556H90.6647ZM77.2141 75.4932L78.6759 75.8919C78.6832 75.8649 78.6897 75.8379 78.6956 75.8106L77.2141 75.4932ZM76.5885 84.4081V85.9232C77.4253 85.9232 78.1036 85.2449 78.1036 84.4081H76.5885ZM53.128 82.8929C52.2912 82.8929 51.6129 83.5713 51.6129 84.4081C51.6129 85.2449 52.2912 85.9232 53.128 85.9232V82.8929ZM54.6432 90.6643V89.1491H51.6129V90.6643H54.6432ZM78.1036 90.6643V89.1491H75.0733V90.6643H78.1036ZM43.7439 15.542H45.2591V12.5117H43.7439V15.542ZM34.047 21.2214L34.6238 22.6225C34.6305 22.6197 34.6371 22.6169 34.6438 22.614L34.047 21.2214ZM26.0705 24.5058L25.4935 23.1049C25.4868 23.1076 25.4802 23.1103 25.4735 23.1132L26.0705 24.5058ZM22.6295 23.8802L21.5582 24.9516C21.5905 24.984 21.6244 25.0149 21.6595 25.0443L22.6295 23.8802ZM10.5865 34.0464L11.6579 32.975L10.5865 34.0464ZM12.3069 35.7669L11.2356 36.8382L12.3069 35.7669ZM12.6197 37.4873L11.2646 36.8097C11.2484 36.8419 11.2335 36.8747 11.2197 36.9079L12.6197 37.4873ZM8.86608 46.5587L10.2588 47.1555L10.2661 47.1379L8.86608 46.5587ZM8.70968 65.9526L10.1107 65.3756C10.108 65.369 10.1052 65.3623 10.1023 65.3558L8.70968 65.9526ZM11.9941 73.9291L10.5931 74.5059C10.6072 74.5402 10.6224 74.5737 10.6389 74.6067L11.9941 73.9291ZM11.5249 77.37L10.555 76.2059C10.5198 76.2353 10.4859 76.2663 10.4535 76.2987L11.5249 77.37ZM10.5865 78.3084L9.51514 77.237L10.5865 78.3084ZM25.9139 87.6926L26.4909 86.2916C26.4761 86.2853 26.4611 86.2796 26.4459 86.2738L25.9139 87.6926ZM33.8905 90.977L34.4874 89.5844C34.4808 89.5816 34.4741 89.5787 34.4674 89.5759L33.8905 90.977ZM45.1515 99.9994H46.6667V96.9691H45.1515V99.9994ZM28.5655 44.6087C29.0433 43.9217 28.8738 42.9775 28.1868 42.4996C27.4998 42.0217 26.5556 42.1912 26.0779 42.8782L28.5655 44.6087ZM53.128 78.152C54.6151 77.8619 54.6151 77.8616 54.615 77.8614C54.615 77.8612 54.615 77.8609 54.615 77.8606C54.6148 77.8602 54.6147 77.8597 54.6145 77.859C54.6144 77.8578 54.6139 77.8559 54.6136 77.8538C54.6127 77.8497 54.6117 77.844 54.6102 77.8367C54.6073 77.8222 54.6032 77.8017 54.5977 77.7755C54.587 77.7229 54.5714 77.6475 54.5506 77.5514C54.5094 77.3593 54.448 77.0844 54.3668 76.7455C54.2047 76.0688 53.9615 75.1316 53.6365 74.0856C53.0015 72.0416 52.0005 69.4017 50.5795 67.5367L48.1692 69.3732C49.2508 70.7928 50.1265 73.0016 50.7427 74.9847C51.0433 75.9526 51.2694 76.8235 51.42 77.4519C51.4951 77.7655 51.5512 78.0173 51.5882 78.1887C51.6065 78.2744 51.6202 78.3399 51.6289 78.3829C51.6333 78.4044 51.6367 78.4203 51.6386 78.4303C51.6395 78.4353 51.6403 78.4388 51.6406 78.4408C51.6409 78.4417 51.6411 78.4425 51.6411 78.4426C51.6411 78.4428 51.6411 78.4428 51.6411 78.4426V78.4425C51.6409 78.4423 51.6409 78.4422 53.128 78.152ZM50.5865 67.5459C44.9176 59.9873 39.0029 51.1449 39.0029 42.1794H35.9726C35.9726 52.295 42.5703 61.9081 48.1623 69.3641L50.5865 67.5459ZM39.0029 42.1794C39.0029 27.3759 50.8368 15.542 65.6403 15.542V12.5117C49.1632 12.5117 35.9726 25.7023 35.9726 42.1794H39.0029ZM65.6403 15.542C80.4438 15.542 92.2776 27.3759 92.2776 42.1794H95.3079C95.3079 25.7023 82.1173 12.5117 65.6403 12.5117V15.542ZM92.3553 42.6585L97.0474 56.7347L99.9223 55.7766L95.2301 41.7002L92.3553 42.6585ZM98.4848 54.7405H90.6647V57.7708H98.4848V54.7405ZM89.1495 56.2556V65.6397H92.1798V56.2556H89.1495ZM89.1495 65.6397C89.1495 68.2438 87.0127 70.3808 84.4086 70.3808V73.4111C88.6862 73.4111 92.1798 69.9175 92.1798 65.6397H89.1495ZM84.4086 70.3808H81.7497V73.4111H84.4086V70.3808ZM81.7497 70.3808C78.8906 70.3808 76.3608 72.2444 75.7326 75.1756L78.6956 75.8106C79.0059 74.3626 80.2295 73.4111 81.7497 73.4111V70.3808ZM75.7523 75.0944C75.2345 76.9928 75.0733 79.0167 75.0733 80.9673H78.1036C78.1036 79.1641 78.2552 77.4344 78.6759 75.8919L75.7523 75.0944ZM75.0733 80.9673V84.4081H78.1036V80.9673H75.0733ZM76.5885 82.8929H53.128V85.9232H76.5885V82.8929ZM51.6129 90.6643C51.6129 95.8803 55.7321 99.9994 60.9482 99.9994V96.9691C57.4058 96.9691 54.6432 94.2067 54.6432 90.6643H51.6129ZM60.9482 99.9994H68.7683V96.9691H60.9482V99.9994ZM68.7683 99.9994C73.9844 99.9994 78.1036 95.8803 78.1036 90.6643H75.0733C75.0733 94.2067 72.3108 96.9691 68.7683 96.9691V99.9994ZM43.7439 12.5117H39.0518V15.542H43.7439V12.5117ZM39.0518 12.5117C36.4945 12.5117 34.4086 14.5977 34.4086 17.1549H37.4389C37.4389 16.2712 38.1682 15.542 39.0518 15.542V12.5117ZM34.4086 17.1549V18.4061H37.4389V17.1549H34.4086ZM34.4086 18.4061C34.4086 19.0172 34.0198 19.5846 33.45 19.8288L34.6438 22.614C36.2636 21.9197 37.4389 20.2975 37.4389 18.4061H34.4086ZM33.47 19.8203L25.4935 23.1049L26.6473 25.9069L34.6238 22.6225L33.47 19.8203ZM25.4735 23.1132C24.9994 23.3164 24.1876 23.2062 23.5995 22.7162L21.6595 25.0443C22.9483 26.1182 24.9518 26.6337 26.6673 25.8985L25.4735 23.1132ZM23.7009 22.8088L22.7624 21.8705L20.6197 24.0132L21.5582 24.9516L23.7009 22.8088ZM22.7624 21.8705C20.9195 20.0275 18.0833 20.0275 16.2405 21.8705L18.3832 24.0132C19.0427 23.3537 19.9602 23.3537 20.6197 24.0132L22.7624 21.8705ZM16.2405 21.8705L9.51514 28.5958L11.6579 30.7385L18.3832 24.0132L16.2405 21.8705ZM9.51514 28.5958C7.67221 30.4387 7.67221 33.2749 9.51514 35.1178L11.6579 32.975C10.9984 32.3155 10.9984 31.3981 11.6579 30.7385L9.51514 28.5958ZM9.51514 35.1178L11.2356 36.8382L13.3783 34.6955L11.6579 32.975L9.51514 35.1178ZM11.2356 36.8382C11.2639 36.8665 11.2752 36.885 11.2778 36.8896C11.2801 36.8935 11.2748 36.8853 11.2709 36.8655C11.269 36.8561 11.2677 36.8456 11.2674 36.8346C11.2671 36.8237 11.2678 36.814 11.2689 36.8062C11.2694 36.8025 11.27 36.7996 11.2705 36.7975C11.271 36.7953 11.2713 36.7943 11.2713 36.7943C11.2713 36.7943 11.2709 36.7956 11.2699 36.7981C11.2688 36.8006 11.2672 36.8044 11.2646 36.8097L13.9749 38.1649C14.619 36.8767 14.2428 35.5599 13.3783 34.6955L11.2356 36.8382ZM11.2197 36.9079L7.46606 45.9793L10.2661 47.1379L14.0198 38.0666L11.2197 36.9079ZM7.47344 45.9619C7.22927 46.5316 6.66189 46.9203 6.05083 46.9203V49.9506C7.94221 49.9506 9.56447 48.7755 10.2587 47.1555L7.47344 45.9619ZM6.05083 46.9203H4.64321V49.9506H6.05083V46.9203ZM4.64321 46.9203C2.08598 46.9203 0 49.0063 0 51.5635H3.0303C3.0303 50.6799 3.75958 49.9506 4.64321 49.9506V46.9203ZM0 51.5635V60.9478H3.0303V51.5635H0ZM0 60.9478C0 63.5049 2.08598 65.5909 4.64321 65.5909V62.5606C3.75958 62.5606 3.0303 61.8314 3.0303 60.9478H0ZM4.64321 65.5909H5.89442V62.5606H4.64321V65.5909ZM5.89442 65.5909C6.5055 65.5909 7.07288 65.9797 7.31703 66.5494L10.1023 65.3558C9.40806 63.7358 7.7858 62.5606 5.89442 62.5606V65.5909ZM7.30865 66.5294L10.5931 74.5059L13.3952 73.3522L10.1107 65.3756L7.30865 66.5294ZM10.6389 74.6067C11.0442 75.4172 10.8068 75.9961 10.555 76.2059L12.4949 78.534C14.1199 77.1797 14.1953 74.9435 13.3493 73.2516L10.6389 74.6067ZM10.4535 76.2987L9.51514 77.237L11.6579 79.3797L12.5963 78.4414L10.4535 76.2987ZM9.51514 77.237C7.67221 79.0799 7.67221 81.9161 9.51514 83.759L11.6579 81.6162C10.9984 80.9569 10.9984 80.0393 11.6579 79.3797L9.51514 77.237ZM9.51514 83.759L16.0841 90.3279L18.2268 88.1852L11.6579 81.6162L9.51514 83.759ZM16.0841 90.3279C17.927 92.1709 20.7632 92.1709 22.6061 90.3279L20.4633 88.1852C19.8038 88.8447 18.8864 88.8447 18.2268 88.1852L16.0841 90.3279ZM22.6061 90.3279L23.5445 89.3896L21.4018 87.2469L20.4633 88.1852L22.6061 90.3279ZM23.5445 89.3896C23.9841 88.95 24.5747 88.8085 25.382 89.1112L26.4459 86.2738C24.7508 85.6382 22.8391 85.8096 21.4018 87.2469L23.5445 89.3896ZM25.3371 89.0935L33.3136 92.3781L34.4674 89.5759L26.4909 86.2916L25.3371 89.0935ZM33.2936 92.3697C33.8633 92.6138 34.2523 93.1813 34.2523 93.7923H37.2826C37.2826 91.9009 36.1073 90.2787 34.4874 89.5844L33.2936 92.3697ZM34.2523 93.7923V95.3562H37.2826V93.7923H34.2523ZM34.2523 95.3562C34.2523 97.9135 36.3382 99.9994 38.8955 99.9994V96.9691C38.0118 96.9691 37.2826 96.2399 37.2826 95.3562H34.2523ZM38.8955 99.9994H45.1515V96.9691H38.8955V99.9994ZM26.0779 42.8782C23.4033 46.7228 21.8964 51.2462 21.8964 56.2556H24.9267C24.9267 51.8808 26.235 47.9585 28.5655 44.6087L26.0779 42.8782ZM21.8964 56.2556C21.8964 69.1355 32.4282 79.6672 45.3079 79.6672V76.6369C34.1017 76.6369 24.9267 67.4619 24.9267 56.2556H21.8964ZM45.3079 79.6672H53.128V76.6369H45.3079V79.6672Z" fill="#1E1E1E"/>
<path d="M67.1553 1.51515C67.1553 0.678356 66.4769 0 65.6401 0C64.8033 0 64.125 0.678356 64.125 1.51515H67.1553ZM64.125 4.64321C64.125 5.48 64.8033 6.15836 65.6401 6.15836C66.4769 6.15836 67.1553 5.48 67.1553 4.64321H64.125ZM91.0383 14.0145C90.4266 14.5855 90.3934 15.5442 90.9645 16.1561C91.5354 16.7677 92.4942 16.8008 93.106 16.2298L91.0383 14.0145ZM95.4519 14.0402C96.0637 13.4693 96.0968 12.5105 95.5259 11.8987C94.9548 11.287 93.9962 11.2539 93.3843 11.8249L95.4519 14.0402ZM78.6074 6.93467C78.3181 7.71986 78.7201 8.59091 79.5053 8.88018C80.2906 9.16947 81.1616 8.76745 81.4509 7.98226L78.6074 6.93467ZM82.5457 5.01061C82.835 4.22539 82.433 3.35435 81.6477 3.06508C80.8625 2.77579 79.9915 3.1778 79.7022 3.96301L82.5457 5.01061ZM49.8293 7.98226C50.1186 8.76745 50.9897 9.16947 51.7748 8.88018C52.56 8.59089 52.9621 7.71986 52.6727 6.93465L49.8293 7.98226ZM51.578 3.963C51.2886 3.1778 50.4175 2.77579 49.6324 3.06508C48.8472 3.35436 48.4451 4.22539 48.7345 5.01061L51.578 3.963ZM59.4322 68.7685C59.4322 69.6053 60.1106 70.2836 60.9474 70.2836C61.7842 70.2836 62.4625 69.6053 62.4625 68.7685H59.4322ZM54.6913 43.7441V42.2289C54.0784 42.2289 53.526 42.598 53.2915 43.1642C53.0569 43.7304 53.1866 44.3821 53.62 44.8154L54.6913 43.7441ZM76.5877 43.7441L77.659 44.8154C78.0924 44.3821 78.2221 43.7304 77.9875 43.1642C77.753 42.598 77.2006 42.2289 76.5877 42.2289V43.7441ZM68.8165 68.7685C68.8165 69.6053 69.4948 70.2836 70.3316 70.2836C71.1683 70.2836 71.8468 69.6053 71.8468 68.7685H68.8165ZM64.125 1.51515V4.64321H67.1553V1.51515H64.125ZM93.106 16.2298L95.4519 14.0402L93.3843 11.8249L91.0383 14.0145L93.106 16.2298ZM81.4509 7.98226L82.5457 5.01061L79.7022 3.96301L78.6074 6.93467L81.4509 7.98226ZM52.6727 6.93465L51.578 3.963L48.7345 5.01061L49.8293 7.98226L52.6727 6.93465ZM62.4625 68.7685C62.4625 64.107 62.4671 59.2724 61.6562 54.8123C60.8395 50.3209 59.1777 46.0877 55.7627 42.6727L53.62 44.8154C56.461 47.6565 57.9272 51.2435 58.6747 55.3544C59.4277 59.4962 59.4322 64.0459 59.4322 68.7685H62.4625ZM54.6913 45.2592H76.5877V42.2289H54.6913V45.2592ZM75.5163 42.6727C72.1012 46.0877 70.4395 50.3209 69.6228 54.8123C68.8119 59.2724 68.8165 64.107 68.8165 68.7685H71.8468C71.8468 64.0459 71.8512 59.4962 72.6043 55.3544C73.3518 51.2435 74.818 47.6565 77.659 44.8154L75.5163 42.6727Z" fill="#00FFFF"/>
</svg>
