<svg xmlns="http://www.w3.org/2000/svg" viewBox="0 0 434.8 540.2"><title>Recurso 1</title><g id="c6818afb-e7cc-4ef5-835b-0aba2afe52b3" data-name="Capa 2"><g id="29483426-c29f-4318-925c-2a437457b696" data-name="Capa 1"><path d="M301.1,431.7c-2.8,7.7-6.2,14.2-14.6,18.2s-12.6,9.7-18.9,14.6c-1,.7-2.7.5-4.1.7v.2l1.8-2-1.3-1.1-4.2,5.2h-.1l-2.6,1.6.2-.2h-.1c-4.8,4.3-9.8,8.3-14.2,12.9-7.9,8-17.7,11-28.5,12.6-4.9.8-9.4,3.8-14.2,5.4-2.2.8-4.6.6-6.9,1L182,503.4h0c-.5-1.6-.7-3.4-1.7-4.6a51.1,51.1,0,0,0-8.3-7.8,98.5,98.5,0,0,0-11.5-6.3c-.5-.3-1.5.3-2.3.4l.6,2.3c.5,2.1,1.1,4.3,1.8,6.5l-16.7-19.9v-1.2c3.5,1.9,7.1,3.5,10.3,5.7s4,5.1,7.6,2.1l2,2.9.4.2h-.5l-2.1-3-14-16.4,1.2-.3-.4-.6a7.6,7.6,0,0,1-.8,1.1,11.5,11.5,0,0,0-2.6.3c-.6.3-1.3,1.4-1.7,1.3-8.8-2.9-4.4,4.7-7.7,7.5.1-3.6.2-7.2.2-10.8,0-1.2-.1-2.4-.1-3.6a17.6,17.6,0,0,0-3.3.7c-4.2,1.8-8.4,3.4-12.5,5.4-1,.5-2.5,2.2-2.3,3,1.4,5.4-1.7,5.1-5.2,4.5-7.3-1.1-15.8,3.5-16.7,9.8-.3,1.9,1.9,4.2,3.1,6.3.3.5,1.2.7,1.3,1.1.6,3.1,1.1,6.2,1.6,9.1l-2.6-1.5h.1c1.3,3.2,2.3,6.5,3.9,9.6,2.6,5.3,3.8,10.3-.7,15.1v-.1a31.5,31.5,0,0,0,4.1-3.1c4.3-4.2,7-10,15-9.4,6.2.4,9.4-6.1,7.1-11.9-1.5-3.5-3.3-6.9-4.4-10.5s-.5-4.7-.7-7.1l2.1-.6c2.7,5.9,5.7,11.7,8.1,17.8,1.3,3.4,2.4,4.9,6.4,3.7s8.1-.9,11.6-2.1c-9.6,4.2-18.8,9.7-28.9,12.2-8,1.9-12.5,6.3-17,12.1-1,1.2-5.1,1.7-6,.8-6.2-6.1-13.6-3.4-19.7-1.8s-14.1,6-19.9,10.6-13.6,8.9-22.4,6.8c-4.6-1-11.5,2.4-13.2-3.9s-3.2-15.4-1.8-22.7a50.2,50.2,0,0,1,23.5-34.1l-13.3,1.6c6.8-2.2,13.8-3.9,20.3-6.7s11.3-6,16.8-9.2c.7-.4.8-1.7,1.1-2.6s-1.6-.6-2.2-.4c-11.3,4.1-22.6,8.1-33.7,12.7-1.3.5-1.5,4-2.2,6.1-8.6,2.1-25.5-4.7-29.2-12.5-1.3-2.7-7-5.9-1.4-9.9,0,.3-.1.6-.1,1v-.9c2-8.3,7.2-14.2,13.9-18.9s11.6-8.7,17.9-12.1c14.6-8.1,29.2-16.4,44.6-22.8,4.9-2.1,12.4,1.1,18.4,2.8,12,3.4,23.7,7.7,35.8,11.1,2.6.7,6.5-.4,8.9-2,15.1-10.3,31.9-10.5,49-8.3,4.4.6,7.7-1.9,11.2-2.7,9.1-2,6.5-8.5,7.8-13.7a7,7,0,0,1,1.3-3.2c6.6-7.5,4.5-16.7,5.2-25.4,1-12.1.2-24.5,4.8-36.4.8-1.8-4.1-6.7-7.2-9s-6.3-1.8-9.6-2.3c-1.1-.2-3.3.8-3.4,1.4-1.1,8.6-1.1,17-4.1,25.7-2,5.8,3.1,14.1,5,21.3.6,2.2,1.4,4.3,2.1,6.5a10.6,10.6,0,0,0-1.7-2.3,14,14,0,0,0-4.3-2c-.3-.1-1.6,2.1-1.5,2.3,1.7,2,3.6,3.7,5.4,5.5l2-3.7c.3,1.6.5,3.2.8,4.8-1.5.1-3.6.9-4.4.2a75.6,75.6,0,0,1-9.7-9.9c-1.5-1.7-2.2-4.2-4.7-6.3-.6,4.7-1.2,9.4-1.7,14.2-.1,1.3.9,3,.4,3.9-1.7,2.8-3.9,5.4-5.9,8.1-2.4-2.4-6.5-4.4-6.8-7-.9-6,.1-12.1-1-18.4-1.1,6.7-1.7,13.5-3.5,19.9-1,3.5-4.2,6.3-6.4,9.4-2.7-3.1-7.5-5.9-7.9-9.3-.7-6,1.2-12.4,2.2-20.6-2.4,2.8-4,4.4-5.3,6.2s-2.4,5.1-4.4,6.5-6.7,3.2-10.1,4.7c-1.4-4.5-4.2-9-3.9-13.3s3.4-7.5,6.2-10.4c11.9-12.2,18.2-27,23-43,1.1-3.8,4.8-6.7,6.5-10.4,1-1.9.5-4.7.2-7.1s-2.1-6.9-1.2-9.6,4.9-3.1,7.4-4.6a9.1,9.1,0,0,0,3.1-2.7c1-1.5,1.2-3.5,2.3-4.9,3.6-4.3,2.8-7.7-1.8-10.5h.1l-7.6-8a5.5,5.5,0,0,1-1.5-1.9c-4.6-11.7-10-23.1-13.4-35.1-4.6-16.3-8.3-33-4.7-50.2a2.5,2.5,0,0,0-.1-1.9c-4.9-5.4-1.5-10,1-14.9,5.7-11,12.2-20.6,24-26.4s20.6-6.9,31.7-4c1.5.4,3.2-.1,4.8-.2a37.5,37.5,0,0,0-1.6-4.3c-9.4-20.1-17.8-40.3-8.9-63a9.1,9.1,0,0,0-.2-6.7c-2.1-5-.1-7.5,4.2-9.5a13.9,13.9,0,0,0,5-3.7C231.5,5.8,258-4.2,290.1,1.6a17.1,17.1,0,0,0,4.5.3c9.7-1,15,4.9,13.4,14.8h.1c-2.5-6.3-3.3-6.7-8.3-3.5l4.1.8v1.3l-5.4,1L297.2,15a4.1,4.1,0,0,1-.7,1.1h2.2l-8.1,8.5h.1L288,27.4l6.1.6-6.3,5.2h0a64.7,64.7,0,0,1-4.7,5.7c-1,.9-2.7,1.1-4.1,1.6a9.4,9.4,0,0,1,2,2.9,35.7,35.7,0,0,1,1,5.7h-.1l-3.5-.4c-.9,5.4-1,13.5,6.3,14a32.6,32.6,0,0,0,4,2.4c.4.2,1.2-1.1,1.9-1.7l-4.7-1.1c-.4-.1-.9.3-1.3.5-.5-1.9-1.4-3.7-1.4-5.6s1.1-2.8,1.7-4.3a29,29,0,0,1,3.6,2.5c4.4,4.4,8.7,8.9,13.2,13.2a22,22,0,0,0,4.4,2.8l-6.7,5.6h.1L296.6,78l2.4.8h-.1v1.4h-.1l1.2-1h-.1l10.3-3.3h.1l-3.5-1.8c2.2-1.2,4.2-2.8,6.5-3.3s5.7.3,8.3-.4c11.2-3,11.6-3.6,12.9-15.8h-.1a80.8,80.8,0,0,1,2,8.5,103.6,103.6,0,0,1,1.1,15.7c-.1,2.9-1.8,5.7-3,8.4s-4,5.8-4.2,8.9c-.2,1.3,4,3.5,6.5,4.5,5.5,2.2,10.3,5.2,11,11.5s-2.9,10.3-8.6,12.6c-.4.2-1.3.3-1.3.5s-.3,2.6.2,2.8c3.9,2.3-3.6,11.8,6.2,10,4.7-1,8.5.4,9.3,4.9,1.1,6.3,5.4,8.1,10.5,9.7,3.1.9,6.7,1.1,9.5,2.7s3.7,3.9,3.5,5.8c-.2,3.6-2.9,4.1-6.2,2.6-5.4-2.5-10.9-4.8-16.4-7.1-.1-.1-.3.1-1.9.8,5.6,5.3,10.8,10.1,15.9,15.1,2.9,2.9,6.1,5.8,8.4,9.2,4,6,1.2,11.4-5.9,12.5-1.4.2-2.6,1.4-3.8,2.2l-11.5-21.7-.7.5c5.3,14,10.7,28,16.1,42l2.2-.8c-2.1-6.7-4.1-13.4-6.2-20.2,2.3,5.4,4.5,10.9,7.2,16.1s4.7,14.3,13.9,15.9,7.5,8.3,7.2,14a162.1,162.1,0,0,1-2.7,23c-.5,2.8-2.9,5.2-4.3,7.9s-2,3.5-1.6,4.7c1.5,4,3.7,7.7,5.4,11.5s2,6.1,3.4,8.9,2.7,7.5,5.4,9.7c9.4,7.6,19.6,14.3,29,22,2,1.6,2.2,5.5,3.2,8.4a74.2,74.2,0,0,1-7.7,2.2,5.5,5.5,0,0,1-2.8-.2c3.8,8.7,7.9,17.5,11.4,26.5a12.2,12.2,0,0,1-.2,8.4c-2.5,6.4-4,6.4-8.6,1.4a37.4,37.4,0,0,0-2.9-2.5,15.2,15.2,0,0,1-1.2,3.2c-1.8,2.3-3.7,4.4-5.6,6.6.1-.7.1-1.5.2-2.3l-1.2.4a11.8,11.8,0,0,1,1.1,1.9c-1.3-.5-3.7-.7-3.9-1.5-1.6-6.6-4.7-3.5-7.8-1.5-5.3,3.8-6.8,3.3-7.4-3.3-.4-3.5.6-7.2.6-10.8,0-1.5-1.2-2.9-1.8-4.3a21.1,21.1,0,0,0-1.8,3.3c-1.6,5.4-2.5,11-8.7,13.7-3.7,1.6-5.1.3-5.3-3.1a19.6,19.6,0,0,1,.6-6.4c3.9-13.4,1.2-25.3-8.6-35.3-4.6-4.8-7.7-9.9-6.5-17,.3-1.5-.8-3.3-1.3-4.9-1,1.2-2,2.4-3.1,3.5l-1.8,1.6c-.8,1.3-1.6,2.6-2.3,3.9l1.8.7c.1-1.6.3-3.2.4-4.7,2.9,7.6-3.2,11.9-6.4,17.3v.2h-3.2l-2.4-3.7c1.5-1,3.2-1.8,4.3-3.1s-.2-2-.4-3l-6.5,1.4c1,1.5,1.9,3.1,2.8,4.6l-3.8,4.8h-.1c-2.2,5-4.5,10.1-6.7,15.2a2.3,2.3,0,0,0,.3,1.7c.8.1,1.9.2,2.3-.2s2-2.9,4.4-3.6l-10.7,20.5.2.7,12.2-13.6h-.1c1.8,3.6.5,5.5-2.6,7.7s-3.3,5-4.5,7.7a56.4,56.4,0,0,0-3.3,8.6c-3.1,10.9-11.8,17.7-18,26.3s-10.5,16-15.7,24.1c5.5-13.8,13.9-25.7,24.5-38.1-3.7,2.4-6.8,3.7-8.7,5.9-6,7.4-11.6,15.1-17.4,22.7a63.6,63.6,0,0,0-5,6.6c-2,3.4-2.8,7.9-5.5,10.5-5,4.8-11.1,8.4-16.6,12.7a12.1,12.1,0,0,0-2.1,2.4c1.1.7,2.2,2.1,3.1,1.9s4.3-1.3,6.5-2l-.7-1.4-5,1.6a14.7,14.7,0,0,1,7.5-4.8c7.4-1.9,12.8-5.9,16.2-12.7A60,60,0,0,1,301.1,431.7ZM91.9,489.4h-.1l-.6-1.3c-2.5-8.8,4.9-13.1,9.2-19.2-10.8,2.8-15.2,12.4-9.1,19.1ZM275.3,47.1h-.1l.2.2ZM106.6,469.2v0ZM297.2,74.4l-1.3-.5-1-1.7L292.8,75h-.1l3.3-1,1.1.3h.1ZM213.3,58.3h.1l.6,1.4,1.7,1.2v.3l-.2-.2-1.7-1.2Zm104.4,79.8h.1l1,1.2v.2h-.2Zm10.7,2.8-1.3.7h0l1.2-.7h.1ZM128,456.7l1.1-.9,2.3.2v.1l-2.2-.2-1.2.9ZM282.6,168.5h.2v.2S282.7,168.5,282.6,168.5Zm78.8,119.4h0ZM296,268.4l1.5-.2c6.3-2.5,7.5-7.9,7.5-13.8s-4.2-14.4-10.5-17c10.6,9.9,11.3,20.1,3.1,30.9l-1.7.2v-.1ZM56.8,417.3l.9,1.5c.1.6.2,1.2,0,.3.6.8.2.3-.1-.3l-.9-1.4Zm123.3,24,1.1-1.1h0l-1,1.1-.2-.2Zm-88.8-28v.2h.1ZM293.6,19.1h.4a.3.3,0,0,0,.1-.2l-.4.3h-.2ZM89.5,455.9l.3-.2h-.3l.4.3h.3ZM321.4,177.4l-.9,2.2-3.9,1.2a17.2,17.2,0,0,0,3.2,2.3c4.2,1.9,8.6,3.4,12.8,5.6,1.9,1,3.5,2.9,5.2,4.4-1.8,1.8-3.3,4.4-5.5,5.1a10.5,10.5,0,0,1-7.4-.5c-6.4-3-12.5-6.7-18.7-10.1l-.6-.4.7.4c1.5,5.4,6.2,11.9-5.3,12.4l13.3,6.6h0c-.1,2.7-.1,5.3-.1,7.1l-7.1-2.3,3.8,6.4c.5.7,1,1.8,1.6,1.9,5,1,10,2.5,15,2.6,3,.1,5.9-2.3,9-2.9s6.3.2,9.4-.1,5.2-2.3,3.3-5.6a7,7,0,0,1-.3-2.9c-.4-5-.3-10-1.1-14.9s-2.2-9.2-3.4-13.8-3.8-10.3-11-7.6c-4.3,1.6-8.6,3.5-12.9,5.2l.9-2.3ZM183.7,456.1h0l-.8,2.8-4.3-.2c3,9.6,6.2,11.6,12.9,8.3l.2-1a20.1,20.1,0,0,1,2.5-1.4H194l1.9-2.6.3-1c7.9-1.3,11.2-5.2,12.3-13.5.4-2.8,1.8-5.5,2.8-8.2s1.5-2.5,2.2-3.7c-2.1-1.2-4.2-3.2-6.4-3.5s-16.2,17.2-17.5,19.8-4.4,4.7-6.7,7C183.1,458.1,183.4,457.1,183.7,456.1Zm52.7-290.8h-.1a25.1,25.1,0,0,1,.4-2.7l-1.9-2.1-1.4-1.1-.2.3,1.7.7,1.8,2.2ZM82.8,405.9h-.4l-.3.2.6-.3ZM283.6,193.5h0v-.1Zm67.6,26.4-.3.3.2-.4Zm-2.3,46h.1v.4C349,266.2,349,266,348.9,265.9Zm-21.7-166h.4c.1,0,.1-.2.2-.2l-.5.4ZM288.3,77.2l-.8-.4v.5l.9-.2v.1Zm1.9-3.7h-2.8c-1,.8-.4.3.3-.2h2.5Zm.4,76.7h.1l2,.8c-2.1,3.1-.8,5.4,1.8,7.1.1.1,2.2-2.5,3.4-3.8h-.2l10.6,3.7h-.1c1.2.5,3,.7,3.5,1.6,3.4,6.8,9.5,5.9,15.4,5.7a61.7,61.7,0,0,0,6.2-.9c-.7-2.1-1-4.6-2.3-6.3-5.4-6.7-12.2-12.5-16.3-19.8s-6.5-6.2-11.7-4.4c-2.2.7-4.6.9-6.7,1.8s-.5,2.1-.7,3.2h-.1L292.8,151Zm4.5-139.6h.1v.1Zm-15,106.9-.8-.3c-.1-.1-.3,0-.4.1h1.2v.1ZM170.4,475.9l-1.3.2.2.4,1-.7Zm7.5,15.2h-.4c-.1-.1-.2,0-.3,0h.9a25,25,0,0,0,.5,2.9l1.8,1.1.2-.4-2.1-.6C178.3,493.1,178.2,492.1,177.9,491.1Zm-84.3,8h.1l-.9,2.2c-1.9-1.3-.9-7.4-5.1-4.1s-6,6.7-6.2,10.3c-.7,9.4,5.8,13.7,14.7,10.3,1.2-.4,2.6-3,2.3-4.1-.9-3.8-2.6-7.3-4-11l.2-1A27.2,27.2,0,0,0,93.6,499.1ZM198.1,257.7l1.1-.6h-.3l-.8.7-.3-.3ZM282.6,75.9H282l.7.2-.6,1.2.2.3Zm34.2-2.8-1.6.4v.4l1.5-.9,1.2.6.2-.6ZM305.4,263.7l.3-1.8-.2,1.8,1,1.5v-2l6.1,1.8,5.3-.5,6.2-.7-.9-3.1-4.8,2,2.6-5.1-2.8,1.4h0l-.6,3.6-5.2-6.3a11.8,11.8,0,0,0,1.1-1.9l-.4-.2-.6,2.1v8.9c-.6-3.8-1.3-7.6-2.2-12.7l-3.8,10.9ZM173,487.3h-.1l.2-1.7h-.4ZM332.4,132.2H332l.4.2c.2.7.3,1.3,0,0C333.1,133.5,332.8,132.8,332.4,132.2ZM67.1,439.3h-.2l-1.8-3.6L63.6,433c-.9-2.4-1.8-4.8-2.8-7.2H61l-.7,2.1-2.1-.5c-.5-1.6-1.1-3.2-1.6-4.8L54.1,419l.2-.2v.2l2.5,3.5c.6,1.6,1.1,3.1,1.6,4.7,3,6.4,5.9,12.7,8.9,19l1.7-.9c-2-4.2-3.9-8.5-5.9-12.7.3,0,.5.2.8.3s.9,1.8,1.4,2.7S66.4,438.1,67.1,439.3ZM284.3,337l-1,2.5h.5a25.1,25.1,0,0,1,.4-2.7l1.8.2v-.4Zm64-87.1h.1l.5,2.5.9-.3ZM34.4,435l.9,1.3c0,1.6.1,3.2.2,4.8l1.2,9.4-.3-.2.2.2,7,11.5c.3-.8,2-3.1,1.5-4.4-3-7.2-6.6-14.2-10-21.2l-.8-1.4-1-2-.6.4ZM288.7,141.1l2.6-1c.1,0-.1-.5-.2-.8l-2.5,1.9h.1ZM194.2,290.8h-.1l-2.2-2.6-.7.7ZM350.5,140.6l-1.8-1.2-.2.4,2.2.7c.3,1.7.6,3.3,1,4.9l1.1-.5ZM40.2,432.7h.1l2.5,5.8,6,12v.2h-.2c-1.9-4-3.9-8-5.9-12ZM233.7,257.9l2,2.8.9-1-3.1-1.7-3.9-5.5-1.1,1C230.2,255,231.9,256.5,233.7,257.9Zm99.2,98.7,4,.9.3-1.3-4.3.6Zm-37.8,24.2a11.1,11.1,0,0,0,1.9.9c.1,0,.4-.7.7-1.1l-2.7.4,2.2-4.1-2.5-.5C294.8,377.9,295,379.4,295.1,380.8Zm-4.7-60.1v0l-1.9-3.7-1.2,1.3Zm-7.3-147.5V173h-.1l2.8,1.4.5-2ZM390.5,291.1h.1l2.9,7.2,1.3-.8ZM304.2,289l-6.4,4.7,1.2,1.4,5.1-6.2,1.7-1.4-.3-.2ZM217.9,395h0a4.3,4.3,0,0,0-.1.5c0,.1.1.3.1.4l3.1-2.2c.1,0-.4-1-.6-1l-4,.5ZM235.1,62.9l-4.8-2.2-.3.7,5.2,1.5,4.3,9,1.5-1C239,68.3,237.1,65.6,235.1,62.9Zm59.8,159.7L289,225l.3,1.1,6.2-.9a25,25,0,0,0-.7-2.6c.2-.8.3-1.5.5-2.3l-7.5.3v1.5Zm46.7,79.2a36.1,36.1,0,0,0,4.6-1.7c.2-.1,0-1.6-.1-1.6s-2.9-.1-4.4-.2-4.1-2.2-4.6-1.7c-3.8,3.6-7.2,7.7-11,11.8,8.5,1,10.8-6.6,15.7-10.1,0,1.2-.1,2.4-.1,3.7s-.9,1.4-1.3,2.2l.5.2Zm20.5-84.2-.6-5.3-3-15.4c-1.6-5.9-3-11.9-5-17.8-.5-1.4-3-2.2-4.5-3.4l.9,4.4h-1.4v.7l1.2-.7c1,4.2,2,8.3,2.9,12.4h-.1c.9,2.4.1,6.4,4.8,5.3-3.9,3.2-2.9,10.2,2.1,15.1-.9,4.1-.2,5.6,2.3,5.9l.9-.3ZM217.8,234.5h-.4l-.7-.3,1.2.4,9.9,8.3,1.4-2Zm-4.1,211.7a38.4,38.4,0,0,0,5.9-.2,6.9,6.9,0,0,0,2.5-1.4l-2.7-2.2h0c-1.8,1.4-3.7,2.7-5.6,4ZM269.4,30.7l10.2-3.8-.6-1.2-9.6,5.2-3.1,2.4.7.7ZM142.9,460.2h0l-2.1-3.4c-.8.6-2.5,1.2-2.4,1.7a3.6,3.6,0,0,0,1.7,2.7C140.7,461.6,141.9,460.6,142.9,460.2Zm59.5-160.3,2.4,2.1c.2-.7.9-1.7.6-2.1a29.3,29.3,0,0,0-3.9-4.8c-.2-.2-1.3.5-2,.8a14.7,14.7,0,0,0,1,2.2l2,2h-.2Zm154-5-2.1,4.2,6.6-1.5c-.5-.9-.9-1.9-1.4-2.8l2.6-3.7-6.1.3C356.1,292.6,356.3,293.7,356.4,294.9ZM341.3,162.1c.5.9,1,1.8,1.4,2.7l2.3-1.3-3.8-1.4a76.2,76.2,0,0,0-2-7.9c-.1-.3-1.9-.1-2.9-.2a46.2,46.2,0,0,0,2.3,6.2C339.1,161,340.4,161.4,341.3,162.1Zm-113,85,7.1,8.4,1.4-1.5-8.6-6.8-11.4-9-1.5,2.3Zm61.1-35.2-7.3,3.1c3.6.4,5.1.9,6.4.7s4.5-1.3,6.8-2l-6.1-1.7,6.5-3.1-7.9-.3h-.5l-3.4,2.1,3.5.8ZM293,370.6l-1.8,5.8a15.7,15.7,0,0,0,2.7-.7,40.3,40.3,0,0,0-1.1-5l-2.2-4h.1a34.4,34.4,0,0,0-2.5-5.1c-.3-.4-2-.2-2.7.2a2.7,2.7,0,0,0-.9,2.4,32.4,32.4,0,0,0,1.9,3.7C287.8,371,289.3,373.4,293,370.6ZM93.6,456.7h-.1c2,.4,4,1.2,5.9,1.1s3.1-1.3,4.7-2c-.8-.9-1.5-2.5-2.4-2.7a83.1,83.1,0,0,0-8.7-.4Zm192-172.1h0a17.7,17.7,0,0,0,1.6-2.2c-2.1-.3-4.8-1.6-6.4-.8s-2.9,3.7-4.3,5.6c-5.4,7.6-5.1,8.7,2.8,10l-6.3.5a9.9,9.9,0,0,0,5.6,2.6c1.3.1,2.7-.6,4-.9l-3.4-2.1c5,1.1,6.4-2.4,7.1-6.1.2-.8-2.5-2.2-3.8-3.3l5.6-1.4ZM62.8,451.4l9,4.7.8-1.9-9.9-2.7c-.4-1.9-.5-4-1.4-5.6-4.6-7.4-9.4-14.7-12.1-18.8C51.3,433.4,55.4,443.3,62.8,451.4ZM191.7,119c-8.5-.9-14.9,3.2-20.6,8.6-.6.6-.5,2-.7,3a7.1,7.1,0,0,0,2.6-.7c6.3-3.6,12.5-7.3,18.7-11v.1ZM145,359.3c4.4,4.9,7.4.5,10-2.1.8-.8-.7-4-1.2-6.1l-8.7,8.2-.8-.4Zm89-250.2-1,.2-6.9,2c.8,2.2,1.1,5.4,2.7,6.2s5.2.5,7.8.6l-1.8-7.2a15.1,15.1,0,0,0-.9-1.8l.8.3ZM19.4,446.8V443l-1.2.2,1.4,3.5c1.5,4.7,3.1,9.3,4.5,13.9a37,37,0,0,1,1.6,5.7c.1,1.1-.5,2.3-.5,3.5a3.3,3.3,0,0,0,2.4.5c1.3-.9,3.4-2.7,3.2-3.2C27.1,460.3,23.2,453.6,19.4,446.8Zm28.9-5.7h-.1c1.6,3.8,3,7.6,4.8,11.2a3.6,3.6,0,0,0,3,1.4c.7,0,2-1.9,1.8-2.3-3.6-6.4-7.4-12.8-11.2-19.2l-.6.2C46.7,435.3,47.5,438.2,48.3,441.1ZM340.8,264.8h.2c.3,1.6,1,3.3.8,4.9-.5,5-1.3,9.9-2.2,16.1,6.7-6.5,8.5-25.4,4.4-32.3ZM332.5,172h16.3c1-.1,2-.9,3-1.3-.9-1-1.8-2.8-2.9-2.9a84.8,84.8,0,0,0-8.7.6h0a103.3,103.3,0,0,0-11.1-.2c-2.9.4-5.6,1.8-8.4,2.7,2.8.5,5.5,1.2,8.3,1.5a11.2,11.2,0,0,0,3.6-.3Zm-63.9,73h.1l5.7,2c.5-2,1.3-4,1.2-6s-1.3-5.6-2.3-5.7c-3.1-.4-6.4.5-9.6.9,1.1,2.6,2.2,5.1,3.5,7.6C267.4,244.3,268.1,244.6,268.6,245Zm26.1,97.3c2.3-1,6.8-2.1,6.7-2.9a192.7,192.7,0,0,0-2.9-20c-.2-.8-1.6-1.3-2.4-1.9s-1.3,1.6-1.3,2.4c.3,6,.8,12.1,1,18.1.1,1.5-.7,2.9-1.1,4.4l-2.8-1.7c-.2.8-.3,1.5-.5,2.3ZM232.6,123.6l-1.5-2-1.2,2h2.8c.3.7.6,1.8,1.1,1.9,8.1,1.6,16.6,2.4,24.4,4.9,5.6,1.7,10.5,5.8,15.7,8.8,1.2.7,2.3,1.7,3.5,2s2.2-1.6,2.1-1.8-1.6-3.2-2.9-3.7c-11.4-4.6-22.7-9.2-34.3-13.1C239.5,121.6,235.8,123.2,232.6,123.6Zm99.7,208c9.7-4.8,13.4-12.4,10.8-22.9l2.5,2.7a18.8,18.8,0,0,0,1.2-3c.1-.7-.4-1.4-.6-2.2l-3,2.6c-7-3.2-4.4,3.1-5.6,5.6h.1c-.5-1.2-.6-3-1.5-3.5a5.9,5.9,0,0,0-4.5-.6,3.6,3.6,0,0,0-1.8,2.9c.6,6.2,1.5,12.3,2.4,18.4-1.5-5.4-2.8-10.8-4.5-16.1-.4-1.4-2.3-2.2-3.5-3.3-.7,1.5-2.2,3.1-2,4.5.4,3.3,2,6.4,2.3,9.6C325,331.7,327.2,333.6,332.3,331.6ZM260,279.3c.3,1.1.7,2.3,1.1,3.4l-4-.8-4.5-1.1a17.9,17.9,0,0,1,.1,4c-.1.7-1.2,1.3-1.6,2s-2.3,3.7-2,4a78.8,78.8,0,0,0,7.3,5.1,8.5,8.5,0,0,1,2.2,2,29,29,0,0,1,1.9,3.4c1.4-.9,3.5-1.6,4.1-2.9a125.3,125.3,0,0,0,5.3-14c1.2-3.8-.6-5.7-4.5-5.4l-5.5.4v-.1Zm-11.3,42.5h.1c.7,1.8,1.3,3.7,2,5.5l-6.4-.7c3.4,4.2,5.3,4.3,8.6.4a4.1,4.1,0,0,1,3.5-.9c.9.4,2,2.6,1.7,3.1-3.2,5.1,1.6,3.8,3.6,4.8a43,43,0,0,1,4.5,2.9l-5,.3H260v1.8c4.2,0,11.1,1.6,12.1-.2a39.3,39.3,0,0,0,4.7-17.8c.1-1.5-7.2-3.2-11.1-4.7l-1-.3-5.6-.5c1.3,1,2.7,1.8,3.9,2.8a22.8,22.8,0,0,1,2.3,2.6ZM325,85.9h.1l5.6-4c-1.2,0-1.7-.2-2.1,0-20.5,8.5-41.4,8.9-62.7,3.6-2.7-.7-5.8,0-10.1.1,18,11.6,71.9,9.7,79-3.4Zm4.2,146.3-.9,2.7,1.6-.2a22.5,22.5,0,0,0-.8-2.4c1-.4,2.2-1.2,3-1s2.6,2.2,3.7,2.1c13.4-1.6,26.9-3.4,40.3-5.4,1-.2,1.8-2.2,2.8-3.4-1.7-.9-3.3-2.4-5-2.4s-5.1,1-7.8,1.3c-11.2,1.3-22.4,2.4-33.6,3.6C329.5,227.4,326.6,228.1,329.2,232.2Zm.3,102.5c-1.3,1-2.4,2.3-3.8,2.9-7.2,3.4-14.4,6.4-21.5,9.8-.8.3-.7,2.3-1,3.5,1.2-.1,2.6.2,3.4-.4,3.1-2.4,5-2.5,5.5,2,0,.5.6,1.3,1.1,1.3,8.7,1.1,3,7.2,3.9,11l-8.8-10.3,2.2-2.5-1.3-.7-.9,3.2c-.3,4.4-.8,8.8-1,13.2,0,.9.9,1.9,1.4,2.8a9.6,9.6,0,0,0,2.1-1.4c.7-.6,1.3-1.5,2-2.2.3.9.3,2.1.9,2.6s3,2.5,4.3,2.3,2-2.4,2.7-3.9-.7-2.1-.3-2.4c7.5-7.6,13.8-15.6,12.8-27.2-.1-1.5.6-3,.9-4.5l-4.7,1,.2.3ZM233.4,469.5v-.2c-3,4-6.6,2.6-9.6.4s-6.1-.6-8,1.8a7.2,7.2,0,0,0-1.2,5.5c.9,4.2-.3,5.8-4.6,5.3a63.5,63.5,0,0,0-7.8-.1c15,8.8,28.3,12.5,39.3-3.4h-.1c7.9-5.7,7.8-6.6-.3-10.9-5.4-2.8-10.4-6.2-15.6-9.3l-.7.6ZM384.7,248.6l.9,1.5c-10.7,2.3-21.4,4.5-32,7.1-1.3.3-2.7,2.4-3,3.9-.9,5.5-1.6,11.1-2,16.6-.1,1.6,1,3.4,1.5,5,2.2-1.2,5.8-2,6.4-3.8,2.1-6.4,3.1-13.1,4.6-19.7,1.9,3.3,2.2,6.5,2.3,9.7s-.2,6.9-.3,10.3c3.7-.8,7.5-1.3,11-2.7,16.1-6.5,17.1-6.2,17.6-21.1.2-5.2-1.5-6.6-6.2-5.3l-.9-1.4a41,41,0,0,0,4.1-2.6c1.7-1.4,3.9-2.8,4.5-4.6,2.7-8.3-2.8-13.7-12.4-12.1-12.5,2.2-24.8,4.6-37.2,6.9l-1.3.4.4.5.8-1.1,7.2,1.5,4.1.8-3.5,3.4c-1,1-2.1,1.8-3.1,2.7a40.8,40.8,0,0,0,5,2.9,35.2,35.2,0,0,0,4.9,1.6c1.9.6,4,1.6,5.9,1.5C370.9,250.1,377.8,249.3,384.7,248.6Zm-9.1,64.5h0c2.8,2.4,6.9,4.2,8.1,7.3,2.7,6.6,6.1,10.8,13.8,10,.4-.1,1.4,1.4,1.3,1.7a5.5,5.5,0,0,1-2.1,1.9L385,338.8l.3,1.6,7.5,1.1-2.9,3.2c3.2,4.7,6.2,9.3,9.4,13.9a15.6,15.6,0,0,0,2.8,2.3c.4-1.3,1.5-3,1-3.9-1.4-2.8-3.5-5.2-5-7.9-.6-1.1-1.1-3-.5-3.7,2.8-3.8,5.7-8.4,10.5-1.9l2.8,3.8c1.8,2.7,3.2,5.6,5.3,8.1.6.7,2.7.2,4.1.3s.4-2.8-.1-3.8c-1.9-3.7-4-7.3-6.1-10.9l.3-1c-1.4-2.6-2.8-5.1-4.3-7.6l-1.4.8.9,3.7h.1c-3-2.2-6.1-4.4-8.9-6.9s-5-5-7.2-7.2l11.3,3.1c1.5.4,3.4.2,4.7,1,5.9,3.7,11.5,7.7,17.4,11.4.9.5,2.4,0,3.6,0-.3-1.2-.1-2.9-.9-3.5a41,41,0,0,0-7.3-5c-13.6-7.3-29-11.8-38.2-25.8-.6-1-2.8-1.6-4.2-1.4C372.2,303.3,374.1,308.4,375.6,313.1Zm-162.4-42c-4.5-1.1-8.9-2.3-13.4-3.3a4.5,4.5,0,0,0-2.8.7c-4.8,3.8-5.2,11.9-.9,16.4s7.1,7,10.7,10.6l1.4-3.8c1.4.6,2.9,1.8,3.3,1.4q10.6-8,21-16.5a3.4,3.4,0,0,0,.5-3,32.3,32.3,0,0,0-2-4.2c0-.3,1.7-1.6,1.7-1.5a34.9,34.9,0,0,1,3.2,3.5c.5-2.8.1-5.6-1.5-7-4.2-3.3-8.9-5.9-13.3-8.9-.6-.4-.7-1.6-1.9-4.3a126.6,126.6,0,0,0-13.1,2.8c-1,.4-1.5,2.8-2.2,4.3,8.9,2.9,2.8,5.7-.3,8.4a40,40,0,0,1,5.8,1.7,19.5,19.5,0,0,1,3.7,2.7Zm81.5-159,7.7.4v-1.4l-7.8,1,12.7-3.5c4-1,8-1.9,11.9-3.2.8-.3,1.2-2,1.8-3.1a31.6,31.6,0,0,0-3.2-.3l-8.8.3c3.4-.6,6.9-1.2,10.2-2,.8-.2,1.3-1.2,2-1.8-.8-.3-1.6-1-2.5-1l-7.3.3c3.9-.5,7.9-1.1,11.9-1.5.7-.1,1.6.9,2.4,1.3,1-2.1,1.9-4.1,2.8-6.2a17.7,17.7,0,0,0-4,.1c-20.5,6.4-41.2,5.7-62.1,2.3a133.1,133.1,0,0,0-14.1-2.1c-1.1,0-3.6,3.5-3.3,3.9,2.3,3.1,5,5.9,7.6,8.9v-.2L245,99.1a19,19,0,0,0-3.9-2.3c-.2-.1-.9.6-1.4,1a32.1,32.1,0,0,1,3,2.1,9.6,9.6,0,0,1,1.2,2l-1.4.8-10.9-2a30.5,30.5,0,0,0,2.1-4c.2-.7.1-2.2-.4-2.4-3.1-1.6-6.3-3-9.5-4.4,1.8,2.9,3.4,5.8,5.3,8.6.6.9,1.8,1.4,2.7,2.1l-6.3,1.7c4.5,1.3,8.8,1.2,11,3.3,8.7,8,18.8,6.3,28.9,5.8h0l23.9.2v.7l-6,1.8h0ZM114.6,425.3l-.3-5.3h-1.6c.5,1.6,1.1,3.2,1.7,4.8s.2.2.4.3c-4.7,6.1-9.4,12.1-13.8,18.3-.3.5.9,2.9,2,3.5,9.3,5.3,25.4,3.3,34.8-4.9l-4.5.9c-3.4.9-6.7,2.1-10.1,2.8-.9.2-2.1-.6-3.1-1.1s.1-1.5.4-1.5c5-1.7,10-4.5,15-4.6,8.1,0,16.1,2,24.2,2.6,5.4.4,10.8-.1,13.6-6.1l2.2-.6-1.7-1.2c-1.9-4.3-3.2-9-5.9-12.7s-6.8-4.3-11.3-1a142.9,142.9,0,0,1-18,10.8c-1.9.9-5-.2-7.4-.9-.7-.2-1-1.9-1.4-3s-1-3.1-1.5-4.6c-1.8,1-4.1,1.6-5.3,3.1s-.7,3.4-1.2,5.2a26.2,26.2,0,0,1-1.9,4.6l-2.7-5C116.4,428.3,115.5,426.8,114.6,425.3ZM229,45.7c1.8.8,4.9,2.4,5,2.2,1.9-3,5.4-7.4,4.5-9.1-3-5.1-1.2-8.6,2.3-11.3s7-8.7,12.9-3c.4.5,2.2.3,2.9-.1L288.7,2.7c-7.6-.3-14.1-1.2-20.5-.8C244.5,3.4,226.5,15.7,211,32.5c-4.5,4.9-2.9,9,.6,13.1a57.8,57.8,0,0,0,5,4.9l.2,2.3h.5l-.8-2.1-.7-5.1c1.8-.2,5-.9,5.2-.4,3,7.9,3.5-1.1,5.4-.8s2.2-1,3.3-1.5l-.6,3-.3.7ZM56.7,485c-1.8.9-3.7,2.8-5.3,2.5-5.1-.7-8.3,1.8-8.3,7.3,0,.5-.2,1.4-.4,1.4-8.7,2.4-8.6,10.3-10.6,16.8-.3,1,.3,2.2.6,3.3l3.1-1a11.9,11.9,0,0,1,3-.5c.7,2.5,1.1,5.1,1.9,7.6s2,3.6,2.2,3.5c4.8-2,2.2,1.2,2.4,2.9a48.3,48.3,0,0,0,1.8,8.4,80.9,80.9,0,0,0,8.3-2.8c1.1-.5,1.8-2,3-2.6,6.7-3.8,13.3-7.8,20.3-11,3.2-1.4,3.6-1.9,1.2-4.4-5.2-5.2-8.8-11.2-8-19,.2-1.7.8-4.3,0-5.2-6.1-6-.9-8.6,3.4-10.5s.4-4.8,1-7.1a38.6,38.6,0,0,0-4.9,1c-.9.3-1.8,1.7-2.4,1.5-7-1.6-9.7,3.1-12.4,8ZM168.4,182.7l-6.7-2.3c-.4,2.5-1.9,6.1-.9,7.1s5,1.4,7.1,1.9c-4.2,4.8-5.8,4.6-11.5-2.6,1.6,13.4,3.3,26.9,5,40.4l2.1-.2c-.2-5.4-.5-10.8-.7-16.3,2.8,3.3,5.8,6.8,5.6,10.2s2.7,2.8,4.1,4.1c.5-1.3,1.1-2.6,2.3-5.5,1.2,4.1,2,7,3,9.8a15.9,15.9,0,0,0,1.6,3.2c1.1-.8,2.7-1.4,3.1-2.5a11.9,11.9,0,0,0,.5-5.3c-.1-1.3-1.7-2.6-1.5-3.7s1.7-2.6,2.7-3.8l1.7,4.6c-.7-7.9-1.3-15.2-1.9-22.5h-.1a44.1,44.1,0,0,0,2.6-5.9c.4-1.2-.3-2.8,0-4.1,1.4-6.2,3-12.4,4.5-18.5l.9-3.7,2.5,2.1c-.4-4.7-2.1-8.5-3.7-12.4a14.5,14.5,0,0,1-.8-3.6l3.2.3h2.2c0-.7.3-1.7,0-2.3-1.2-2.2-5.2-2.9-2.9-7,.3-.6-4.9-6.1-7.4-5.9s-7.4,2.9-10.5,5.4-6.2,6.5-8.9,10a50.1,50.1,0,0,0-6,9.2c-1.1,2.5-1,5.4-1.7,8.1s-1.8,6.7-3.2,11.7c7.6-7.5,11.7-7.1,13.6-.1Zm47.4,24.4c-4.6,1.2-8.6,11-5.6,14.7,1.7,2.2,4.9,5.6,6.2,5.1,8-2.9,8.9-3,13.1,2.6l-4.4,4.9c1.2,1,2.4,2.1,3.7,3l17.4,11.8c.2-1.1.7-3.5,1.1-6s.3-8.6,2.3-11.9c4.8-7.8,11.4-14.5,15.9-22.5,6.2-11.1,3.9-20.1-5.2-29.1a25.8,25.8,0,0,1-4.3-6.6c-.5-1.1.5-2.8.8-4.2,1.2.5,2.8.6,3.6,1.5,2.9,3.5,5.6,7.2,8.5,11.1.3-.8.8-1.5.7-2-1.2-8-2.2-16-3.7-24-.3-1.8-1.9-3.3-3.2-4.9-5-6.2-12.5-7.4-19.6-9.5s-7.2-2.3-10,4.7a2.4,2.4,0,0,1-1.1.9c-6.2,1.8-1.6,4.3-.2,6.2s5.2,5.5,7,8.7c3,5.3.6,10-3.5,13.8s-12.2,5.8-18.1,2.6-6,.7-6.6,4.2c-.2,1.7.5,3.6.8,5.4h.1c-.2,3.8,4,7.2,7.5,7.4s8.3,1.6,12.4,2.6c.6.1,1.1,1,1.6,1.5s-1.7.9-2.5.8c-5.1-.2-10.3-.5-15.3-1.1-1-.1-1.8-1.9-2.6-3s-1.3-2.2-2-3.2a2.5,2.5,0,0,0-1.2.4,15.1,15.1,0,0,0,.7,3.7c1.7,3.6,3.7,7,5.6,10.5Zm26,165.4h0c-.5.7-.9,1.4-1.4,2l-6.9,8.4,9.3,5.3c.2.1.2.5.5,1-1.9.2-3.9.1-5.4.8s-5,2.6-4.9,3.7c.7,6.8,2.2,13.6,3.4,20.2l-4.9-.3c2.7,1.4,4,1.9,5.1,2.8a36.4,36.4,0,0,1,3.4,3.4l-4.8.8a15.1,15.1,0,0,1-3-.2h.1c-1-1.3-1.7-2.9-3-3.9s-3.2-1.7-4.9-2.5c.2,1.9-.4,4.4.6,5.6,5.5,6.1,11.1,12.1,17.1,17.7,2.7,2.7,6.4,4.4,9.6,6.5l2.3-3c.6,1.5,1,3,1.7,4.4s1.9,4.1,3.5,4.8,4.7.3,5.7-.9c5.7-6.6,11.3-13.5,16.4-20.6s11.5-17,16.9-25.7c1-1.5,1.5-4.4.7-5.8-2.9-5.4-7.5-10.1-9.4-15.7-3.9-11.3-10.8-20.1-19.3-28a3.4,3.4,0,0,0-2.5-1.1c-2.7.1-5.5.7-8.3.7s-6.1.5-7.1,5c-.6,2.5-3.8,4.6-6.2,6.4S239.5,367.8,241.8,372.5Zm-42.9-53.4-2.7-.8c-3.6,3.9-6.7,7.4-5.7,13.7s-1.3,11.5-8,12.5-7.9-4.2-9.2-9c-.8-2.7-1.9-5.3-2.9-8.2-4.8,6.2-4.8,6.2-.2,11.6a2.3,2.3,0,0,1,.7,1.7c-1.2,4.5-2.6,8.9-3.9,13.4a19.7,19.7,0,0,0-.4,3.4c1.3-.2,3.5-.1,3.9-.8,1.7-3.4,2.9-7.1,4.2-10.5l9.8,2.7a4.8,4.8,0,0,0-1.7,1.2c-1.5,2.2-2.8,4.5-4.1,6.8,0,.1,2.1,1.7,2.3,1.5,1.8-1.6,3.8-3.2,5-5.2s.1-3.5.3-5.3a5.8,5.8,0,0,1,1-2.1c.8.4,1.9.7,2.2,1.4s.3,2.8,1,3.8a44.2,44.2,0,0,0,3.9,4.7c.5-2,1.5-4.1,1.3-6s-2-6.5-1.6-9.5C195.2,333,197.3,326.1,198.9,319.1Zm88-71.7c-2.9-9.3-.8-13.1,7.6-15,.5-.1,1.3-.7,1.3-1.1a3.2,3.2,0,0,0-1-2c-4.5-2.9-12.3,1.2-12.9,6.7-1.1,10.8-2.4,21.6-3.5,32.5a19.7,19.7,0,0,0,.2,6.4c.2.7,1.7,1.3,2.7,1.6s1.2-.8,1.2-1.4c.4-3.6.6-7.3,1.1-10.9.1-.9,1.3-1.6,2-2.4a27.2,27.2,0,0,0,1.1,2.5l2.9,4.3c1.1-1.6,3.1-3,3.4-4.6.9-5.8,1.4-11.6,1.8-17.4.1-1.5-1-3.1-1.5-4.7a24.9,24.9,0,0,0-3.8,2.5A21.5,21.5,0,0,0,286.9,247.4Zm35.3-126.8c-2-1.4-3-2.7-3.9-2.6-12.5,1.5-24.9,3.2-37.4,4.8a5.3,5.3,0,0,0-2.1,1.1c-.1.1.3.8.4,1.3,2.9-1.3,4.5,5.6,8.1,1.3.1-.2,2.3,1.3,3.6,2s1.9,1.9,2.8,1.8c6.9-.9,13.8-1.6,20.6-3.2C316.8,126.5,318.7,123.6,322.2,120.6Zm16-16.9c-5.7-.1-12.2-4.3-9.8,5.2a3.8,3.8,0,0,1-1,3.2c-6.9,4.6-2.7,6.9,2,8.2s7.6,1.8,9.9.3,5.2-6.2,4.8-9.1S339.8,105.7,338.2,103.7ZM311.1,279.4c5.4.1,11.5,2.5,15.5-3.9.6-.9.3-3.6.2-3.7-7.8-1.1-15.5-2.2-23.4-2.9-.9-.1-2.5,1.7-2.8,2.8s.5,3.3,1.4,3.8A75.5,75.5,0,0,0,311.1,279.4Zm-68.7,56.4c-.2.7-.5,1.4-.7,2.2,10.9,3,21.8,6.1,32.9,8.9.7.2,2.7-1.7,3.1-3,2.3-7.3,4.1-14.7,6.3-22,1.1-3.9.1-5.5-4.2-6.3s-10.8-3.1-16.2-4.6l-12-3.4a19.4,19.4,0,0,0-.5,2c8.7,2.4,17.4,5,26.2,7.2,3.8,1,4.9,2.9,3.7,6.4-1.7,5.1-3.4,10-5,15.1s-3.6,5.8-7.8,4.6ZM367.2,191.3c2.3-.7,5.5-.7,6.4-2.1s1.1-5.4-.1-6.7c-5.7-6.3-12-12-18.1-17.8-.3-.4-1.1-.3-1.7-.4s-.3,1.9.1,2.6c3.2,6.9,6.5,13.7,9.9,20.5C364.4,188.7,365.8,189.8,367.2,191.3ZM182.3,318h2c.2-.8.2-1.5.4-2.3s.7-4.1,1-6.1a52.2,52.2,0,0,0,2.4,5.4,9,9,0,0,0,2.1,2.3c2.5-3.9,6.2-7.6,6.9-11.7.4-2.4-3.9-7.1-6.9-7.9s-7,3.3-7.8,6C181.1,308.1,182.2,313.2,182.3,318ZM303,5.1C291.4.4,245.4,31.2,238.7,47.7,257.9,30.4,276.6,12.4,303,5.1Zm1.1,233,7.5,6.4-4.5,1c.4.8.7,2.2,1.2,2.3,5,.9,10.1,2.2,15.1,2,1.1,0,2.2-5.4,2.9-8.4.1-.8-1.4-2.9-2.2-2.9C317.8,238.2,311.5,238.2,304.1,238.1ZM206.8,495.8c-6.5-6.4-8.3-11.8-6.1-18.8.4-1.2-.5-2.8-.9-4.1s-1.8,0-2.1.4c-2.1,3.2-5.7,6.5-5.6,9.7s2.3,9.5,5.1,13.1C198.4,497.6,203.5,496,206.8,495.8ZM228.5,62.5c-2.3,2-6.2,3.7-7.7,6.7-2.5,5.1.8,10.8,6.8,11.4,2.7.2,7.3-2.7,8.4-5.4C238.1,70.1,234.8,66.2,228.5,62.5Zm-3.2,66.8c19.7,1,38.2,4.3,50.9,21.6.8,1.1,2.4,1.6,3.6,2.3-.4-1.5-.5-3.2-1.2-4.4C269.7,135.2,241.4,124.6,225.3,129.3Zm63.2,181.8c7.2.9,12.8,1.7,18.3,2.2,1,.1,2.1-1.3,3.1-2a15.5,15.5,0,0,0-2.4-2.7l-14.8-10.3-3.6-2.4c.6,1.7.8,4,2,5.1C295,304.5,294.9,307.3,288.5,311.1Zm-24.7-36.9c2.7-.8,7.6-1.2,7.8-2.3.6-4.3,1.5-10.2-6.1-9.3-2.8.4-7,1.4-7.7,3.2C256.2,270,258.3,273.1,263.8,274.2Zm58.7,59.3c-1.6-6.6-2.9-12.5-4.7-18.4-.1-.5-2.9-.5-4.4-.2s-.9,2-.8,3c.9,5.1,2,10.3,3.2,15.3a2.6,2.6,0,0,0,2.1,1.8C319.3,334.9,320.7,334.1,322.5,333.5Zm-16.1-17.3-1.9-.3c-.6,1.2-1.8,2.4-1.7,3.5.7,5.9,1.7,11.7,2.6,17.6l.3,3.6c1.5-.6,3.4-.8,4.5-1.8a5.5,5.5,0,0,0,1.2-4.3C309.9,328.4,308.1,322.3,306.4,316.2ZM239.5,83.1l2.7.5c1.1-5.3,3.6-10.8,3-16-.8-6.8-6.4-10.5-13.3-11.4s-9.4.8-11.5,6c6.4-3.9,12.6-4.8,17.9.7S243.8,75.9,239.5,83.1ZM106.7,419.3c-2.7,4.1-5.2,8.4-8.3,12.4s-5.2,5.1-7.7,7.7a13.8,13.8,0,0,0-1.7,2.9c1.1.4,2.2,1.2,3.1,1s1.3-1.4,2-2.2,2.6-3.8,4.3-4.4C107,433.9,110,427.2,106.7,419.3ZM335.5,297c-1-2.1-1.2-3.4-1.8-3.5s-3.8-1.1-4.5-.3c-4.1,4-7.8,8.5-11.5,12.8a2.4,2.4,0,0,0-.4,2.3,2.3,2.3,0,0,0,2,.7Q327.4,303.2,335.5,297ZM169.3,342.6c-2.5-2.4-4.5-5.2-5.2-4.9a30.7,30.7,0,0,0-9.5,5.8c-.6.5,1.8,4.1,2.8,6.3ZM26,436.9l-1.3.6c1.8,5.7,3.6,11.5,5.6,17.2,1.1,3.1,2.6,6,3.6,9.2.3.9-.6,2.2-.9,3.3s2.5.1,3.1-.5,2.3-2.9,1.9-3.7C34.2,454.2,30,445.6,26,436.9ZM219,174.3c3.8-.3,7.5.2,10.3-1.1s3.4-4.4,4.3-7c.3-1.1-1.3-3.2-2.5-4.2s-2.9.8-3.8,1.8C224.7,166.7,222.4,169.9,219,174.3ZM327,291.7c-.6-1.2-.9-2.3-1.3-2.4s-2.6-.3-3.3.3c-4.4,3.8-8.6,7.7-12.7,11.7a3.4,3.4,0,0,0-.3,3c.2.6,2,1.2,2.3.9C316.9,300.8,321.9,296.3,327,291.7ZM285.9,188.8l9.2-2.9c-1.1-2.7-2.1-5.4-3.1-8-3,1.1-6.2,2-8.8,3.7C282.8,181.9,284.7,185.8,285.9,188.8Zm50.6-51.2-2.3,1.6,12.9,22.7c.5.8,1.7,1.2,2.6,1.8s1.2-1.9,1-2.4Zm-125.3,159c-2.5,2.7-2.7,6.2.5,10.3s3.8,6.4,5.9,9.5,3,4.1,4.5,6.1l1.5-1.2c-2-4.2-4.1-8.5-6.2-12.7ZM377.1,285h-.7v5.7c.6-.1,1.2.1,1.7-.2a57,57,0,0,0,6-3.2c1-.6,2.7-2,2.5-2.4-1.1-2.9-2.6-5.6-3.9-8.4-1.7,2.1-3.4,4.1-4.9,6.2A5.6,5.6,0,0,0,377.1,285Zm47.4,72.3c-3.6,7.2-.5,16.8,6.8,20.2C429,370.8,426.7,364,424.5,357.3ZM239.1,31.3c.4,2.2.5,3.5.7,4.7s3.1-.1,4.1-.9a51.5,51.5,0,0,0,6.8-6.4c.7-.8.7-2.3,1-3.5s-2.7-1.1-3.4-.7C245,26.6,242.1,29,239.1,31.3ZM275,225.7c1.1-.3,3.5-.7,3.5-.9a81.5,81.5,0,0,0-1.3-12c-.1-.7-2.5-1-3.8-1.6a3.9,3.9,0,0,0-.5,1.4c-.2,3.6-.5,7.3-.5,10.9C272.4,224.1,273.8,224.7,275,225.7ZM13.6,451.3l-1.4.4c1.9,6.3,3.6,12.7,5.7,18.9.3.8,2.7.8,4.1,1.1s.7-1.7.4-2.3C19.5,463.3,16.6,457.3,13.6,451.3ZM268.1,305.8c4.6-.8,9.6,5.1,12.6-2.4.2-.5-.1-1.5-.4-1.6C275.9,300.7,271.1,298.4,268.1,305.8ZM136.6,370.1c.6,1.9,1,3,1.3,4.1,2.7-2.4,5.6-4.7,8-7.3.3-.3-1.4-2.5-2.2-3.8Zm33.6-3.1-3.2-5.9c-1.8,2-4.1,3.7-5.3,6s.8,3.2,1.3,4.8Zm-3.7,16c-.7-2.8-1.3-5-1.9-7.2-1.7.7-4.6,1.3-4.7,2.2-.3,2.9.5,5.8.8,8.8Zm186.8-93.9c-.4-1.5-.7-2.5-.9-3.5l-8.7,4.6,3.7,5.4C349.3,293.4,351.3,291.3,353.3,289.1Zm-119.1,163-.9,1.3c5.7,3.4,11.3,6.9,17.1,10.2.5.3,1.8-.6,2.7-.9s-.7-1.4-1.3-1.7Zm-227,2.4-.9.6c1.1,4.5,1.9,9.1,3.4,13.5.4,1.2,2.7,1.8,4.1,2.6s1-1.5.8-1.9C12.2,464.3,9.7,459.4,7.2,454.5ZM73,411.7l-1.1.4c3.1,6.5,6.1,13.1,9.3,19.6.4.8,1.6,1.3,2.5,1.9,0-1,.4-2.2,0-3C80.2,424.2,76.6,418,73,411.7ZM306.2,114.3l.4,1.5c6-1.4,12.1-2.7,18.1-4.3.7-.2,1-1.5,1.5-2.3a5.8,5.8,0,0,0-2.1-.5ZM183.1,379.7c-.8-2.6-1.6-4.7-2.3-6.9-1.2,1.1-3.4,2.1-3.5,3.2s.9,4.8,1.5,7.2ZM401,319.5l.3-.8c-3.2-5.1-6.3-10.1-9.6-15-.7-1-2.4-1.3-3.6-1.9s-.7,1.6-.4,1.9C392.1,309,396.5,314.3,401,319.5Zm-97.9-20.7.4.5L319,285.9c.4-.4.3-1.3.5-2s-2.4-.6-2.8-.2C312.1,288.7,307.6,293.8,303.1,298.8ZM86.4,429.3l2.2-1c-2.6-5.6-5.2-11.1-7.9-16.6l-1.7.7C81.5,418,83.9,423.6,86.4,429.3Zm239.8-45.9c5-.2,9.1-2.6,9.3-9.2.1-.8-.5-1.6-.7-2.4a5.5,5.5,0,0,0-1.9,1.4C330.6,376.6,328.3,380.1,326.2,383.4Zm-257,44-1.3.5c1.4,4,2.6,8.1,4.1,12,.3.6,1.9.8,2.9,1.2s.5-1.9.2-2.6C73.2,434.7,71.2,431.1,69.2,427.4ZM302.4,169.5c-1.6-2.5-2.4-4.9-3.7-5.2s-4.3,1.4-4.4,2.4a7.2,7.2,0,0,0,2.7,4.8C297.6,172,299.8,170.5,302.4,169.5ZM414.9,361.7l-2.3.2c.5,4.5,1.1,9.1,1.7,13.6.1.4.8.8,1.2,1.1s1.1-1.3,1-1.9C416.1,370.4,415.5,366.1,414.9,361.7ZM308.6,234.6l7.5-1.7c-1.6-.8-3.1-2.2-4.7-2.4s-4,.7-6,1.1Zm49.5,81.1c-1.6-1.9-2.6-3.3-2.9-3.2-2.3.9-4.5,2.1-6.7,3.2.4.7,1,2.1,1.3,2C352.2,317.3,354.6,316.6,358.1,315.7ZM74.1,423.9l-2.2,1.2,6.3,12.7,1.9-1Zm337.4-65.8,1.5-1.4L402.7,346l-1.5,1.5C404.7,351,408.1,354.5,411.5,358.1Zm-226,10.7-3.3-7.1c-1.3,1.2-2.9,2.1-3.7,3.6s.2,3.3.7,3.4A26.3,26.3,0,0,0,185.5,368.8ZM251,320.5l5-.9c-1.7-1.3-3.2-3-5-3.8s-2.8.4-4.2.7ZM372.8,162.2l3.1-1.4c-.6-1.1-1.1-3-1.9-3.1a27.4,27.4,0,0,0-6.4,0ZM210.1,54h.3l-7.7-15-1.8,1Zm-.9,150.4-1.6-.3a67.6,67.6,0,0,0-3.6,7.1c-.3.9.4,2.1.6,3.2s1.7-.1,1.8-.4C207.4,210.8,208.3,207.6,209.2,204.4Zm-4.8-13.3-1-.3a45,45,0,0,0-1.5,8c-.1.6,2,1.3,3.1,1.9a6.1,6.1,0,0,0,.8-2.5C205.5,195.8,204.9,193.5,204.4,191.1Zm-7.3,166c-1.7,1.6-3.3,2.4-3.4,3.4s.9,2.6,1.4,3.9c1.3-.9,3-1.5,3.6-2.7S197.9,359.2,197.1,357.1Zm185.2-26.6a15.4,15.4,0,0,0-.8,1.9l8.5,2.3.4-1.5Zm-30.1-11.4-5.8,2.8c.4.7,1,2,1.2,1.9a49.2,49.2,0,0,0,6.5-2.1Zm-86.5-67.3c-.4,1.6-1.1,2.7-1,3.7s1.1,2.4,1.6,3.6l3.4-2.8a7.3,7.3,0,0,1-2.3-1.3A15.4,15.4,0,0,1,265.7,251.8Zm89.7,55.9c1.5-1.6,3.1-3.3,4.5-5,.1-.1-1-1.6-1.2-1.5-2.1.7-4.1,1.7-6.2,2.6Zm-4.7,4.8,7.6-4c-.5-.5-1.2-1.6-1.4-1.5a40.2,40.2,0,0,0-6,2.6C350.5,309.8,350.8,311.1,350.7,312.5ZM294.3,197.4v-1.7l-9.7,1a13.2,13.2,0,0,0-.2,1.6l8.6-.3C293.5,198,293.9,197.6,294.3,197.4ZM178.3,302l1,.7c1.5-2.4,2.9-4.9,4.3-7.4l-1.3-.8Zm117.1-96.2-.2-2-9.9,1.3.3,1.9ZM331.9,150c1.2-1.3,2.7-2,2.8-2.9s-1.1-2.9-1.9-2.9-2.4,1-3.7,1.6Zm-29.1-34.2-.3-1.5-14.2,1.6V117ZM291.3,290.7l.8.9,7.9-7.4-1.2-1.3Zm3.4-88.8-.2-2L284.3,201l.2,1.7ZM304,189c-2.1,2.1-3.2,2.9-3.8,4.1s.5,1.8.8,2.7,2.8-.5,3.2-1.2S304.1,192,304,189ZM214.2,70c-.7-1.6-1.2-2.8-1.8-4-.8.7-2.2,1.3-2.2,2.1s.7,2.4,1.2,3.7Zm57.2,160.6v-.9l-8.7-2.4-.2.9Zm-39.1,13.3-1.2,1,7.8,9,1-.8ZM211.9,459.4l.7.8c1.7,0,3.5.4,5-.1s.7-2.1,1.1-3.2Zm9.6-360.2.6-.7a29.2,29.2,0,0,0-4.1-3.7c-1-.6-2.4-.5-3.7-.6s-.6.7-.9,1a18,18,0,0,1,3.3,1C218.3,97.1,219.9,98.2,221.5,99.2Zm56-68.4c-2.3,1.4-4.2,2.5-6.1,3.8A9,9,0,0,0,272,36c2-1.1,3.9-2.1,5.8-3.3C278,32.6,277.7,31.7,277.5,30.8ZM183.6,448.3l-1.9-.5-1.2,5.9c.5,0,1.5.1,1.6-.1C182.7,451.8,183.2,450,183.6,448.3ZM387.2,293.1a7.7,7.7,0,0,0-.2-1.5l-8.5,1.3a10,10,0,0,0,.2,1.6ZM284.3,144.8c-1.1-1.6-1.5-3-2.3-3.2s-1.9.7-2.8,1.2.7,1.8,1.4,2.1S282.5,144.9,284.3,144.8ZM91.1,425.6l1.6-.8-3.6-7.1-1.5.7Zm310-53.3h1.3c.3-2.7.5-5.5.8-8.2h-1.4C401.6,366.8,401.4,369.6,401.1,372.3Zm-106.2-154-.2-1.9-8.9,1,.2,1.8Zm-69,32.8.8-1.4-7.6-4.3-.7,1.4ZM348.7,140.4c-3.3,2.5-4.8,3.4-4.7,3.6a5.5,5.5,0,0,0,2.1,2.8c.5.3,2.3-.7,2.6-1.4S348.7,142.8,348.7,140.4Zm-23.3-4.3c-1.3-1.7-1.8-2.8-2.1-2.7a10.7,10.7,0,0,0-3.2,1.6c-.1.1.7,2.2,1.1,2.2A23.9,23.9,0,0,0,325.4,136.1ZM286.2,328l-1.3-.2L284,334l1.9.3ZM209.1,60.8c-2.1-1.7-3.1-2.8-4.3-3.3s-1.5,1.2-2.2,1.9l3.3,1.5C206.4,61.1,207.1,60.9,209.1,60.8ZM253,116.7v1.8l6.5-.6c-.1-.5-.1-1.1-.2-1.7ZM194.9,263.8V265l6.6-.2a11.1,11.1,0,0,0-.2-1.9Zm45.4,185.5,1.4,1.4,3.4-4.3c.1-.1-.8-.9-.9-.9Zm7.1-333.6-3.5,1c.3.6.6,1.8.9,1.8a10.9,10.9,0,0,0,3.1-.8A13.2,13.2,0,0,0,247.4,115.7ZM230.1,409.8c-1-1.1-1.5-2.2-2.2-2.4s-1.7.7-2.1,1.4.7,1.7,1.3,1.8S228.8,410.2,230.1,409.8ZM363.6,156.4c-.8-1.2-1.2-2.2-1.9-2.6s-1.5.5-2.2.9a5,5,0,0,0,1.5,2C361.4,157,362.3,156.6,363.6,156.4ZM284.3,22.6l.8,1.6,5.4-3.5-.5-.9ZM267.7,45.4l1,1.7,5.9-3.1-1.2-1.9ZM76.9,452l.6-1.1-6.1-3.4-.7,1.2ZM369.2,286.4l-1.4-.6c-.7,2.2-1.5,4.3-2.2,6.5l.8.2C367.3,290.5,368.2,288.4,369.2,286.4ZM225,410.3c-1.6-1.2-2.3-2.1-3.1-2.3s-1.5.7-1.8,1.3.2,1.4.4,2.2Zm55.5-380,1.1,1.5L285,29c.2-.1-.2-.8-.4-1.2ZM241.4,443.4l-1.4-1.3-3.5,4.5.9.9ZM326,188.6a41.9,41.9,0,0,0-3.2,3.6c-.1.2.7,1,1.2,1.6.9-1,1.9-2,2.8-3.1S326.4,189.7,326,188.6ZM57.8,435.3l.8-.4-3.4-6.5-.8.5C55.5,431,56.7,433.1,57.8,435.3Zm240.1-77.6-.6-.9-4.1,2c.4.5,1.1,1.5,1.2,1.4A28,28,0,0,0,297.9,357.7ZM279.8,163l.2,1.2,6.1-1-.3-1.6ZM388.3,296.2l-.3-1.3-7,1.1.2,1.2Zm29.5,69.5,1.6-.6-2.3-5.7-1.2.5Zm-116.3-1.6,1.4,1,2.4-3.8-1.1-.7ZM270.4,40.5l.5,1,4.1-2.1-.4-.8ZM85.8,414.2l1.3-.5c-.4-1.4-.9-2.8-1.4-4.1l-1.1.4ZM330.7,191.9l-1.1-1c-1,1-2,2-2.9,3.1l1.1,1.1C328.8,194.1,329.7,193,330.7,191.9ZM220,161.9l.6,1.2,4.4-1.7-.5-1.4Zm70.7,164.2h-1c0,2.4.1,4.8.1,7.2h1.1C290.8,330.9,290.8,328.5,290.7,326.1ZM244.1,452.2l1.5,1.1,2.9-4.5-1.3-.9ZM49.6,458c1.1-1.4,1.8-1.9,1.8-2.6s-.7-1.2-1.2-1.8a6,6,0,0,0-.9,1.5A12.6,12.6,0,0,0,49.6,458Zm176-334.5.8.6,1.9-2.3-1-.6C226.7,121.9,226.2,122.7,225.6,123.5Zm94.1,67.1,1.2,1.2,2.7-3-1-1ZM168.8,469.5v-1.1l-4.7.8a5,5,0,0,0,.2,1.2ZM292.4,66.3l-.7,1,3.7,2.5.8-1.2Zm40.7,84.4.3,1.4,3.2-.9c-.1-.4-.2-1.2-.3-1.1A30.3,30.3,0,0,0,333.1,150.7ZM251.5,452l-1.2-1.1L248,454l1.1.8Zm-88.1,13.1.3,1.4,4.5-1.3-.3-1ZM316.8,188.6l1.3.8,1.9-2.5-1-.7Zm-19.3,162-.3,1.1,3.2.9.3-1.3ZM267.4,118v-1.2h-4.4v.8ZM52.7,424.5l.8-.3-1.2-3-.8.3ZM34,442.5a20.3,20.3,0,0,0-1.8-1.5c-.1-.1-.9.5-.9.5l1.2,2.1ZM185.2,335.2l-.9-.3L183,338l.9.4C184.3,337.3,184.8,336.3,185.2,335.2ZM276,351v-1l-3.1.2v1Zm58.4,11c-.7-.8-1-1.6-1.3-1.6a1.9,1.9,0,0,0-1.6.6c-.2.3.2,1.5.4,1.5A7.6,7.6,0,0,0,334.4,362ZM275.3,62l.6,1.2c.5,0,1.2.3,1.4.1a7.5,7.5,0,0,0,1-2ZM178.2,423.2l.9-.2a3.2,3.2,0,0,0-.1-1.4c-.2-.4-.8-.6-1.2-.9A21.7,21.7,0,0,1,178.2,423.2Zm58.9,17.5c-1.8.4-2.5.3-2.6.6a7.2,7.2,0,0,0-.5,2.1Zm124.7-131-1-.5-1.1,4.1.8.2ZM27,515.9c-1-.7-1.5-1.3-1.8-1.3a7.2,7.2,0,0,0-1.9,1.1c.4.4.8,1.2,1.2,1.2A9.6,9.6,0,0,0,27,515.9ZM277,194.1c.6-.5,1.3-.9,1.3-1.1a6,6,0,0,0-.9-1.5c-.3.2-1.1.5-1,.7A6.7,6.7,0,0,0,277,194.1Zm.1,4.9-.9-.9c-.2.2-.6.4-.6.6a2.8,2.8,0,0,0,.4,1.2Zm.3,31.6c-.5-.5-.8-1.1-1-1.1a5.5,5.5,0,0,0-1.5.8c.2.3.5,1,.7,1A7.1,7.1,0,0,0,277.4,230.6Zm-35.6,96.1-1,.3c.4,1,.9,2,1.4,3l.7-.3Zm5.1,34.7a14,14,0,0,0,2.2-1.4c.1,0-.4-.7-.5-1.1l-1.9,1.1C246.6,360.2,246.8,360.7,246.9,361.4ZM95.1,411.1H94c.2,1.1.4,2.2.5,3.3h1ZM31,504.3c-.5-.6-.7-1.2-1-1.2a5.4,5.4,0,0,0-1.8,0c.2.4.3,1.1.6,1.2A8,8,0,0,0,31,504.3ZM230.2,141.6l1.3-.7c-.2-.3-.3-.9-.6-1a5.6,5.6,0,0,0-1.2.4ZM197.7,312.7c-.3.3-.7.5-.7.7l.3,1.6a3.5,3.5,0,0,0,.5-.8C197.8,313.8,197.7,313.3,197.7,312.7ZM280.7,37l1.9-1c.1-.1-.2-.7-.4-1.1a5.3,5.3,0,0,0-1.7.8C280.4,35.7,280.6,36.3,280.7,37ZM94.3,416.8l-1.4.7c0,.5-.2,1.1.1,1.3a4.1,4.1,0,0,0,1.5.7ZM285.9,276.7l1.9-.8c-.3-.4-.7-1.1-1-1.1s-1,.5-1.6.8ZM332,194.9c.6-.5,1.1-.7,1.3-1.1s-.2-.6-.3-1-.9.5-1.1.8S331.9,194.3,332,194.9ZM302.3,71.8l-.5-1.2c-.4.2-.9.3-1.1.6s.1.8.2,1.2ZM110.8,466.9l-.4-.8c-.4.1-1.1,0-1.3.3s-.3.9-.4,1.4Zm-24.7,16c.6-.6,1.2-.9,1.2-1.2a1.5,1.5,0,0,0-.5-1.2,1.8,1.8,0,0,0-1.1.3A12.3,12.3,0,0,0,86.1,482.9Zm92.4-173.6-1.4-1.8c-.2.4-.8.8-.7,1a9.3,9.3,0,0,0,1.1,1.9Zm118.9,76.5c.6-.4,1.2-.5,1.3-.8s0-.9,0-1.3-.9.3-1.1.6S297.5,385.1,297.4,385.8ZM35.3,494.9c.9-.6,1.5-.8,1.8-1.2s-.2-1.1-.4-1.1a2.2,2.2,0,0,0-1.6.3C34.8,493.1,35.1,493.9,35.3,494.9ZM314.1,378.3a5,5,0,0,0-.7-1.3c0-.1-.7.1-.8.3a5.7,5.7,0,0,0,0,1.3Zm-86.8,1.5v-.9c-.3.3-.8.6-1,1s.2.7.2,1.1Zm77.1-9.2c0-.2,0-.7-.1-.7h-.9l.2,1Zm2.6-86.8c1,.7,1.3,1.2,1.6,1.2s.7-.6,1-.9-.5-.6-.9-.6S307.9,283.6,307,283.8ZM88,462.8c-.7-.6-1-1-1.3-1.1s-.6.5-.9.7.4.5.7.5A4.3,4.3,0,0,0,88,462.8ZM316.6,185.3c-.4-.5-.6-1-.9-1a1.5,1.5,0,0,0-1.1.7c-.1.1.4.9.6.9A3.9,3.9,0,0,0,316.6,185.3ZM147.9,456.9l-1.4-.7c-.2,0-.5.3-.8.4s.4.9.7.9S147.1,457.2,147.9,456.9ZM27,509.8l-1.5,1c.2.3.4,1,.6,1l1.5-.6A11.3,11.3,0,0,1,27,509.8Zm141.7-36.2v-.8l-1.4.3.2.9ZM64.3,443.9l-1.1.8a14,14,0,0,0,1,1.6l.9-.4A13.8,13.8,0,0,0,64.3,443.9Zm6.4-24.6c-.2.3-.6.5-.6.6a8.3,8.3,0,0,0,.8,1.2c.2-.2.7-.5.7-.6A9.4,9.4,0,0,0,70.7,419.3Zm25.2,8.8,1-.3-.5-1.2c-.1-.1-.8.2-.8.2A3.5,3.5,0,0,0,95.9,428.1Zm231.2-37.9-1.2-1.8c-.2.2-.6.4-.6.6a1.6,1.6,0,0,0,.4,1.2C325.9,390.4,326.5,390.2,327.1,390.2Zm2.9-23.6,1.1-.9-1-1.1c-.3.3-.8.6-.9.9S329.7,366.1,330,366.6ZM94.7,430.8l-.9-.9c-.2,0-.5.4-.8.6l1,.8C94.1,431.4,94.4,431,94.7,430.8Zm3.5-8.4a4.2,4.2,0,0,0-.7,1.3c0,.2.5.4.8.7s.3-.9.4-1.4S98.4,422.7,98.2,422.4Zm152.2-67.6-.2-1a2.2,2.2,0,0,0-1.1.5c-.1,0,.1.7.2.7Zm17.4-318a6.7,6.7,0,0,0-.6,1.2s.7.5.7.4a6.1,6.1,0,0,0,.7-1C268.7,37.3,268.2,37,267.8,36.8Zm35.1,168.6a3.5,3.5,0,0,0-.8,1.2c-.1.1.4.6.5.6a6,6,0,0,0,1.1-.6ZM186.8,499c-.2-.2-.3-.6-.5-.6s-.6.1-.9.2l.6.9Zm142-129.9c-.6-.3-.9-.7-1.2-.7a1.2,1.2,0,0,0-.8.5,3.9,3.9,0,0,0,.6,1.1Zm-4.6,3.6a7.6,7.6,0,0,0-.8,1.1c.2.1.6.5.7.4l.9-1Zm5-293.9-.5-.8-1.3.6c.2.2.3.6.5.6A3.8,3.8,0,0,0,329.2,78.8ZM255.9,457c-.2-.2-.4-.5-.6-.5s-.4.3-.6.4l.6.8ZM224.5,96.8a1.8,1.8,0,0,0-.7-.5c-.1-.1-.3.3-.5.5s.5.5.8.6ZM153,461.9c-.2-.2-.4-.5-.6-.5s-.5.2-.8.4l.8.8ZM82.6,441.6v-1H81.4c-.1,0-.1.8,0,.8ZM234.2,333.4a6.1,6.1,0,0,0,.5-1.2l-.7-.5-.7,1.1ZM263.4,45.8l-.6.4c.1.2.2.4.3.4l.6-.5Zm69.9,22.8-.5-.3v.3Zm-41.5-52v-.4h-.7c-.1.1-.1.4-.1.4Zm14.5,191.7-.8-.5-.3.3.3.7ZM244,313.5c.3-.3.6-.5.6-.8s-.2-.4-.4-.6-.5.4-.5.6S243.9,313.2,244,313.5ZM230.3,439.2l-.8.6s.2.3.3.3h.8ZM220.7,88l-.5-.5-.5.5.3.3ZM180.6,341.8l.9-.4c-.2-.3-.3-.7-.5-.7s-.5.2-.8.3Zm47.9,26.6.5-.6-.5-.4-.3.3C228.2,367.9,228.4,368.1,228.5,368.4ZM28.7,507.6c.1,0,.4,0,.4-.1a.7.7,0,0,0,.1-.5l-.7.2ZM227.1,384.9a1.7,1.7,0,0,0-.6-.6c0-.1-.3.1-.3.2a1.9,1.9,0,0,0,.2.7ZM33.8,497.1l-.9.3c.1.1.2.3.3.3l.8-.2Zm48.6,3.7-.6.4s.2.3.3.3l.6-.4Zm185-458c-.3.1-.6,0-.8.2s0,.5.1.7.6.1.8-.1S267.5,43.1,267.4,42.8ZM41.2,487a1.9,1.9,0,0,0-.1-.8h-.4l-.3.7Zm34.6-33-.6-.5c-.1-.1-.4.1-.4.1a1.9,1.9,0,0,1,.2.7Zm-3.7-9.1a3,3,0,0,0-.4-.8h-.4c.2.3.2.6.4.8Zm193.4-396c-.1-.1-.3-.5-.5-.5s-.5.3-.7.4l.7.8ZM78,443.9a.5.5,0,0,0-.2-.4h-.4l.3.6ZM319.2,172.6a4.6,4.6,0,0,0-.7-.7l-.3.3c0,.2.2.5.2.7Zm-16.1-91-.7.5c.2.2.4.5.6.5s.5-.3.8-.5ZM171.5,481.7c-.2.2-.5.5-.4.7s.3.4.6.6.5-.5.4-.7S171.7,481.9,171.5,481.7Zm-57.7-13.3-.2-.4-.6.3c-.1,0,0,.3.1.4Zm209-78.1a3,3,0,0,0-.4-.8c-.2.2-.6.4-.6.5s.3.7.4,1ZM82.5,462.1l-.8.3c.1.3.2.7.4.7a.7.7,0,0,0,.7-.3A2.1,2.1,0,0,0,82.5,462.1ZM92,433.8a5.9,5.9,0,0,1-.4-.8c-.1-.1-.4,0-.4,0a2.2,2.2,0,0,0-.1.8Zm118.6,31.1-.4.2.5.4c.1-.1.2-.2.2-.3ZM12.2,448.4h-.4c0,.2-.1.5-.1.7h.4C12.1,448.8,12.2,448.6,12.2,448.4ZM329,374.3v-.9l-.8.3c-.1.3.1.7.1,1ZM182.4,323.5l-.7.2c.1.2.1.6.3.7s.4,0,.7-.1ZM322.6,77.1a.6.6,0,0,0-.1-.4c-.1-.1-.3,0-.4,0l.2.7ZM278.8,205.9l.6.6.4-.2-.3-.8ZM235,357.5l.5-.5a.8.8,0,0,0-.2-.4l-.5.6ZM197.4,294l.5.6.4-.3c0-.2-.1-.5-.1-.7Zm15.1,18.9h-.4v.6h.3C212.6,313.2,212.5,313,212.5,312.9ZM96.8,458.9l-.3.2h.4Zm190-293.5h-.3v.2ZM36.2,430.6l-.2-.4-.4.5.3.2ZM354,151.8l.3-.2h-.4ZM69.7,451v-.4l-.3.4Zm6.4-43.8.2-.3H76Zm289-249.6c0-.1-.1-.3-.2-.3h-.3l.3.6ZM89.6,409.7l-.2-.4-.4.5a.5.5,0,0,0,.4.2C89.5,410,89.5,409.8,89.6,409.7ZM388.4,354h.4a.7.7,0,0,0-.1-.5h-.4ZM214.7,399.4l.3.2v-.2Zm-12.3,71.9v.3l.2-.2Zm8-1.5H210l.4.3ZM336.5,288.4h.4a.6.6,0,0,0-.1-.4h-.3ZM34,520.8c.2,0,.4-.1.4-.2l-.2-.3-.5.3ZM254.7,85.2h-.4v.6h.4A.6.6,0,0,0,254.7,85.2Zm70,19.8h-.4l.4.4ZM88.5,435.9l.5.6.4-.2-.5-.6Zm175.3-86h.4l-.2-.3h-.3Zm-80-20.5v-.2h-.3ZM275.5,52.9l.4-.7-.6-.3c-.1,0-.3.3-.3.3Zm-172,418.7-.6-.3v.4Zm-37-47.9v.4H67a1,1,0,0,0-.1-.3ZM276,56.8l.3-.4-.7-.3a1.4,1.4,0,0,1-.2.4ZM286.4,342l-.3-.7-.4.2a1.9,1.9,0,0,1,.2.7ZM266.7,55.6v-.8h-.4v.9ZM332,73.1l-.4.2.5.4a.8.8,0,0,0,.2-.4ZM269.3,58.9h.5a2.5,2.5,0,0,0-.4-.7H269ZM174.7,451v-.4l-.3.4ZM277.4,66.2v-.4l-.8-.2a1,1,0,0,0-.1.4ZM219.7,50.6h.3l-.3-.3ZM61.8,415.6v-.4H61v.4Zm257.3-23.8v-.5l-.4.5Zm-26.7-36.9h.4v-.8h-.4ZM67.7,415.8v-.5h-.7c.1.1.1.3.2.4Zm115.5,80.7-.6.4.2.3.7-.4ZM28.5,435.6v-.4h-.7a.6.6,0,0,0,.1.4ZM236.6,320.7l.2-.7c-.1.1-.3.2-.3.3ZM171,479l.2-.4-.7-.2c-.1,0-.2.2-.3.3Zm-45.3-17.1h.4c.1-.1,0-.2,0-.4l-.6.2Zm-89-8.1h.4v-.4ZM286.6,152.2v-.3l-.2.2ZM28.8,473.6h.3l-.3-.2ZM32,500.1h-.3c-.1,0-.1.2-.1.3H32ZM269.2,54.7v-.4h-.4ZM324,73.9h.4l-.3-.3Zm-16.3,7h.4c0-.1-.1-.3-.2-.3s-.3,0-.4.1Zm-92.4,1.5v.3l.2-.2ZM320.4,254.9l.2-.3-.3-.2-.2.3C320.1,254.8,320.3,254.9,320.4,254.9Zm68,105.5-.5-.3v.3Zm-176-198.9H212v.5ZM61.3,440.6l.2-.2h-.2ZM226.1,145.2l-.2.6.3-.2C226.2,145.5,226.1,145.4,226.1,145.2Z"/><path d="M352.4,335.2c-3.1,7.4-.6,16.4,6.4,23.4a14.1,14.1,0,0,1,1.9,3.4,4.3,4.3,0,0,1-2-.2c-.4-.3-.3-1.3-.6-1.8-1.8-2.3-3.7-4.5-5.6-6.8l-1.8.8c1.8,3.7,3.3,7.5,5.5,10.9.5.9,3.2.4,5.7.6-1.6,1-3.3,3-4.7,2.8s-4.6-1.7-5.4-3.4c-3.1-6.7-9.1-12.9-5.1-21.6l-2.3,3.1-1.4-.8,6.3-10h3.2Zm-1.9,14.3h0Z"/><path d="M301.4,62.3c-6.2,0-9.4-4.2-7.9-10.4Z"/><path d="M113.6,493.4q-3-4.9-5.7-9.9c-.2-.4.7-1.5,1.2-2.3s1.2,1.1,1.4,1.8c1.1,3.4,2,7,2.9,10.4Z"/><path d="M282,49l5.5-3.5h-.1l3.9,5.9L282,48.9C281.9,48.9,282,49,282,49Z"/><path d="M329.2,37.3c1.7,5.8,3.5,11.6,5.2,17.4h.1l-5.1-17.3Z"/><path d="M318.4,29.1l7.1,9-1,.8L317.2,30Z"/><path d="M159.8,501.3l11.5-1.1v1.4l-11.7-.3Z"/><path d="M316.6,20.7l-.8-.5-4.3-3.7.9-.6,4.1,4.8Z"/><path d="M308,16.7l-2,5.7-1.9-1.3,4-4.4Z"/><path d="M314.2,47.3l2.5,3-1.2.6-1.2-3.7Z"/><path d="M323.3,67a12,12,0,0,1-2.9.5c-.4,0-.7-.5-1.1-.8a6.5,6.5,0,0,1,1.7-.8C321.3,65.8,321.7,66.2,323.3,67Z"/><path d="M314.3,47.2l-3.5.8h.1l3.3-.8Z"/><path d="M313,28h-1.4c-.1,0-.2-.5-.3-.7a3,3,0,0,1,1.3-.1C312.8,27.1,312.8,27.6,313,28Z"/><path d="M299.4,21.5c.4-.1.8-.2.9-.1s.2.6.3.9h-.9C299.5,22.1,299.5,21.7,299.4,21.5Z"/><path d="M182,503.4l-4.1-.9.2-.7,3.9,1.7Z"/><path d="M323.8,27.2l1.7,3.9h.1c-.6-1.3-1.1-2.6-1.7-3.8Z"/><path d="M322,63.5l-1,.5c-.1,0-.4-.6-.3-.6a1,1,0,0,1,.8-.5C321.6,62.8,321.8,63.2,322,63.5Z"/><path d="M308,45.9c.5-1.4,1.1-2.7,1.7-4.1h-.1c-.6,1.4-1.1,2.8-1.7,4.1Z"/><path d="M312.1,22.3l-.7.3c0-.3-.1-.5-.1-.7l.4-.2Z"/><path d="M120.7,468.7c-.2-.2-.4-.2-.4-.3l.3-.4Z"/><path d="M287.5,45.5l-.9-1,.8,1.1Z"/><path d="M112.8,507l-.4-.2.3-.6.3.4C113,506.7,112.8,506.9,112.8,507Z"/><path d="M113.4,493.4l1.7,1.3-.3.4-1.2-1.7Z"/><path d="M159.7,501.3l-2.3-.4v-.4l2.3.8Z"/><path d="M177.2,259.8l-.9,2.1h.1l.9-2Z"/><path d="M319,21.9l.8,1.1h-.4l-.3-1.1Z"/><path d="M306.4,38.2H306l.3-.4Z"/><path d="M299.4,76.8a18.9,18.9,0,0,0,.5,2.3h.1l-1.1-.3h.1l.5-2Z"/><path d="M306.2,42.4l-.2-.2c0-.1.1-.2.2-.3a.2.2,0,0,1,.2.2C306.5,42.2,306.3,42.3,306.2,42.4Z"/><path d="M326.6,56.8l-.3.2-.2-.3.3-.3Z"/><path d="M319.1,21.9l-2.4-1.2h-.2l2.5,1.2Z"/><path d="M311.3,43.2l-1.7-1.4h.1l1.6,1.3Z"/><path d="M311.3,43.1h0Z"/><polygon points="303.7 44.1 303.6 44.4 303.3 44.1 303.7 44.1"/><path d="M308.7,47.4l2.2.7h-.1l-2-.7Z"/><path d="M320.4,58h0Z"/><path d="M343.3,336.6l.3.2-.4-.2Z"/><path d="M323.9,27.3h0Z"/><path d="M325.5,31.1a8.3,8.3,0,0,0,.8,1.2h.1a7.6,7.6,0,0,1-.8-1.1Z"/><path d="M326.9,33.5c-.2-.4-.3-.8-.5-1.3h-.1a6.9,6.9,0,0,0,.5,1.3Z"/><path d="M326.8,33.6l.9,1.2h.1l-.9-1.2Z"/><path d="M290.6,24.7h0Z"/><path d="M328.5,35.9l-.7-1.2h-.1a7.5,7.5,0,0,0,.7,1.2Z"/><path d="M328.4,36l.8,1.3h.2l-.9-1.4Z"/><path d="M263.5,465.2l-1.2.7v.2l1.2-.7Z"/><path d="M262.3,465.9l-1.2.7h0l1.3-.6Z"/><path d="M261.1,466.6l-1.3.8h.1l1.2-.8Z"/><path d="M176.3,261.9h0Z"/><polygon points="320.4 58.1 320.4 57.8 320.4 58 320.4 58.1"/><path d="M345.2,357.3h.1l-.2.2Z"/><path d="M307.9,45.9a10.9,10.9,0,0,0,.8,1.5h.1c-.3-.5-.5-1-.8-1.4Z"/><path d="M247.6,388.1c12-1.1,22.8,2.4,33.3,7.5.8.4,1.1,2,1.6,3-1.5.1-3.7.9-4.4.2-7-7.2-16.6-7.1-25.3-9.7C251.1,388.6,249.4,388.5,247.6,388.1Z"/><path d="M245.6,401.6a70.4,70.4,0,0,1-.3,8c-.3,1.8-1.4,3.4-2.2,5.2-.4-2-1.3-3.9-1.2-5.8s1.3-5,2-7.5Z"/><path d="M232.2,420.3l10.3,9.9a6.1,6.1,0,0,1,.9,2c-.7-.1-1.7.2-2.1-.2-3.8-3.4-7.6-6.9-11.2-10.5-.4-.4-.2-1.5-.3-2.2l2.5,1.1Z"/><path d="M270.9,364.9l-10.5-3c-.5-.1-.8-.8-1.2-1.2s1.1-.9,1.5-.8l10.9,2.9Z"/><path d="M293.5,402c.3.8.9,1.5.7,1.8s-1.2.9-1.5.7-.7-1.1-1.1-1.7Z"/><path d="M279.8,387l-5.3-2.5.6-1,4.6,3.6Z"/><path d="M262.8,378l2.3,1.8-2.4,1.5.3-3.3Z"/><path d="M259.2,443.8a6.4,6.4,0,0,1-.2.7c0,.1-.2,0-.4,0a1.7,1.7,0,0,0,.1-.7Z"/><path d="M263,378l-1.1-.8.5-.4a5.6,5.6,0,0,1,.4,1.2Z"/><path d="M259.4,422.4l-.3-.2c0-.2.1-.3.1-.4l.6.3Z"/><path d="M257.2,417.6c-.1.1-.1.3-.3.3h-.4l.5-.6Z"/><polygon points="246.5 397 246.2 397.2 246.2 396.9 246.5 397"/><path d="M279.7,387.1l1.5.5c-.1,0-.2.2-.3.1l-1.1-.7Z"/><polygon points="286.4 382.5 286.6 382.7 286.3 382.7 286.4 382.5"/><path d="M241.8,372.5l.2-.8v.3a.5.5,0,0,0-.2.4Z"/><path d="M290.4,394.8l-.7-.3.6.4Z"/><path d="M290.3,394.9h0Z"/><path d="M245.8,197.7l3.2-3.8.6,3.4c.9,6.3,2,12.6,2.6,19,.2,1.8-.9,3.7-1.4,5.5-1-1.5-2.8-2.9-3-4.6C246.8,210.6,246.4,203.9,245.8,197.7Z"/><path d="M262.4,193.4l-15.9-11.6c-1.4-.9-3.2-1.2-4.8-1.8.6-.7,1.1-2,1.8-2.1,2.2-.6,5.9-1.9,6.7-1C254.5,181.9,258.1,187.4,262.4,193.4Z"/><path d="M240.4,234.9l-11.2-10.8-2.5-2.4c1.2-.2,2.4-.7,3.5-.5,5.9,1.3,11.2,3.5,11.6,10.7.1.9-1,2-1.5,3Z"/><path d="M244.7,149.7c1.4.4,3.1.4,4.4,1.1a24.8,24.8,0,0,1,4.3,3.7c0,.1-1.2,1.7-1.3,1.6s-3.1-1.8-4.6-2.9a34.9,34.9,0,0,1-3.2-2.5Z"/><path d="M215.7,207.2l7.9,1.7-.6,1.7-7.2-3.5Z"/><path d="M244.4,187c-.2,1.3-.3,2.5-.5,3.8H243v-3.9Z"/><path d="M242.6,199.2l-.2-4.9,1.4.2-1.3,4.6Z"/><path d="M255.8,160.2l.5,3h-.9l.5-3Z"/><path d="M239.6,153.4c-.6-.2-1.2-.2-1.3-.4s0-.8.2-1.2.6,0,.7.2A3.9,3.9,0,0,1,239.6,153.4Z"/><path d="M211.4,187.6l1.5.9h-.4l-1-1.1Z"/><polygon points="260.2 197.9 260.2 197.6 260.5 197.7 260.2 197.9"/><path d="M240.3,234.9h0Z"/><path d="M255.9,160.2l-1-1.2h-.1l1,1.1Z"/><path d="M242.5,199.1h0Z"/><path d="M254.9,159h0Z"/><path d="M186.3,155.1c-1.7.4-3.1,1.3-3.6.9s-1.2-2-1.7-3.1c1-.3,2.1-1,2.9-.7S185.2,153.7,186.3,155.1Z"/><path d="M161.6,171.8l1.5-4.5,1.8,1.1-3.3,3.4Z"/><path d="M185.4,142.9l-1.1.4c-.1-.3-.3-.7-.2-.8s.6-.4,1-.6Z"/><path d="M173.7,165.2l-.3.3c-.1.1-.2-.1-.3-.1l.4-.5Z"/><path d="M169.7,168.2l.4-.3.3.7-.4.3Z"/><polygon points="171.6 181.6 171.9 181.6 171.7 181.9 171.6 181.6"/><path d="M169.2,184.1l.4.7-.3-.8Z"/><path d="M161.6,171.8Z"/><polygon points="169.5 162.9 169.6 162.7 169.8 162.9 169.5 162.9"/><path d="M174.3,168.7v0Z"/><path d="M184,199.3h0Z"/><path d="M174.4,168.9v0Z"/><path d="M168.3,182.7l.9,1.4h.1l-.9-1.3Z"/><path d="M41.1,500.4l3.7,3.8-2.2,1.4c-.4-1.8-.9-3.5-1.3-5.3Z"/><path d="M43.4,508.3l-.7-.5c.2-.2.3-.4.5-.5s.3.1.3.2S43.4,508,43.4,508.3Z"/><path d="M56.6,485.1l1.3.3-.2.4-1-.8Z"/><path d="M41.3,500.3h0Z"/><path d="M231.5,35.8c-2.1.4-3.5,1.2-4.6.9s-1.7-2.3-1.4-2.9,2.4-2.4,3-2.1S230.1,33.8,231.5,35.8Zm-3-1.6a1.3,1.3,0,0,0-.5-.7l-.8.4.7.9Z"/><path d="M214.9,35.3a5.2,5.2,0,0,1,1.1,1c1.4,1.8,2.7,3.7,4.1,5.6-.4.2-1.1.7-1.2.6l-5.3-6.3Z"/><path d="M219.2,31.9l2.2,4.7-1.5.7L218,32.5Z"/><path d="M220.2,26.9l1.7-1.9.7.8-2.5,1.1Z"/><path d="M257.7,12.9c-.2.3-.4.6-.6.6s-.4-.3-.6-.4.3-.6.5-.6S257.4,12.8,257.7,12.9Z"/><path d="M233.2,27.5l.3-.4.5.7-.3.3Z"/><path d="M216.7,30c-.3.6-.5,1.2-.1.2-.7.8-.3.3.2-.2Z"/><path d="M216.8,30h0Z"/><path d="M220.1,26.9h0Z"/><path d="M329.9,210.4c-1.2.1-2.4.5-2.7.2a10.5,10.5,0,0,1-1.6-3.6c-.1-.4,1.1-1.1,1.7-1.6Z"/><path d="M342.1,194.1l-1.4-2.3,1.1-.5c.1,1,.1,1.9.2,2.8Z"/><path d="M315.8,205.8l1.8-1.1.2.4-2.1.6Z"/><path d="M315.5,217.6v.4l-.4.2v-.7Z"/><path d="M342,194.1v1.4h-.6l.7-1.3Z"/><path d="M314.3,206.6l1.5-.8h-.1l-1.4.8Z"/><path d="M112.9,438.2c.2,1.5.4,3,.8,5.6l-2.9-4.4Z"/><path d="M115.4,441.1,111,438l3.9-1.8c.1,1.6.3,3.3.4,4.9Z"/><path d="M144.9,437.8h-.4c-.1,0,0-.2-.1-.4h.5Z"/><path d="M173.9,433.2l-.6,2Z"/><path d="M115.3,441.1h0Z"/><path d="M287.5,108.2c-1-3.5-2.4-5.8-1.9-7.3s3.7-3.1,4.8-2.6,3.3,3.4,3,4.9S290.4,105.9,287.5,108.2Z"/><path d="M297.7,105.5c-.5-2.7-1.2-4.2-.9-5.6s1.8-1.3,2.7-2c.8,1.4,2,2.7,2,4.1S299.6,103.8,297.7,105.5Zm1.8-5c-.3.2-.7.2-.8.4s.1.5.2.8l.8-.3A3.7,3.7,0,0,0,299.5,100.5Z"/><path d="M252.5,104.5c-.5-2.7-1.1-5.3-1.7-7.9,1.6,2.7,8.7,3.8,3,8.4h0l-1.3-.7Z"/><path d="M261.7,104l-4.9-6.8,1.2-1c1.6,2.1,3.2,4.1,4.7,6.2Z"/><path d="M308.2,97.9l-2.4,2.6,3.3,1.8a30.2,30.2,0,0,1-5.2-.2c-.3,0-.6-2.8-.3-3A23.9,23.9,0,0,1,308.2,97.9Z"/><path d="M242.5,102.5l1.3-.7c.3,1.1.6,2.1.8,3.2Z"/><path d="M265.4,111.4l1.2-2.5.6.5-1.8,2.1Z"/><path d="M272.1,107l-.8.3c-.2,0-.3-.4-.4-.6l.4-.2Z"/><path d="M268.1,106.1c.1.1.3.2.3.3s-.2.3-.3.4l-.4-.5Z"/><path d="M311.4,97.7l-3.3.2Z"/><polygon points="268.1 104.1 267.8 103.8 268.2 103.8 268.1 104.1"/><path d="M253.8,105h0Z"/><path d="M202.1,287.7l-5.1-5.5,1.2-1.2,5,5.5Z"/><path d="M216.6,272.5l3.2.8-1,1.5-2.1-2.3Z"/><path d="M204.9,276.4c.1.7.4,1.3.3,1.5s-.9.5-1.3.7a3,3,0,0,1-.2-1.3C203.8,277,204.3,276.8,204.9,276.4Z"/><path d="M217.9,265.6l1.8-.8.2.7h-2Z"/><path d="M216.7,272.5l-3.5-1.4h-.1l3.5,1.4Z"/><path d="M218,265.5v.1Z"/><path d="M375.6,313.1v-.4a.4.4,0,0,0,.1.3Z"/><path d="M409.6,336.9h0Z"/><path d="M414.5,340l-.3,1.1-.4-1Z"/><path d="M387.7,262.9c-.2,1.6-.3,3.2-.5,4.8h-1c.3-1.8.7-3.5,1.1-5.2Z"/><path d="M322.3,151.6l-9.2-4.7,1.2-1.8,7.8,6.6Z"/><path d="M322.1,151.7c.8.5,1.9.9,2.3,1.6a6.2,6.2,0,0,1,.8,3.1l-1.2.5c-.4-1-.7-2-1.1-2.9l-.6-2.4Z"/><path d="M296.2,152l1.5,2.3h.2c-.6-.8-1.2-1.5-1.7-2.3Z"/><path d="M308.3,158l-1-.8.9.9Z"/><path d="M299.1,138l-3.6.9h.1l3.5-.9Z"/><path d="M299.1,138.1h0Z"/><path d="M296.2,151.9v.1Z"/><path d="M391.2,235.8a14.1,14.1,0,0,1-2.8.8c-.4,0-.8-.7-1.2-1.1s1.3-.9,2-1S390.1,235.1,391.2,235.8Z"/><path d="M369,235.5l.6.7a3.9,3.9,0,0,1-1.1.6c-.1,0-.4-.4-.6-.6Z"/><path d="M241.4,478.8l-3-4.9h-.1c1,1.6,2,3.2,2.9,4.8Z"/><path d="M233.4,469.5l.6-1.9h-.1l1.3,1.8h-1.9Z"/><path d="M217.5,487.3l-.2-.9h.8c.2.1.2.5.2.8Z"/><path d="M233.2,466.1h0Z"/><path d="M234,467.6a10.9,10.9,0,0,0-.8-1.5h-.1a6.4,6.4,0,0,1,.8,1.4Z"/><path d="M238.4,473.9h0Z"/><path d="M325.2,353.4a2.5,2.5,0,0,1-.1-.8c0-.1.4-.2.4-.2l.5.6Z"/><path d="M325,356l-.2.5-.6-.3c-.1-.1,0-.3.1-.5Z"/><path d="M196.3,461.2l-.3,1-5.1,1.2-.4-1.5Z"/><path d="M191.8,466.2l-.3,1-2.7-.5c.1-.4.3-1.1.4-1.1Z"/><path d="M293.8,90.7l1,.3a4.7,4.7,0,0,1-.9.6c-.2.1-.6-.2-.8-.3Z"/><path d="M321.3,86.9l-1.5.9-.2-.3,1.8-.5Z"/><path d="M287.9,90.4l.2.6h-.4c-.1-.2-.1-.4-.2-.6Z"/><path d="M321.4,87h0Z"/><path d="M323.7,86.9l1.4-.9H325l-1.3.9Z"/><path d="M264.6,333.8l-2.7-6.8c1.6-.5,3.6-1.8,4.8-1.4s2.6,2.8,3.8,4.2Zm1.9-.7c1.1-1.8,2.1-2.9,2.3-4.1a3,3,0,0,0-1.8-2.3c-1-.2-2.1.6-3.2,1S264.7,329.5,266.5,333.1Z"/><path d="M267.4,318.6l5,2.5c-.7.2-1.7.8-2.3.5a12.1,12.1,0,0,1-3.1-2.1Z"/><path d="M272.3,334.2h-.9c0-.2-.1-.6,0-.8s.6-.2.7-.1S272.2,333.9,272.3,334.2Z"/><path d="M270.9,338h-.8c0-.2-.2-.6,0-.8s.4-.1.7-.1Z"/><path d="M258.9,289.9l2.7-2a16.1,16.1,0,0,1,1.6,3.9c.1.4-1.6,1.1-2.5,1.6S259.7,291.3,258.9,289.9Z"/><polygon points="256.8 286.4 256.9 286.1 257.1 286.3 256.8 286.4"/><path d="M94.8,501.6l-.3,1.1L92.8,501Z"/><path d="M337.6,314.4c.5,2.1,1,4.1,1.4,6.1l-1.7.2c.2-2.1.3-4.2.4-6.3Z"/><polygon points="338.1 324.7 338.4 324.5 338.3 324.9 338.1 324.7"/><path d="M227.7,79.1l-3.6-10.8,3.2-1c1.1,3.6,2.3,7.2,3.5,10.8Z"/><path d="M233.6,72.4l-.2.3-.3-.2.2-.3Z"/><path d="M259.7,268.3c-.1-.2-.2-.3-.2-.4l.4-.3c0,.2.1.3.1.4S259.8,268.2,259.7,268.3Z"/><path d="M268.6,245v-.1Z"/><polygon points="332.6 172 332.3 171.9 332.5 172 332.6 172"/><path d="M340.2,168.3h0Z"/><path d="M358.6,196.9l-1.3.8Z"/><path d="M352.7,192.4h0Z"/><path d="M283.6,292l-4.8-1.3,5.2.5Z"/><path d="M276.4,287.3l6.2.7Z"/><path d="M48.3,441.1h0Z"/><path d="M361.7,212.3l-2.4.5Z"/><path d="M285.6,284.6h0Z"/><path d="M290.6,366.7l-.3.7a.4.4,0,0,1,.1-.3l.3-.3Z"/><path d="M228,94.5l-.5-1.2h.5v1.3Z"/><path d="M227.9,94.6l.8.2-.7-.3Z"/><path d="M298.8,168.5c-.6.2-1.1.5-1.4.3a1.7,1.7,0,0,1-.3-1.2c.2-.2.9-.5,1.1-.3S298.5,168,298.8,168.5Z"/><path d="M60.2,427.6c.7,1.3,1.4,2.6,2.2,3.9C61.6,430.2,60.9,428.9,60.2,427.6Z"/><path d="M62.3,431.3a6.4,6.4,0,0,0,.8,1.4A6.4,6.4,0,0,1,62.3,431.3Z"/><path d="M356.3,294.9l3.3-.2Z"/><path d="M317.6,262.3l1.1.3-.6,2.1C317.9,263.9,317.8,263.1,317.6,262.3Z"/><path d="M142.9,460.2l-.8-.2.8.3Z"/><path d="M219.4,442.4l-.3.7.3-.8Z"/><path d="M362.2,217.6l-.3,1.1Z"/><path d="M217.9,395v-.1Z"/></g></g></svg>