<svg width="800" height="800" viewBox="0 0 800 800" fill="none" xmlns="http://www.w3.org/2000/svg">
<g clip-path="url(#clip0)">
<path d="M390.2 499.087C390.2 521.221 384.6 540.954 373.4 558.287C361.933 575.354 345.4 588.821 323.8 598.687C302.2 608.554 276.6 613.487 247 613.487C217.4 613.487 191.8 608.554 170.2 598.687C148.6 588.821 132.2 575.354 121 558.287C109.533 540.954 103.8 521.221 103.8 499.087C103.8 477.221 109.533 457.754 121 440.687C132.2 423.354 148.6 409.754 170.2 399.887C191.8 390.021 217.4 385.087 247 385.087C276.6 385.087 302.2 390.021 323.8 399.887C345.4 409.754 361.933 423.354 373.4 440.687C384.6 457.754 390.2 477.221 390.2 499.087ZM354.6 499.087C354.6 476.687 345.4 458.821 327 445.487C308.6 431.887 281.933 425.087 247 425.087C212.067 425.087 185.4 431.887 167 445.487C148.6 458.821 139.4 476.687 139.4 499.087C139.4 521.754 148.6 539.887 167 553.487C185.4 566.821 212.067 573.487 247 573.487C281.933 573.487 308.6 566.821 327 553.487C345.4 539.887 354.6 521.754 354.6 499.087ZM318.2 63.0906L318.2 116.291L387 116.291L387 155.091L318.2 155.091L318.2 310.691L290.2 310.691L107 167.491L107 124.291L283.8 261.491L283.8 153.891L223 153.891L223 116.291L283.8 116.291L283.8 63.0906L318.2 63.0906Z" fill="#CCCCCC" fill-opacity="0.8"/>
</g>
<defs>
<clipPath id="clip0">
<rect width="800" height="800" fill="white"/>
</clipPath>
</defs>
</svg>
