<svg width="800" height="800" viewBox="0 0 800 800" fill="none" xmlns="http://www.w3.org/2000/svg">
<path d="M390.2 456.298C390.2 478.432 384.6 498.165 373.4 515.498C361.933 532.565 345.4 546.032 323.8 555.898C302.2 565.765 276.6 570.698 247 570.698C217.4 570.698 191.8 565.765 170.2 555.898C148.6 546.032 132.2 532.565 121 515.498C109.533 498.165 103.8 478.432 103.8 456.298C103.8 434.432 109.533 414.965 121 397.898C132.2 380.565 148.6 366.965 170.2 357.098C191.8 347.232 217.4 342.298 247 342.298C276.6 342.298 302.2 347.232 323.8 357.098C345.4 366.965 361.933 380.565 373.4 397.898C384.6 414.965 390.2 434.432 390.2 456.298ZM354.6 456.298C354.6 433.898 345.4 416.032 327 402.698C308.6 389.098 281.933 382.298 247 382.298C212.067 382.298 185.4 389.098 167 402.698C148.6 416.032 139.4 433.898 139.4 456.298C139.4 478.965 148.6 497.098 167 510.698C185.4 524.032 212.067 530.698 247 530.698C281.933 530.698 308.6 524.032 327 510.698C345.4 497.098 354.6 478.965 354.6 456.298ZM224.6 160.608C227.267 133.141 235.8 112.208 250.2 97.8078C264.333 83.4078 282.467 76.2078 304.6 76.2078C320.6 76.2078 335.133 80.2078 348.2 88.2078C361 96.2078 371.267 108.208 379 124.208C386.467 139.941 390.2 159.274 390.2 182.208C390.2 202.208 387.267 221.408 381.4 239.808C375.267 258.208 366.867 273.274 356.2 285.008L324.6 266.608C333.667 257.008 341 244.741 346.6 229.808C351.933 214.874 354.6 199.008 354.6 182.208C354.6 161.408 350.2 145.274 341.4 133.808C332.6 122.074 320.467 116.208 305 116.208C289.533 116.208 277.533 121.941 269 133.408C260.467 144.874 256.2 162.208 256.2 185.408L256.2 207.808L228.2 207.808L141.8 137.408L141.8 272.208L107 272.208L107 87.4078L134.2 87.4078L224.6 160.608Z" fill="#CCCCCC" fill-opacity="0.8"/>
</svg>
