<svg xmlns="http://www.w3.org/2000/svg" width="421.923" height="411.115" viewBox="0 0 421.923 411.115"><g transform="translate(0 -6.558)"><path d="M285.894,124.265a20.626,20.626,0,1,0-16.461-8.229l-33.849,47.3a20.544,20.544,0,0,0-20.438,4.5l-22.562-12.8a20.6,20.6,0,1,0-40.279,0l-22.562,12.8a20.571,20.571,0,1,0,6.116,10.743l22.562-12.8a20.55,20.55,0,0,0,28.046,0l22.562,12.8a20.6,20.6,0,1,0,36.6-8.042l33.849-47.3A20.538,20.538,0,0,0,285.894,124.265Zm0-28.843a8.241,8.241,0,1,1-8.241,8.242A8.25,8.25,0,0,1,285.894,95.422ZM115.717,191.154a8.242,8.242,0,1,1,8.241-8.242A8.25,8.25,0,0,1,115.717,191.154Zm56.726-32.209a8.241,8.241,0,1,1,8.241-8.241A8.25,8.25,0,0,1,172.443,158.945Zm56.726,32.209a8.242,8.242,0,1,1,8.242-8.242A8.25,8.25,0,0,1,229.168,191.154Z" transform="translate(-16.734 -13.459)"/><path d="M345.116,317.7H17.483a5.127,5.127,0,0,1-5.122-5.122V57.6a5.127,5.127,0,0,1,5.122-5.122H46.618a6.181,6.181,0,0,0,0-12.361H17.483A17.5,17.5,0,0,0,0,57.6V312.581a17.5,17.5,0,0,0,17.483,17.483H60.1v13.6A14.069,14.069,0,0,0,74.15,357.718h61.866l-29.123,56.859a6.18,6.18,0,1,0,11,5.635L149.9,357.718h68.333l32.009,62.494a6.18,6.18,0,1,0,11-5.635l-29.123-56.859h61.866a14.068,14.068,0,0,0,14.053-14.053v-13.6h37.072a6.181,6.181,0,1,0,0-12.361Zm-49.433,25.963a1.694,1.694,0,0,1-1.692,1.692H74.15a1.694,1.694,0,0,1-1.692-1.692v-13.6H295.684Z" transform="translate(0 -5.904)"/><path d="M85.252,46.573H364.57a5.127,5.127,0,0,1,5.122,5.122V110.46a6.181,6.181,0,1,0,12.361,0V51.695A17.5,17.5,0,0,0,364.57,34.212H232.285V22.064A15.524,15.524,0,0,0,216.779,6.558H179.186A15.524,15.524,0,0,0,163.68,22.064V34.212H85.252a6.181,6.181,0,0,0,0,12.361Zm90.789-24.509a3.149,3.149,0,0,1,3.145-3.145h37.592a3.149,3.149,0,0,1,3.145,3.145V34.212H176.042V22.064Z" transform="translate(-13.911 0)"/><path d="M103.583,267.576a6.18,6.18,0,0,0-6.181,6.181v54.613a6.18,6.18,0,0,0,6.181,6.181h25.074a6.18,6.18,0,0,0,6.181-6.181V273.757a6.18,6.18,0,0,0-6.181-6.181Zm18.893,54.613H109.763V279.938h12.713Z" transform="translate(-17.136 -45.921)"/><path d="M172.418,229.248a6.18,6.18,0,0,0-6.181,6.181v86.2a6.18,6.18,0,0,0,6.181,6.18h25.074a6.18,6.18,0,0,0,6.181-6.18v-86.2a6.18,6.18,0,0,0-6.181-6.181Zm18.894,86.2H178.6V241.609h12.713Z" transform="translate(-29.246 -39.178)"/><path d="M241.254,267.576a6.18,6.18,0,0,0-6.181,6.181v54.613a6.18,6.18,0,0,0,6.181,6.181h25.074a6.18,6.18,0,0,0,6.181-6.181V273.757a6.18,6.18,0,0,0-6.181-6.181Zm18.893,54.613H247.434V279.938h12.713Z" transform="translate(-41.357 -45.921)"/><path d="M310.09,311.832a6.18,6.18,0,0,0-6.181,6.181v18.144a6.18,6.18,0,0,0,6.181,6.181h25.074a6.181,6.181,0,1,0,0-12.361H316.27V318.013A6.18,6.18,0,0,0,310.09,311.832Z" transform="translate(-53.467 -53.707)"/><path d="M470.764,341.875l-35.457-61.415a80.821,80.821,0,1,0-79.917,22.807,81.224,81.224,0,0,0,21.038,2.787,79.767,79.767,0,0,0,18.193-2.1l35.45,61.416a23.494,23.494,0,1,0,40.693-23.494ZM358.589,291.328a68.421,68.421,0,1,1,51.917-6.836A67.976,67.976,0,0,1,358.589,291.328Zm97.4,71.935a11.145,11.145,0,0,1-15.209-4.073L406.671,300.1a81.126,81.126,0,0,0,19.272-11.139l34.116,59.091a11.122,11.122,0,0,1-4.073,15.209Z" transform="translate(-51.994 -24.264)"/><path d="M437.045,247.36a58.489,58.489,0,0,0-2.926-42.37,6.18,6.18,0,1,0-11.182,5.267,46.292,46.292,0,1,1-13.956-17.245,6.18,6.18,0,1,0,7.458-9.857,58.692,58.692,0,1,0,20.606,64.2Z" transform="translate(-56.703 -28.973)"/></g></svg>