<svg fill="none" height="685" viewBox="0 0 709 685" width="709" xmlns="http://www.w3.org/2000/svg"><path d="m287.5 0h158v685h-158z" fill="#1e1e1e"/><path d="m709 263.5v158h-685v-158z" fill="#1e1e1e"/><g fill="#f9f9f9"><path d="m88.7745 369.451c1.2364 0 2.2255-.989 2.2255-2.225 0-1.237-.9891-2.226-2.2255-2.226-1.2365 0-2.2256.989-2.2256 2.226 0 1.236.9891 2.225 2.2256 2.225z"/><path d="m88.7745 386.761c-1.2365 0-2.2256.989-2.2256 2.225 0 1.237.9891 2.226 2.2256 2.226 1.2364 0 2.2255-.989 2.2255-2.226 0-1.483-.9891-2.225-2.2255-2.225z"/><path d="m88.7745 408.274c-1.2365 0-2.2256.99-2.2256 2.226s.9891 2.226 2.2256 2.226c1.2364 0 2.2255-.99 2.2255-2.226s-.9891-2.226-2.2255-2.226z"/><path d="m88.7745 430.035c-1.2365 0-2.2256.989-2.2256 2.226 0 1.236.9891 2.225 2.2256 2.225 1.2364 0 2.2255-.989 2.2255-2.225 0-1.484-.9891-2.226-2.2255-2.226z"/><path d="m88.7745 451.549c-1.2365 0-2.2256.989-2.2256 2.225 0 1.237.9891 2.226 2.2256 2.226 1.2364 0 2.2255-.989 2.2255-2.226 0-1.236-.9891-2.225-2.2255-2.225z"/><path d="m67.0136 365c-1.2364 0-2.2256.989-2.2256 2.226 0 1.236.9892 2.225 2.2256 2.225s2.2255-.989 2.2255-2.225c0-1.237-.9891-2.226-2.2255-2.226z"/><path d="m67.0136 386.761c-1.2364 0-2.2256.989-2.2256 2.225 0 1.237.9892 2.226 2.2256 2.226s2.2255-.989 2.2255-2.226c0-1.483-.9891-2.225-2.2255-2.225z"/><path d="m67.0136 408.274c-1.2364 0-2.2256.99-2.2256 2.226s.9892 2.226 2.2256 2.226 2.2255-.99 2.2255-2.226-.9891-2.226-2.2255-2.226z"/><path d="m67.0136 430.035c-1.2364 0-2.2256.989-2.2256 2.226 0 1.236.9892 2.225 2.2256 2.225s2.2255-.989 2.2255-2.225c0-1.484-.9891-2.226-2.2255-2.226z"/><path d="m67.0136 451.549c-1.2364 0-2.2256.989-2.2256 2.225 0 1.237.9892 2.226 2.2256 2.226s2.2255-.989 2.2255-2.226c0-1.236-.9891-2.225-2.2255-2.225z"/><path d="m45.5 365c-1.2364 0-2.2255.989-2.2255 2.226 0 1.236.9891 2.225 2.2255 2.225s2.2255-.989 2.2255-2.225c0-1.237-.9891-2.226-2.2255-2.226z"/><path d="m45.5 386.761c-1.2364 0-2.2255.989-2.2255 2.225 0 1.237.9891 2.226 2.2255 2.226s2.2255-.989 2.2255-2.226c0-1.483-.9891-2.225-2.2255-2.225z"/><path d="m45.5 408.274c-1.2364 0-2.2255.99-2.2255 2.226s.9891 2.226 2.2255 2.226 2.2255-.99 2.2255-2.226-.9891-2.226-2.2255-2.226z"/><path d="m45.5 430.035c-1.2364 0-2.2255.989-2.2255 2.226 0 1.236.9891 2.225 2.2255 2.225s2.2255-.989 2.2255-2.225c0-1.484-.9891-2.226-2.2255-2.226z"/><path d="m45.5 451.549c-1.2364 0-2.2255.989-2.2255 2.225 0 1.237.9891 2.226 2.2255 2.226s2.2255-.989 2.2255-2.226c0-1.236-.9891-2.225-2.2255-2.225z"/><path d="m23.7391 365c-1.2364 0-1.9782.989-1.9782 2.226 0 1.236.9891 2.225 2.2255 2.225s2.2256-.989 2.2256-2.225c-.2473-1.237-1.2365-2.226-2.4729-2.226z"/><path d="m23.7391 386.761c-1.2364 0-2.2255.989-2.2255 2.225 0 1.237.9891 2.226 2.2255 2.226s2.2256-.989 2.2256-2.226c0-1.483-.9892-2.225-2.2256-2.225z"/><path d="m23.7391 408.274c-1.2364 0-2.2255.99-2.2255 2.226s.9891 2.226 2.2255 2.226 2.2256-.99 2.2256-2.226-.9892-2.226-2.2256-2.226z"/><path d="m23.7391 430.035c-1.2364 0-2.2255.989-2.2255 2.226 0 1.236.9891 2.225 2.2255 2.225s2.2256-.989 2.2256-2.225c0-1.484-.9892-2.226-2.2256-2.226z"/><path d="m23.7391 451.549c-1.2364 0-2.2255.989-2.2255 2.225 0 1.237.9891 2.226 2.2255 2.226s2.2256-.989 2.2256-2.226c0-1.236-.9892-2.225-2.2256-2.225z"/><path d="m2.22554 365c-1.23641 0-2.22554.989-2.22554 2.226 0 1.236.98913 2.225 2.22554 2.225 1.23642 0 2.22555-.989 2.22555-2.225 0-1.237-.98913-2.226-2.22555-2.226z"/><path d="m2.22554 386.761c-1.23641 0-2.22554.742-2.22554 1.978 0 1.237.98913 2.226 2.22554 2.226 1.23642 0 2.22555-.989 2.22555-2.226 0-1.236-.98913-1.978-2.22555-1.978z"/><path d="m2.22554 408.274c-1.23641 0-2.22554.99-2.22554 2.226s.98913 2.226 2.22554 2.226c1.23642 0 2.22555-.99 2.22555-2.226s-.98913-2.226-2.22555-2.226z"/><path d="m2.22554 430.035c-1.23641 0-2.22554.989-2.22554 2.226 0 .989.98913 1.978 2.22554 1.978 1.23642 0 2.22555-.989 2.22555-2.225 0-1.237-.98913-1.979-2.22555-1.979z"/><path d="m2.22554 451.549c-1.23641 0-2.22554.989-2.22554 2.225 0 1.237.98913 2.226 2.22554 2.226 1.23642 0 2.22555-.989 2.22555-2.226 0-1.236-.98913-2.225-2.22555-2.225z"/><path d="m305.973 145h-45.946c-.772 0-1.351-.396-1.737-.99-.387-.594-.387-1.584 0-2.178l22.779-40.792c.773-1.3865 2.896-1.3865 3.668 0l22.973 40.792c.387.594.387 1.584 0 2.178-.386.594-1.158.99-1.737.99zm-42.278-4.356h38.61l-19.305-34.258z"/></g></svg>