<svg width="100" height="100" viewBox="0 0 100 100" fill="none" xmlns="http://www.w3.org/2000/svg">
<path d="M45.3079 1.51515V0C44.4711 0 43.7927 0.678356 43.7927 1.51515H45.3079ZM54.6921 1.51515H56.2073C56.2073 0.678356 55.5289 0 54.6921 0V1.51515ZM54.6921 10.8993V12.4145C55.5289 12.4145 56.2073 11.7361 56.2073 10.8993H54.6921ZM45.3079 10.8993H43.7927C43.7927 11.7361 44.4711 12.4145 45.3079 12.4145V10.8993ZM1.51515 51.5641V50.0489C0.678356 50.0489 0 50.7273 0 51.5641H1.51515ZM10.8993 51.5641H12.4145C12.4145 50.7273 11.7361 50.0489 10.8993 50.0489V51.5641ZM10.8993 60.9482V62.4633C11.7361 62.4633 12.4145 61.785 12.4145 60.9482H10.8993ZM1.51515 60.9482H0C0 61.785 0.678356 62.4633 1.51515 62.4633V60.9482ZM45.3079 6.20723L45.4682 7.71388C46.2692 7.62867 46.8636 6.93145 46.8209 6.12698C46.7783 5.3225 46.1135 4.69208 45.3079 4.69208V6.20723ZM54.6921 6.20723V4.69208C53.8865 4.69208 53.2217 5.3225 53.1791 6.12698C53.1364 6.93145 53.7308 7.62867 54.5318 7.71388L54.6921 6.20723ZM77.9339 81.7067C77.3056 82.2592 77.2441 83.2167 77.7967 83.8451C78.3492 84.4735 79.3067 84.535 79.935 83.9824L77.9339 81.7067ZM4.69208 51.5641C4.69208 52.4008 5.37044 53.0792 6.20723 53.0792C7.04403 53.0792 7.72238 52.4008 7.72238 51.5641H4.69208ZM72.0527 63.2942L71.0933 62.1215C71.0805 62.1321 71.0676 62.143 71.055 62.1539L72.0527 63.2942ZM72.9912 57.5073L71.6736 58.2556L71.6824 58.2708L72.9912 57.5073ZM51.4076 19.5015L52.7251 18.7532L52.7232 18.7497L51.4076 19.5015ZM48.7488 19.5015L50.0626 20.2561C50.092 20.2052 50.1182 20.1524 50.1414 20.0983L48.7488 19.5015ZM27.0088 57.3509L28.3176 58.1144L28.3226 58.1056L27.0088 57.3509ZM27.9473 63.1379L26.9336 64.2641L26.9447 64.2739L27.9473 63.1379ZM34.647 75.3594C34.9183 76.1511 35.78 76.5727 36.5715 76.3012C37.3632 76.0298 37.7848 75.1682 37.5133 74.3767L34.647 75.3594ZM51.5641 92.2776H50.0489V95.3079H51.5641V92.2776ZM40.6158 95.3079H42.1309V92.2776H40.6158V95.3079ZM35.9726 98.4848V100H39.0029V98.4848H35.9726ZM60.9971 98.4848V100H64.0274V98.4848H60.9971ZM51.5152 18.7194C51.5152 17.8827 50.8368 17.2042 50 17.2042C49.1632 17.2042 48.4848 17.8827 48.4848 18.7194H51.5152ZM45.3079 3.0303H54.6921V0H45.3079V3.0303ZM53.177 1.51515V10.8993H56.2073V1.51515H53.177ZM54.6921 9.38417H45.3079V12.4145H54.6921V9.38417ZM46.823 10.8993V1.51515H43.7927V10.8993H46.823ZM1.51515 53.0792H10.8993V50.0489H1.51515V53.0792ZM9.38417 51.5641V60.9482H12.4145V51.5641H9.38417ZM10.8993 59.433H1.51515V62.4633H10.8993V59.433ZM3.0303 60.9482V51.5641H0V60.9482H3.0303ZM9.38417 6.20723C9.38417 7.9618 7.9618 9.38417 6.20723 9.38417V12.4145C9.63539 12.4145 12.4145 9.63539 12.4145 6.20723H9.38417ZM6.20723 9.38417C4.45267 9.38417 3.0303 7.9618 3.0303 6.20723H0C0 9.63539 2.77908 12.4145 6.20723 12.4145V9.38417ZM3.0303 6.20723C3.0303 4.45267 4.45267 3.0303 6.20723 3.0303V0C2.77908 0 0 2.77908 0 6.20723H3.0303ZM6.20723 3.0303C7.9618 3.0303 9.38417 4.45267 9.38417 6.20723H12.4145C12.4145 2.77908 9.63539 0 6.20723 0V3.0303ZM96.9697 6.20723C96.9697 7.9618 95.5473 9.38417 93.7927 9.38417V12.4145C97.2209 12.4145 100 9.63539 100 6.20723H96.9697ZM93.7927 9.38417C92.0382 9.38417 90.6158 7.9618 90.6158 6.20723H87.5855C87.5855 9.63539 90.3645 12.4145 93.7927 12.4145V9.38417ZM90.6158 6.20723C90.6158 4.45267 92.0382 3.0303 93.7927 3.0303V0C90.3645 0 87.5855 2.77908 87.5855 6.20723H90.6158ZM93.7927 3.0303C95.5473 3.0303 96.9697 4.45267 96.9697 6.20723H100C100 2.77908 97.2209 0 93.7927 0V3.0303ZM10.8993 7.72238H45.3079V4.69208H10.8993V7.72238ZM54.6921 7.72238H89.1006V4.69208H54.6921V7.72238ZM54.5318 7.71388C75.8115 9.97768 92.2776 28.0936 92.2776 50H95.3079C95.3079 26.5495 77.6782 7.12886 54.8524 4.70059L54.5318 7.71388ZM92.2776 50C92.2776 62.6824 86.6933 74.0045 77.9339 81.7067L79.935 83.9824C89.3185 75.7315 95.3079 63.5932 95.3079 50H92.2776ZM7.72238 51.5641C7.72238 51.5632 7.72238 51.5621 7.72238 51.5612C7.72238 51.5603 7.72238 51.5594 7.72238 51.5585C7.72238 51.5576 7.72238 51.5567 7.72238 51.5558C7.72238 51.5548 7.72238 51.5539 7.72238 51.553C7.72238 51.5521 7.72238 51.5512 7.72238 51.5503C7.72238 51.5492 7.72238 51.5483 7.72238 51.5474C7.72238 51.5465 7.72238 51.5456 7.72238 51.5447C7.72238 51.5438 7.72238 51.5429 7.72238 51.542C7.72238 51.5411 7.72238 51.54 7.72238 51.5391C7.72238 51.5382 7.72238 51.5373 7.72238 51.5364C7.72238 51.5355 7.72238 51.5345 7.72238 51.5336C7.72238 51.5326 7.72238 51.5317 7.72238 51.5308C7.72238 51.5298 7.72238 51.5289 7.72238 51.528C7.72238 51.5271 7.72238 51.5261 7.72238 51.5252C7.72238 51.5242 7.72238 51.5233 7.72238 51.5224C7.72238 51.5215 7.72238 51.5205 7.72238 51.5195C7.72238 51.5186 7.72238 51.5177 7.72238 51.5168C7.72238 51.5159 7.72238 51.5148 7.72238 51.5139C7.72238 51.513 7.72238 51.5121 7.72238 51.5112C7.72238 51.5101 7.72238 51.5092 7.72238 51.5083C7.72238 51.5074 7.72238 51.5065 7.72238 51.5055C7.72238 51.5045 7.72238 51.5036 7.72238 51.5027C7.72238 51.5018 7.72238 51.5008 7.72238 51.4998C7.72238 51.4989 7.72238 51.498 7.72238 51.497C7.72238 51.4961 7.72238 51.4951 7.72238 51.4942C7.72238 51.4933 7.72238 51.4923 7.72238 51.4914C7.72238 51.4905 7.72238 51.4895 7.72238 51.4885C7.72238 51.4876 7.72238 51.4867 7.72238 51.4858C7.72238 51.4847 7.72238 51.4838 7.72238 51.4829C7.72238 51.482 7.72238 51.4809 7.72238 51.48C7.72238 51.4791 7.72238 51.478 7.72238 51.4771C7.72238 51.4762 7.72238 51.4753 7.72238 51.4742C7.72238 51.4733 7.72238 51.4724 7.72238 51.4714C7.72238 51.4705 7.72238 51.4695 7.72238 51.4686C7.72238 51.4676 7.72238 51.4667 7.72238 51.4658C7.72238 51.4647 7.72238 51.4638 7.72238 51.4629C7.72238 51.4618 7.72238 51.4609 7.72238 51.46C7.72238 51.4589 7.72238 51.458 7.72238 51.4571C7.72238 51.4562 7.72238 51.4552 7.72238 51.4542C7.72238 51.4533 7.72238 51.4523 7.72238 51.4514C7.72238 51.4505 7.72238 51.4494 7.72238 51.4485C7.72238 51.4474 7.72238 51.4465 7.72238 51.4456C7.72238 51.4445 7.72238 51.4436 7.72238 51.4427C7.72238 51.4417 7.72238 51.4408 7.72238 51.4398C7.72238 51.4388 7.72238 51.4379 7.72238 51.437C7.72238 51.4359 7.72238 51.435 7.72238 51.4339C7.72238 51.433 7.72238 51.4321 7.72238 51.4311C7.72238 51.4302 7.72238 51.4291 7.72238 51.4282C7.72238 51.4273 7.72238 51.4262 7.72238 51.4253C7.72238 51.4244 7.72238 51.4233 7.72238 51.4224C7.72238 51.4214 7.72238 51.4205 7.72238 51.4194C7.72238 51.4185 7.72238 51.4176 7.72238 51.4165C7.72238 51.4156 7.72238 51.4145 7.72238 51.4136C7.72238 51.4127 7.72238 51.4117 7.72238 51.4108C7.72238 51.4097 7.72238 51.4088 7.72238 51.4077C7.72238 51.4068 7.72238 51.4059 7.72238 51.4048C7.72238 51.4039 7.72238 51.4029 7.72238 51.402C7.72238 51.4009 7.72238 51.4 7.72238 51.3989C7.72238 51.398 7.72238 51.3971 7.72238 51.3961C7.72238 51.3951 7.72238 51.3941 7.72238 51.3932C7.72238 51.3921 7.72238 51.3912 7.72238 51.3902C7.72238 51.3892 7.72238 51.3882 7.72238 51.3873C7.72238 51.3862 7.72238 51.3853 7.72238 51.3842C7.72238 51.3833 7.72238 51.3823 7.72238 51.3814C7.72238 51.3803 7.72238 51.3794 7.72238 51.3783C7.72238 51.3774 7.72238 51.3764 7.72238 51.3755C7.72238 51.3744 7.72238 51.3735 7.72238 51.3724C7.72238 51.3715 7.72238 51.3705 7.72238 51.3695C7.72238 51.3685 7.72238 51.3676 7.72238 51.3665C7.72238 51.3656 7.72238 51.3645 7.72238 51.3636C7.72238 51.3626 7.72238 51.3617 7.72238 51.3606C7.72238 51.3597 7.72238 51.3586 7.72238 51.3577C7.72238 51.3567 7.72238 51.3558 7.72238 51.3547C7.72238 51.3536 7.72238 51.3527 7.72238 51.3517C7.72238 51.3508 7.72238 51.3497 7.72238 51.3488C7.72238 51.3477 7.72238 51.3468 7.72238 51.3458C7.72238 51.3448 7.72238 51.3438 7.72238 51.3427C7.72238 51.3418 7.72238 51.3408 7.72238 51.3398C7.72238 51.3388 7.72238 51.3379 7.72238 51.3368C7.72238 51.3358 7.72238 51.3348 7.72238 51.3338C7.72238 51.3329 7.72238 51.3318 7.72238 51.3308C7.72238 51.3298 7.72238 51.3288 7.72238 51.3279C7.72238 51.3268 7.72238 51.3259 7.72238 51.3248C7.72238 51.3238 7.72238 51.3229 7.72238 51.3218C7.72238 51.3209 7.72238 51.3198 7.72238 51.3188C7.72238 51.3179 7.72238 51.3168 7.72238 51.3159C7.72238 51.3148 7.72238 51.3138 7.72238 51.3129C7.72238 51.3118 7.72238 51.3108 7.72238 51.3098C7.72238 51.3088 7.72238 51.3079 7.72238 51.3068C7.72238 51.3058 7.72238 51.3048 7.72238 51.3038C7.72238 51.3027 7.72238 51.3018 7.72238 51.3008C7.72238 51.2997 7.72238 51.2988 7.72238 51.2977C7.72238 51.2968 7.72238 51.2958 7.72238 51.2947C7.72238 51.2938 7.72238 51.2927 7.72238 51.2917C7.72238 51.2908 7.72238 51.2897 7.72238 51.2886C7.72238 51.2877 7.72238 51.2867 7.72238 51.2856C7.72238 51.2847 7.72238 51.2836 7.72238 51.2826C7.72238 51.2817 7.72238 51.2806 7.72238 51.2795C7.72238 51.2786 7.72238 51.2776 7.72238 51.2765C7.72238 51.2756 7.72238 51.2745 7.72238 51.2735C7.72238 51.2726 7.72238 51.2715 7.72238 51.2705C7.72238 51.2695 7.72238 51.2685 7.72238 51.2674C7.72238 51.2664 7.72238 51.2655 7.72238 51.2644C7.72238 51.2633 7.72238 51.2624 7.72238 51.2614C7.72238 51.2603 7.72238 51.2594 7.72238 51.2583C7.72238 51.2573 7.72238 51.2562 7.72238 51.2553C7.72238 51.2542 7.72238 51.2532 7.72238 51.2523C7.72238 51.2512 7.72238 51.2502 7.72238 51.2491C7.72238 51.2482 7.72238 51.2471 7.72238 51.2461C7.72238 51.2451 7.72238 51.2441 7.72238 51.243C7.72238 51.242 7.72238 51.2411 7.72238 51.24C7.72238 51.2389 7.72238 51.2379 7.72238 51.237C7.72238 51.2359 7.72238 51.2348 7.72238 51.2339C7.72238 51.2329 7.72238 51.2318 7.72238 51.2308C7.72238 51.2299 7.72238 51.2288 7.72238 51.2277C7.72238 51.2267 7.72238 51.2258 7.72238 51.2247C7.72238 51.2236 7.72238 51.2226 7.72238 51.2217C7.72238 51.2206 7.72238 51.2195 7.72238 51.2185C7.72238 51.2174 7.72238 51.2165 7.72238 51.2155C7.72238 51.2144 7.72238 51.2133 7.72238 51.2124C7.72238 51.2114 7.72238 51.2103 7.72238 51.2092C7.72238 51.2083 7.72238 51.2073 7.72238 51.2062C7.72238 51.2052 7.72238 51.2041 7.72238 51.2032C7.72238 51.2021 7.72238 51.2011 7.72238 51.2C7.72238 51.1989 7.72238 51.198 7.72238 51.197C7.72238 51.1959 7.72238 51.1948 7.72238 51.1938C7.72238 51.1929 7.72238 51.1918 7.72238 51.1908C7.72238 51.1897 7.72238 51.1886 7.72238 51.1877C7.72238 51.1867 7.72238 51.1856 7.72238 51.1845C7.72238 51.1835 7.72238 51.1826 7.72238 51.1815C7.72238 51.1805 7.72238 51.1794 7.72238 51.1783C7.72238 51.1774 7.72238 51.1764 7.72238 51.1753C7.72238 51.1742 7.72238 51.1732 7.72238 51.1721C7.72238 51.1712 7.72238 51.1701 7.72238 51.1691C7.72238 51.168 7.72238 51.167 7.72238 51.1661C7.72238 51.165 7.72238 51.1639 7.72238 51.1629C7.72238 51.1618 7.72238 51.1608 7.72238 51.1598C7.72238 51.1588 7.72238 51.1577 7.72238 51.1567C7.72238 51.1556 7.72238 51.1545 7.72238 51.1535C7.72238 51.1526 7.72238 51.1515 7.72238 51.1505C7.72238 51.1494 7.72238 51.1483 7.72238 51.1473C7.72238 51.1462 7.72238 51.1453 7.72238 51.1442C7.72238 51.1432 7.72238 51.1421 7.72238 51.1411C7.72238 51.14 7.72238 51.1391 7.72238 51.138C7.72238 51.137 7.72238 51.1359 7.72238 51.1348C7.72238 51.1338 7.72238 51.1327 7.72238 51.1317C7.72238 51.1308 7.72238 51.1297 7.72238 51.1286C7.72238 51.1276 7.72238 51.1265 7.72238 51.1255C7.72238 51.1244 7.72238 51.1233 7.72238 51.1224C7.72238 51.1214 7.72238 51.1203 7.72238 51.1192C7.72238 51.1182 7.72238 51.1171 7.72238 51.1161C7.72238 51.115 7.72238 51.1139 7.72238 51.113C7.72238 51.112 7.72238 51.1109 7.72238 51.1098C7.72238 51.1088 7.72238 51.1077 7.72238 51.1067C7.72238 51.1056 7.72238 51.1045 7.72238 51.1036C7.72238 51.1026 7.72238 51.1015 7.72238 51.1005C7.72238 51.0994 7.72238 51.0983 7.72238 51.0973C7.72238 51.0962 7.72238 51.0951 7.72238 51.0941C7.72238 51.0932 7.72238 51.0921 7.72238 51.0911C7.72238 51.09 7.72238 51.0889 7.72238 51.0879C7.72238 51.0868 7.72238 51.0858 7.72238 51.0847C7.72238 51.0836 7.72238 51.0826 7.72238 51.0815C7.72238 51.0806 7.72238 51.0795 7.72238 51.0785C7.72238 51.0774 7.72238 51.0764 7.72238 51.0753C7.72238 51.0742 7.72238 51.0732 7.72238 51.0721C7.72238 51.0711 7.72238 51.07 7.72238 51.0689C7.72238 51.0679 7.72238 51.0668 7.72238 51.0659C7.72238 51.0648 7.72238 51.0638 7.72238 51.0627C7.72238 51.0617 7.72238 51.0606 7.72238 51.0595C7.72238 51.0585 7.72238 51.0574 7.72238 51.0564C7.72238 51.0553 7.72238 51.0542 7.72238 51.0532C7.72238 51.0521 7.72238 51.0511 7.72238 51.05C7.72238 51.0489 7.72238 51.048 7.72238 51.047C7.72238 51.0459 7.72238 51.0448 7.72238 51.0438C7.72238 51.0427 7.72238 51.0417 7.72238 51.0406C7.72238 51.0395 7.72238 51.0385 7.72238 51.0374C7.72238 51.0364 7.72238 51.0353 7.72238 51.0342C7.72238 51.0332 7.72238 51.0321 7.72238 51.0311C7.72238 51.03 7.72238 51.0289 7.72238 51.0279C7.72238 51.0268 7.72238 51.0258 7.72238 51.0247C7.72238 51.0236 7.72238 51.0226 7.72238 51.0215C7.72238 51.0206 7.72238 51.0195 7.72238 51.0185C7.72238 51.0174 7.72238 51.0164 7.72238 51.0153C7.72238 51.0142 7.72238 51.0132 7.72238 51.0121C7.72238 51.0111 7.72238 51.01 7.72238 51.0089C7.72238 51.0079 7.72238 51.0068 7.72238 51.0058C7.72238 51.0047 7.72238 51.0036 7.72238 51.0026C7.72238 51.0015 7.72238 51.0005 7.72238 50.9994C7.72238 50.9983 7.72238 50.9973 7.72238 50.9962C7.72238 50.9952 7.72238 50.9941 7.72238 50.993C7.72238 50.992 7.72238 50.9909 7.72238 50.9898C7.72238 50.9888 7.72238 50.9877 7.72238 50.9867C7.72238 50.9856 7.72238 50.9845 7.72238 50.9835C7.72238 50.9824 7.72238 50.9814 7.72238 50.9803C7.72238 50.9792 7.72238 50.9782 7.72238 50.9771C7.72238 50.9761 7.72238 50.975 7.72238 50.9739C7.72238 50.9729 7.72238 50.9718 7.72238 50.9708C7.72238 50.9697 7.72238 50.9686 7.72238 50.9676C7.72238 50.9665 7.72238 50.9655 7.72238 50.9644C7.72238 50.9633 7.72238 50.9623 7.72238 50.9612C7.72238 50.9602 7.72238 50.9591 7.72238 50.958C7.72238 50.957 7.72238 50.9559 7.72238 50.9548C7.72238 50.9538 7.72238 50.9527 7.72238 50.9517C7.72238 50.9506 7.72238 50.9495 7.72238 50.9485C7.72238 50.9474 7.72238 50.9464 7.72238 50.9453C7.72238 50.9442 7.72238 50.9432 7.72238 50.9421C7.72238 50.9411 7.72238 50.94 7.72238 50.9389C7.72238 50.9379 7.72238 50.9368 7.72238 50.9358C7.72238 50.9347 7.72238 50.9336 7.72238 50.9326C7.72238 50.9315 7.72238 50.9305 7.72238 50.9294C7.72238 50.9283 7.72238 50.9273 7.72238 50.9262C7.72238 50.925 7.72238 50.9239 7.72238 50.9229C7.72238 50.9218 7.72238 50.9208 7.72238 50.9197C7.72238 50.9186 7.72238 50.9176 7.72238 50.9165C7.72238 50.9155 7.72238 50.9144 7.72238 50.9133C7.72238 50.9123 7.72238 50.9112 7.72238 50.9102C7.72238 50.9091 7.72238 50.908 7.72238 50.907C7.72238 50.9059 7.72238 50.9048 7.72238 50.9038C7.72238 50.9027 7.72238 50.9017 7.72238 50.9006C7.72238 50.8995 7.72238 50.8985 7.72238 50.8974C7.72238 50.8964 7.72238 50.8953 7.72238 50.8942C7.72238 50.8932 7.72238 50.892 7.72238 50.8909C7.72238 50.8898 7.72238 50.8888 7.72238 50.8877C7.72238 50.8867 7.72238 50.8856 7.72238 50.8845C7.72238 50.8835 7.72238 50.8824 7.72238 50.8814C7.72238 50.8803 7.72238 50.8792 7.72238 50.8782C7.72238 50.8771 7.72238 50.8761 7.72238 50.875C7.72238 50.8739 7.72238 50.8729 7.72238 50.8718C7.72238 50.8708 7.72238 50.8697 7.72238 50.8686C7.72238 50.8676 7.72238 50.8664 7.72238 50.8653C7.72238 50.8642 7.72238 50.8632 7.72238 50.8621C7.72238 50.8611 7.72238 50.86 7.72238 50.8589C7.72238 50.8579 7.72238 50.8568 7.72238 50.8558C7.72238 50.8547 7.72238 50.8536 7.72238 50.8526C7.72238 50.8515 7.72238 50.8505 7.72238 50.8494C7.72238 50.8483 7.72238 50.8473 7.72238 50.8462C7.72238 50.8451 7.72238 50.8439 7.72238 50.8429C7.72238 50.8418 7.72238 50.8408 7.72238 50.8397C7.72238 50.8386 7.72238 50.8376 7.72238 50.8365C7.72238 50.8355 7.72238 50.8344 7.72238 50.8333C7.72238 50.8323 7.72238 50.8312 7.72238 50.8302C7.72238 50.8291 7.72238 50.828 7.72238 50.827C7.72238 50.8259 7.72238 50.8247 7.72238 50.8236C7.72238 50.8226 7.72238 50.8215 7.72238 50.8205C7.72238 50.8194 7.72238 50.8183 7.72238 50.8173C7.72238 50.8162 7.72238 50.8152 7.72238 50.8141C7.72238 50.813 7.72238 50.812 7.72238 50.8109C7.72238 50.8098 7.72238 50.8088 7.72238 50.8077C7.72238 50.8067 7.72238 50.8056 7.72238 50.8044C7.72238 50.8033 7.72238 50.8023 7.72238 50.8012C7.72238 50.8002 7.72238 50.7991 7.72238 50.798C7.72238 50.797 7.72238 50.7959 7.72238 50.7948C7.72238 50.7938 7.72238 50.7927 7.72238 50.7917C7.72238 50.7906 7.72238 50.7895 7.72238 50.7885C7.72238 50.7874 7.72238 50.7864 7.72238 50.7852C7.72238 50.7841 7.72238 50.783 7.72238 50.782C7.72238 50.7809 7.72238 50.7798 7.72238 50.7788C7.72238 50.7777 7.72238 50.7767 7.72238 50.7756C7.72238 50.7745 7.72238 50.7735 7.72238 50.7724C7.72238 50.7714 7.72238 50.7703 7.72238 50.7692C7.72238 50.7682 7.72238 50.767 7.72238 50.7659C7.72238 50.7648 7.72238 50.7638 7.72238 50.7627C7.72238 50.7617 7.72238 50.7606 7.72238 50.7595C7.72238 50.7585 7.72238 50.7574 7.72238 50.7564C7.72238 50.7553 7.72238 50.7542 7.72238 50.7532C7.72238 50.7521 7.72238 50.7511 7.72238 50.75C7.72238 50.7489 7.72238 50.7477 7.72238 50.7467C7.72238 50.7456 7.72238 50.7445 7.72238 50.7435C7.72238 50.7424 7.72238 50.7414 7.72238 50.7403C7.72238 50.7392 7.72238 50.7382 7.72238 50.7371C7.72238 50.7361 7.72238 50.735 7.72238 50.7339C7.72238 50.7329 7.72238 50.7318 7.72238 50.7308C7.72238 50.7297 7.72238 50.7286 7.72238 50.7274C7.72238 50.7264 7.72238 50.7253 7.72238 50.7242C7.72238 50.7232 7.72238 50.7221 7.72238 50.7211C7.72238 50.72 7.72238 50.7189 7.72238 50.7179C7.72238 50.7168 7.72238 50.7158 7.72238 50.7147C7.72238 50.7136 7.72238 50.7126 7.72238 50.7115C7.72238 50.7105 7.72238 50.7094 7.72238 50.7083C7.72238 50.7073 7.72238 50.7061 7.72238 50.705C7.72238 50.7039 7.72238 50.7029 7.72238 50.7018C7.72238 50.7008 7.72238 50.6997 7.72238 50.6986C7.72238 50.6976 7.72238 50.6965 7.72238 50.6955C7.72238 50.6944 7.72238 50.6933 7.72238 50.6923C7.72238 50.6912 7.72238 50.6902 7.72238 50.6891C7.72238 50.688 7.72238 50.687 7.72238 50.6859C7.72238 50.6849 7.72238 50.6838 7.72238 50.6827C7.72238 50.6815 7.72238 50.6805 7.72238 50.6794C7.72238 50.6783 7.72238 50.6773 7.72238 50.6762C7.72238 50.6752 7.72238 50.6741 7.72238 50.673C7.72238 50.672 7.72238 50.6709 7.72238 50.6698C7.72238 50.6688 7.72238 50.6677 7.72238 50.6667C7.72238 50.6656 7.72238 50.6645 7.72238 50.6635C7.72238 50.6624 7.72238 50.6614 7.72238 50.6603C7.72238 50.6592 7.72238 50.6582 7.72238 50.6571C7.72238 50.6561 7.72238 50.655 7.72238 50.6538C7.72238 50.6527 7.72238 50.6517 7.72238 50.6506C7.72238 50.6495 7.72238 50.6485 7.72238 50.6474C7.72238 50.6464 7.72238 50.6453 7.72238 50.6442C7.72238 50.6432 7.72238 50.6421 7.72238 50.6411C7.72238 50.64 7.72238 50.6389 7.72238 50.6379C7.72238 50.6368 7.72238 50.6358 7.72238 50.6347C7.72238 50.6336 7.72238 50.6326 7.72238 50.6315C7.72238 50.6305 7.72238 50.6294 7.72238 50.6283C7.72238 50.6273 7.72238 50.6262 7.72238 50.6252C7.72238 50.6241 7.72238 50.623 7.72238 50.622C7.72238 50.6209 7.72238 50.6199 7.72238 50.6188C7.72238 50.6177 7.72238 50.6167 7.72238 50.6156C7.72238 50.6145 7.72238 50.6135 7.72238 50.6124C7.72238 50.6114 7.72238 50.6103 7.72238 50.6092C7.72238 50.6082 7.72238 50.6071 7.72238 50.6061C7.72238 50.605 7.72238 50.6039 7.72238 50.6029C7.72238 50.6017 7.72238 50.6008 7.72238 50.5995C7.72238 50.5985 7.72238 50.5974 7.72238 50.5964C7.72238 50.5953 7.72238 50.5942 7.72238 50.5932C7.72238 50.5921 7.72238 50.5911 7.72238 50.59C7.72238 50.5889 7.72238 50.5879 7.72238 50.5868C7.72238 50.5858 7.72238 50.5847 7.72238 50.5836C7.72238 50.5826 7.72238 50.5815 7.72238 50.5805C7.72238 50.5794 7.72238 50.5783 7.72238 50.5773C7.72238 50.5762 7.72238 50.5753 7.72238 50.5742C7.72238 50.5732 7.72238 50.5721 7.72238 50.5711C7.72238 50.57 7.72238 50.5689 7.72238 50.5679C7.72238 50.5668 7.72238 50.5658 7.72238 50.5647C7.72238 50.5636 7.72238 50.5626 7.72238 50.5615C7.72238 50.5605 7.72238 50.5594 7.72238 50.5583C7.72238 50.5573 7.72238 50.5562 7.72238 50.5552C7.72238 50.5541 7.72238 50.553 7.72238 50.552C7.72238 50.5509 7.72238 50.5499 7.72238 50.5488C7.72238 50.5477 7.72238 50.5467 7.72238 50.5456C7.72238 50.5445 7.72238 50.5435 7.72238 50.5424C7.72238 50.5414 7.72238 50.5403 7.72238 50.5392C7.72238 50.5382 7.72238 50.5371 7.72238 50.5361C7.72238 50.535 7.72238 50.5339 7.72238 50.5329C7.72238 50.5318 7.72238 50.5308 7.72238 50.5297C7.72238 50.5288 7.72238 50.5277 7.72238 50.5267C7.72238 50.5256 7.72238 50.5245 7.72238 50.5235C7.72238 50.5224 7.72238 50.5214 7.72238 50.5203C7.72238 50.5192 7.72238 50.5182 7.72238 50.5171C7.72238 50.5161 7.72238 50.515 7.72238 50.5139C7.72238 50.5129 7.72238 50.5118 7.72238 50.5108C7.72238 50.5097 7.72238 50.5086 7.72238 50.5077C7.72238 50.5067 7.72238 50.5056 7.72238 50.5045C7.72238 50.5035 7.72238 50.5024 7.72238 50.5014C7.72238 50.5003 7.72238 50.4992 7.72238 50.4982C7.72238 50.4971 7.72238 50.4961 7.72238 50.495C7.72238 50.4939 7.72238 50.4929 7.72238 50.4918C7.72238 50.4909 7.72238 50.4899 7.72238 50.4888C7.72238 50.4877 7.72238 50.4867 7.72238 50.4856C7.72238 50.4845 7.72238 50.4835 7.72238 50.4824C7.72238 50.4814 7.72238 50.4803 7.72238 50.4792C7.72238 50.4782 7.72238 50.4773 7.72238 50.4762C7.72238 50.4752 7.72238 50.4741 7.72238 50.473C7.72238 50.472 7.72238 50.4709 7.72238 50.4698C7.72238 50.4688 7.72238 50.4677 7.72238 50.4667C7.72238 50.4658 7.72238 50.4647 7.72238 50.4636C7.72238 50.4626 7.72238 50.4615 7.72238 50.4605C7.72238 50.4594 7.72238 50.4583 7.72238 50.4573C7.72238 50.4562 7.72238 50.4553 7.72238 50.4542C7.72238 50.4532 7.72238 50.4521 7.72238 50.4511C7.72238 50.45 7.72238 50.4489 7.72238 50.4479C7.72238 50.4468 7.72238 50.4459 7.72238 50.4448C7.72238 50.4438 7.72238 50.4427 7.72238 50.4417C7.72238 50.4406 7.72238 50.4395 7.72238 50.4385C7.72238 50.4374 7.72238 50.4365 7.72238 50.4355C7.72238 50.4344 7.72238 50.4333 7.72238 50.4323C7.72238 50.4312 7.72238 50.4301 7.72238 50.4292C7.72238 50.4282 7.72238 50.4271 7.72238 50.4261C7.72238 50.425 7.72238 50.4239 7.72238 50.4229C7.72238 50.422 7.72238 50.4209 7.72238 50.4198C7.72238 50.4188 7.72238 50.4177 7.72238 50.4167C7.72238 50.4156 7.72238 50.4147 7.72238 50.4136C7.72238 50.4126 7.72238 50.4115 7.72238 50.4105C7.72238 50.4094 7.72238 50.4083 7.72238 50.4074C7.72238 50.4064 7.72238 50.4053 7.72238 50.4042C7.72238 50.4032 7.72238 50.4021 7.72238 50.4012C7.72238 50.4002 7.72238 50.3991 7.72238 50.398C7.72238 50.397 7.72238 50.3959 7.72238 50.395C7.72238 50.3939 7.72238 50.3929 7.72238 50.3918C7.72238 50.3908 7.72238 50.3897 7.72238 50.3888C7.72238 50.3877 7.72238 50.3867 7.72238 50.3856C7.72238 50.3845 7.72238 50.3836 7.72238 50.3826C7.72238 50.3815 7.72238 50.3805 7.72238 50.3794C7.72238 50.3783 7.72238 50.3774 7.72238 50.3764C7.72238 50.3753 7.72238 50.3742 7.72238 50.3732C7.72238 50.3723 7.72238 50.3712 7.72238 50.3702C7.72238 50.3691 7.72238 50.368 7.72238 50.3671C7.72238 50.3661 7.72238 50.365 7.72238 50.3639C7.72238 50.363 7.72238 50.362 7.72238 50.3609C7.72238 50.3598 7.72238 50.3588 7.72238 50.3579C7.72238 50.3568 7.72238 50.3558 7.72238 50.3547C7.72238 50.3536 7.72238 50.3527 7.72238 50.3517C7.72238 50.3506 7.72238 50.3495 7.72238 50.3486C7.72238 50.3476 7.72238 50.3465 7.72238 50.3455C7.72238 50.3445 7.72238 50.3435 7.72238 50.3424C7.72238 50.3414 7.72238 50.3405 7.72238 50.3394C7.72238 50.3383 7.72238 50.3373 7.72238 50.3364C7.72238 50.3353 7.72238 50.3342 7.72238 50.3332C7.72238 50.3323 7.72238 50.3312 7.72238 50.3302C7.72238 50.3291 7.72238 50.3282 7.72238 50.3271C7.72238 50.3261 7.72238 50.325 7.72238 50.3241C7.72238 50.323 7.72238 50.322 7.72238 50.3209C7.72238 50.32 7.72238 50.3189 7.72238 50.3179C7.72238 50.317 7.72238 50.3159 7.72238 50.3149C7.72238 50.3138 7.72238 50.3129 7.72238 50.3118C7.72238 50.3108 7.72238 50.3098 7.72238 50.3088C7.72238 50.3077 7.72238 50.3067 7.72238 50.3058C7.72238 50.3047 7.72238 50.3036 7.72238 50.3027C7.72238 50.3017 7.72238 50.3006 7.72238 50.2995C7.72238 50.2986 7.72238 50.2976 7.72238 50.2965C7.72238 50.2956 7.72238 50.2945 7.72238 50.2935C7.72238 50.2926 7.72238 50.2915 7.72238 50.2905C7.72238 50.2895 7.72238 50.2885 7.72238 50.2874C7.72238 50.2865 7.72238 50.2855 7.72238 50.2844C7.72238 50.2835 7.72238 50.2824 7.72238 50.2814C7.72238 50.2805 7.72238 50.2794 7.72238 50.2783C7.72238 50.2774 7.72238 50.2764 7.72238 50.2753C7.72238 50.2744 7.72238 50.2733 7.72238 50.2723C7.72238 50.2714 7.72238 50.2703 7.72238 50.2692C7.72238 50.2683 7.72238 50.2673 7.72238 50.2662C7.72238 50.2653 7.72238 50.2642 7.72238 50.2632C7.72238 50.2623 7.72238 50.2612 7.72238 50.2603C7.72238 50.2592 7.72238 50.2582 7.72238 50.2573C7.72238 50.2562 7.72238 50.2552 7.72238 50.2542C7.72238 50.2532 7.72238 50.2523 7.72238 50.2512C7.72238 50.2501 7.72238 50.2492 7.72238 50.2482C7.72238 50.2471 7.72238 50.2462 7.72238 50.2452C7.72238 50.2442 7.72238 50.2432 7.72238 50.2421C7.72238 50.2412 7.72238 50.2402 7.72238 50.2392C7.72238 50.2382 7.72238 50.2371 7.72238 50.2362C7.72238 50.2351 7.72238 50.2342 7.72238 50.2332C7.72238 50.2323 7.72238 50.2312 7.72238 50.2302C7.72238 50.2292 7.72238 50.2282 7.72238 50.2273C7.72238 50.2262 7.72238 50.2251 7.72238 50.2242C7.72238 50.2232 7.72238 50.2223 7.72238 50.2212C7.72238 50.2203 7.72238 50.2192 7.72238 50.2183C7.72238 50.2173 7.72238 50.2162 7.72238 50.2153C7.72238 50.2142 7.72238 50.2133 7.72238 50.2123C7.72238 50.2114 7.72238 50.2103 7.72238 50.2094C7.72238 50.2083 7.72238 50.2073 7.72238 50.2064C7.72238 50.2053 7.72238 50.2044 7.72238 50.2033C7.72238 50.2024 7.72238 50.2014 7.72238 50.2005C7.72238 50.1994 7.72238 50.1985 7.72238 50.1974C7.72238 50.1965 7.72238 50.1955 7.72238 50.1945C7.72238 50.1935 7.72238 50.1926 7.72238 50.1915C7.72238 50.1906 7.72238 50.1895 7.72238 50.1886C7.72238 50.1876 7.72238 50.1867 7.72238 50.1856C7.72238 50.1847 7.72238 50.1836 7.72238 50.1827C7.72238 50.1817 7.72238 50.1808 7.72238 50.1797C7.72238 50.1788 7.72238 50.1777 7.72238 50.1768C7.72238 50.1758 7.72238 50.1748 7.72238 50.1738C7.72238 50.1729 7.72238 50.1718 7.72238 50.1709C7.72238 50.1698 7.72238 50.1689 7.72238 50.168C7.72238 50.167 7.72238 50.1661 7.72238 50.165C7.72238 50.1641 7.72238 50.163 7.72238 50.1621C7.72238 50.1611 7.72238 50.1602 7.72238 50.1591C7.72238 50.1582 7.72238 50.1573 7.72238 50.1562C7.72238 50.1553 7.72238 50.1542 7.72238 50.1533C7.72238 50.1523 7.72238 50.1514 7.72238 50.1505C7.72238 50.1494 7.72238 50.1485 7.72238 50.1474C7.72238 50.1465 7.72238 50.1456 7.72238 50.1445C7.72238 50.1436 7.72238 50.1426 7.72238 50.1417C7.72238 50.1406 7.72238 50.1397 7.72238 50.1388C7.72238 50.1377 7.72238 50.1368 7.72238 50.1358C7.72238 50.1348 7.72238 50.1339 7.72238 50.1329C7.72238 50.132 7.72238 50.1311 7.72238 50.13C7.72238 50.1291 7.72238 50.128 7.72238 50.1271C7.72238 50.1262 7.72238 50.1252 7.72238 50.1242C7.72238 50.1233 7.72238 50.1223 7.72238 50.1214C7.72238 50.1203 7.72238 50.1194 7.72238 50.1185C7.72238 50.1174 7.72238 50.1165 7.72238 50.1156C7.72238 50.1145 7.72238 50.1136 7.72238 50.1127C7.72238 50.1117 7.72238 50.1108 7.72238 50.1098C7.72238 50.1088 7.72238 50.1079 7.72238 50.107C7.72238 50.1059 7.72238 50.105 7.72238 50.1041C7.72238 50.103 7.72238 50.1021 7.72238 50.1012C7.72238 50.1003 7.72238 50.0992 7.72238 50.0983C7.72238 50.0974 7.72238 50.0964 7.72238 50.0955C7.72238 50.0945 7.72238 50.0935 7.72238 50.0926C7.72238 50.0917 7.72238 50.0908 7.72238 50.0897C7.72238 50.0888 7.72238 50.0879 7.72238 50.0868C7.72238 50.0859 7.72238 50.085 7.72238 50.0841C7.72238 50.083 7.72238 50.0821 7.72238 50.0812C7.72238 50.0803 7.72238 50.0792 7.72238 50.0783C7.72238 50.0774 7.72238 50.0764 7.72238 50.0755C7.72238 50.0745 7.72238 50.0736 7.72238 50.0727C7.72238 50.0717 7.72238 50.0708 7.72238 50.0698C7.72238 50.0689 7.72238 50.0679 7.72238 50.067C7.72238 50.0661 7.72238 50.0652 7.72238 50.0641C7.72238 50.0632 7.72238 50.0623 7.72238 50.0614C7.72238 50.0605 7.72238 50.0594 7.72238 50.0585C7.72238 50.0576 7.72238 50.0567 7.72238 50.0558C7.72238 50.0547 7.72238 50.0538 7.72238 50.0529C7.72238 50.052 7.72238 50.0511 7.72238 50.05C7.72238 50.0491 7.72238 50.0482 7.72238 50.0473C7.72238 50.0464 7.72238 50.0453 7.72238 50.0444C7.72238 50.0435 7.72238 50.0426 7.72238 50.0417C7.72238 50.0408 7.72238 50.0397 7.72238 50.0388C7.72238 50.0379 7.72238 50.037 7.72238 50.0361C7.72238 50.0352 7.72238 50.0342 7.72238 50.0332C7.72238 50.0323 7.72238 50.0314 7.72238 50.0305C7.72238 50.0295 7.72238 50.0286 7.72238 50.0277C7.72238 50.0268 7.72238 50.0258 7.72238 50.0248C7.72238 50.0239 7.72238 50.023 7.72238 50.0221C7.72238 50.0212 7.72238 50.0203 7.72238 50.0194C7.72238 50.0183 7.72238 50.0174 7.72238 50.0165C7.72238 50.0156 7.72238 50.0147 7.72238 50.0138C7.72238 50.0129 7.72238 50.012 7.72238 50.0111C7.72238 50.0102 7.72238 50.0092 7.72238 50.0083C7.72238 50.0073 7.72238 50.0064 7.72238 50.0055C7.72238 50.0045 7.72238 50.0036 7.72238 50.0027C7.72238 50.0018 7.72238 50.0009 7.72238 50H4.69208C4.69208 50.0009 4.69208 50.0018 4.69208 50.0027C4.69208 50.0036 4.69208 50.0045 4.69208 50.0055C4.69208 50.0064 4.69208 50.0073 4.69208 50.0083C4.69208 50.0092 4.69208 50.0102 4.69208 50.0111C4.69208 50.012 4.69208 50.0129 4.69208 50.0138C4.69208 50.0147 4.69208 50.0156 4.69208 50.0165C4.69208 50.0174 4.69208 50.0183 4.69208 50.0194C4.69208 50.0203 4.69208 50.0212 4.69208 50.0221C4.69208 50.023 4.69208 50.0239 4.69208 50.0248C4.69208 50.0258 4.69208 50.0268 4.69208 50.0277C4.69208 50.0286 4.69208 50.0295 4.69208 50.0305C4.69208 50.0314 4.69208 50.0323 4.69208 50.0332C4.69208 50.0342 4.69208 50.0352 4.69208 50.0361C4.69208 50.037 4.69208 50.0379 4.69208 50.0388C4.69208 50.0397 4.69208 50.0408 4.69208 50.0417C4.69208 50.0426 4.69208 50.0435 4.69208 50.0444C4.69208 50.0453 4.69208 50.0464 4.69208 50.0473C4.69208 50.0482 4.69208 50.0491 4.69208 50.05C4.69208 50.0511 4.69208 50.052 4.69208 50.0529C4.69208 50.0538 4.69208 50.0547 4.69208 50.0558C4.69208 50.0567 4.69208 50.0576 4.69208 50.0585C4.69208 50.0594 4.69208 50.0605 4.69208 50.0614C4.69208 50.0623 4.69208 50.0632 4.69208 50.0641C4.69208 50.0652 4.69208 50.0661 4.69208 50.067C4.69208 50.0679 4.69208 50.0689 4.69208 50.0698C4.69208 50.0708 4.69208 50.0717 4.69208 50.0727C4.69208 50.0736 4.69208 50.0745 4.69208 50.0755C4.69208 50.0764 4.69208 50.0774 4.69208 50.0783C4.69208 50.0792 4.69208 50.0803 4.69208 50.0812C4.69208 50.0821 4.69208 50.083 4.69208 50.0841C4.69208 50.085 4.69208 50.0859 4.69208 50.0868C4.69208 50.0879 4.69208 50.0888 4.69208 50.0897C4.69208 50.0908 4.69208 50.0917 4.69208 50.0926C4.69208 50.0935 4.69208 50.0945 4.69208 50.0955C4.69208 50.0964 4.69208 50.0974 4.69208 50.0983C4.69208 50.0992 4.69208 50.1003 4.69208 50.1012C4.69208 50.1021 4.69208 50.103 4.69208 50.1041C4.69208 50.105 4.69208 50.1059 4.69208 50.107C4.69208 50.1079 4.69208 50.1088 4.69208 50.1098C4.69208 50.1108 4.69208 50.1117 4.69208 50.1127C4.69208 50.1136 4.69208 50.1145 4.69208 50.1156C4.69208 50.1165 4.69208 50.1174 4.69208 50.1185C4.69208 50.1194 4.69208 50.1203 4.69208 50.1214C4.69208 50.1223 4.69208 50.1233 4.69208 50.1242C4.69208 50.1252 4.69208 50.1262 4.69208 50.1271C4.69208 50.128 4.69208 50.1291 4.69208 50.13C4.69208 50.1311 4.69208 50.132 4.69208 50.1329C4.69208 50.1339 4.69208 50.1348 4.69208 50.1358C4.69208 50.1368 4.69208 50.1377 4.69208 50.1388C4.69208 50.1397 4.69208 50.1406 4.69208 50.1417C4.69208 50.1426 4.69208 50.1436 4.69208 50.1445C4.69208 50.1456 4.69208 50.1465 4.69208 50.1474C4.69208 50.1485 4.69208 50.1494 4.69208 50.1505C4.69208 50.1514 4.69208 50.1523 4.69208 50.1533C4.69208 50.1542 4.69208 50.1553 4.69208 50.1562C4.69208 50.1573 4.69208 50.1582 4.69208 50.1591C4.69208 50.1602 4.69208 50.1611 4.69208 50.1621C4.69208 50.163 4.69208 50.1641 4.69208 50.165C4.69208 50.1661 4.69208 50.167 4.69208 50.168C4.69208 50.1689 4.69208 50.1698 4.69208 50.1709C4.69208 50.1718 4.69208 50.1729 4.69208 50.1738C4.69208 50.1748 4.69208 50.1758 4.69208 50.1768C4.69208 50.1777 4.69208 50.1788 4.69208 50.1797C4.69208 50.1808 4.69208 50.1817 4.69208 50.1827C4.69208 50.1836 4.69208 50.1847 4.69208 50.1856C4.69208 50.1867 4.69208 50.1876 4.69208 50.1886C4.69208 50.1895 4.69208 50.1906 4.69208 50.1915C4.69208 50.1926 4.69208 50.1935 4.69208 50.1945C4.69208 50.1955 4.69208 50.1965 4.69208 50.1974C4.69208 50.1985 4.69208 50.1994 4.69208 50.2005C4.69208 50.2014 4.69208 50.2024 4.69208 50.2033C4.69208 50.2044 4.69208 50.2053 4.69208 50.2064C4.69208 50.2073 4.69208 50.2083 4.69208 50.2094C4.69208 50.2103 4.69208 50.2114 4.69208 50.2123C4.69208 50.2133 4.69208 50.2142 4.69208 50.2153C4.69208 50.2162 4.69208 50.2173 4.69208 50.2183C4.69208 50.2192 4.69208 50.2203 4.69208 50.2212C4.69208 50.2223 4.69208 50.2232 4.69208 50.2242C4.69208 50.2251 4.69208 50.2262 4.69208 50.2273C4.69208 50.2282 4.69208 50.2292 4.69208 50.2302C4.69208 50.2312 4.69208 50.2323 4.69208 50.2332C4.69208 50.2342 4.69208 50.2351 4.69208 50.2362C4.69208 50.2371 4.69208 50.2382 4.69208 50.2392C4.69208 50.2402 4.69208 50.2412 4.69208 50.2421C4.69208 50.2432 4.69208 50.2442 4.69208 50.2452C4.69208 50.2462 4.69208 50.2471 4.69208 50.2482C4.69208 50.2492 4.69208 50.2501 4.69208 50.2512C4.69208 50.2523 4.69208 50.2532 4.69208 50.2542C4.69208 50.2552 4.69208 50.2562 4.69208 50.2573C4.69208 50.2582 4.69208 50.2592 4.69208 50.2603C4.69208 50.2612 4.69208 50.2623 4.69208 50.2632C4.69208 50.2642 4.69208 50.2653 4.69208 50.2662C4.69208 50.2673 4.69208 50.2683 4.69208 50.2692C4.69208 50.2703 4.69208 50.2714 4.69208 50.2723C4.69208 50.2733 4.69208 50.2744 4.69208 50.2753C4.69208 50.2764 4.69208 50.2774 4.69208 50.2783C4.69208 50.2794 4.69208 50.2805 4.69208 50.2814C4.69208 50.2824 4.69208 50.2835 4.69208 50.2844C4.69208 50.2855 4.69208 50.2865 4.69208 50.2874C4.69208 50.2885 4.69208 50.2895 4.69208 50.2905C4.69208 50.2915 4.69208 50.2926 4.69208 50.2935C4.69208 50.2945 4.69208 50.2956 4.69208 50.2965C4.69208 50.2976 4.69208 50.2986 4.69208 50.2995C4.69208 50.3006 4.69208 50.3017 4.69208 50.3027C4.69208 50.3036 4.69208 50.3047 4.69208 50.3058C4.69208 50.3067 4.69208 50.3077 4.69208 50.3088C4.69208 50.3098 4.69208 50.3108 4.69208 50.3118C4.69208 50.3129 4.69208 50.3138 4.69208 50.3149C4.69208 50.3159 4.69208 50.317 4.69208 50.3179C4.69208 50.3189 4.69208 50.32 4.69208 50.3209C4.69208 50.322 4.69208 50.323 4.69208 50.3241C4.69208 50.325 4.69208 50.3261 4.69208 50.3271C4.69208 50.3282 4.69208 50.3291 4.69208 50.3302C4.69208 50.3312 4.69208 50.3323 4.69208 50.3332C4.69208 50.3342 4.69208 50.3353 4.69208 50.3364C4.69208 50.3373 4.69208 50.3383 4.69208 50.3394C4.69208 50.3405 4.69208 50.3414 4.69208 50.3424C4.69208 50.3435 4.69208 50.3445 4.69208 50.3455C4.69208 50.3465 4.69208 50.3476 4.69208 50.3486C4.69208 50.3495 4.69208 50.3506 4.69208 50.3517C4.69208 50.3527 4.69208 50.3536 4.69208 50.3547C4.69208 50.3558 4.69208 50.3568 4.69208 50.3579C4.69208 50.3588 4.69208 50.3598 4.69208 50.3609C4.69208 50.362 4.69208 50.363 4.69208 50.3639C4.69208 50.365 4.69208 50.3661 4.69208 50.3671C4.69208 50.368 4.69208 50.3691 4.69208 50.3702C4.69208 50.3712 4.69208 50.3723 4.69208 50.3732C4.69208 50.3742 4.69208 50.3753 4.69208 50.3764C4.69208 50.3774 4.69208 50.3783 4.69208 50.3794C4.69208 50.3805 4.69208 50.3815 4.69208 50.3826C4.69208 50.3836 4.69208 50.3845 4.69208 50.3856C4.69208 50.3867 4.69208 50.3877 4.69208 50.3888C4.69208 50.3897 4.69208 50.3908 4.69208 50.3918C4.69208 50.3929 4.69208 50.3939 4.69208 50.395C4.69208 50.3959 4.69208 50.397 4.69208 50.398C4.69208 50.3991 4.69208 50.4002 4.69208 50.4012C4.69208 50.4021 4.69208 50.4032 4.69208 50.4042C4.69208 50.4053 4.69208 50.4064 4.69208 50.4074C4.69208 50.4083 4.69208 50.4094 4.69208 50.4105C4.69208 50.4115 4.69208 50.4126 4.69208 50.4136C4.69208 50.4147 4.69208 50.4156 4.69208 50.4167C4.69208 50.4177 4.69208 50.4188 4.69208 50.4198C4.69208 50.4209 4.69208 50.422 4.69208 50.4229C4.69208 50.4239 4.69208 50.425 4.69208 50.4261C4.69208 50.4271 4.69208 50.4282 4.69208 50.4292C4.69208 50.4301 4.69208 50.4312 4.69208 50.4323C4.69208 50.4333 4.69208 50.4344 4.69208 50.4355C4.69208 50.4365 4.69208 50.4374 4.69208 50.4385C4.69208 50.4395 4.69208 50.4406 4.69208 50.4417C4.69208 50.4427 4.69208 50.4438 4.69208 50.4448C4.69208 50.4459 4.69208 50.4468 4.69208 50.4479C4.69208 50.4489 4.69208 50.45 4.69208 50.4511C4.69208 50.4521 4.69208 50.4532 4.69208 50.4542C4.69208 50.4553 4.69208 50.4562 4.69208 50.4573C4.69208 50.4583 4.69208 50.4594 4.69208 50.4605C4.69208 50.4615 4.69208 50.4626 4.69208 50.4636C4.69208 50.4647 4.69208 50.4658 4.69208 50.4667C4.69208 50.4677 4.69208 50.4688 4.69208 50.4698C4.69208 50.4709 4.69208 50.472 4.69208 50.473C4.69208 50.4741 4.69208 50.4752 4.69208 50.4762C4.69208 50.4773 4.69208 50.4782 4.69208 50.4792C4.69208 50.4803 4.69208 50.4814 4.69208 50.4824C4.69208 50.4835 4.69208 50.4845 4.69208 50.4856C4.69208 50.4867 4.69208 50.4877 4.69208 50.4888C4.69208 50.4899 4.69208 50.4909 4.69208 50.4918C4.69208 50.4929 4.69208 50.4939 4.69208 50.495C4.69208 50.4961 4.69208 50.4971 4.69208 50.4982C4.69208 50.4992 4.69208 50.5003 4.69208 50.5014C4.69208 50.5024 4.69208 50.5035 4.69208 50.5045C4.69208 50.5056 4.69208 50.5067 4.69208 50.5077C4.69208 50.5086 4.69208 50.5097 4.69208 50.5108C4.69208 50.5118 4.69208 50.5129 4.69208 50.5139C4.69208 50.515 4.69208 50.5161 4.69208 50.5171C4.69208 50.5182 4.69208 50.5192 4.69208 50.5203C4.69208 50.5214 4.69208 50.5224 4.69208 50.5235C4.69208 50.5245 4.69208 50.5256 4.69208 50.5267C4.69208 50.5277 4.69208 50.5288 4.69208 50.5297C4.69208 50.5308 4.69208 50.5318 4.69208 50.5329C4.69208 50.5339 4.69208 50.535 4.69208 50.5361C4.69208 50.5371 4.69208 50.5382 4.69208 50.5392C4.69208 50.5403 4.69208 50.5414 4.69208 50.5424C4.69208 50.5435 4.69208 50.5445 4.69208 50.5456C4.69208 50.5467 4.69208 50.5477 4.69208 50.5488C4.69208 50.5499 4.69208 50.5509 4.69208 50.552C4.69208 50.553 4.69208 50.5541 4.69208 50.5552C4.69208 50.5562 4.69208 50.5573 4.69208 50.5583C4.69208 50.5594 4.69208 50.5605 4.69208 50.5615C4.69208 50.5626 4.69208 50.5636 4.69208 50.5647C4.69208 50.5658 4.69208 50.5668 4.69208 50.5679C4.69208 50.5689 4.69208 50.57 4.69208 50.5711C4.69208 50.5721 4.69208 50.5732 4.69208 50.5742C4.69208 50.5753 4.69208 50.5762 4.69208 50.5773C4.69208 50.5783 4.69208 50.5794 4.69208 50.5805C4.69208 50.5815 4.69208 50.5826 4.69208 50.5836C4.69208 50.5847 4.69208 50.5858 4.69208 50.5868C4.69208 50.5879 4.69208 50.5889 4.69208 50.59C4.69208 50.5911 4.69208 50.5921 4.69208 50.5932C4.69208 50.5942 4.69208 50.5953 4.69208 50.5964C4.69208 50.5974 4.69208 50.5985 4.69208 50.5995C4.69208 50.6008 4.69208 50.6017 4.69208 50.6029C4.69208 50.6039 4.69208 50.605 4.69208 50.6061C4.69208 50.6071 4.69208 50.6082 4.69208 50.6092C4.69208 50.6103 4.69208 50.6114 4.69208 50.6124C4.69208 50.6135 4.69208 50.6145 4.69208 50.6156C4.69208 50.6167 4.69208 50.6177 4.69208 50.6188C4.69208 50.6199 4.69208 50.6209 4.69208 50.622C4.69208 50.623 4.69208 50.6241 4.69208 50.6252C4.69208 50.6262 4.69208 50.6273 4.69208 50.6283C4.69208 50.6294 4.69208 50.6305 4.69208 50.6315C4.69208 50.6326 4.69208 50.6336 4.69208 50.6347C4.69208 50.6358 4.69208 50.6368 4.69208 50.6379C4.69208 50.6389 4.69208 50.64 4.69208 50.6411C4.69208 50.6421 4.69208 50.6432 4.69208 50.6442C4.69208 50.6453 4.69208 50.6464 4.69208 50.6474C4.69208 50.6485 4.69208 50.6495 4.69208 50.6506C4.69208 50.6517 4.69208 50.6527 4.69208 50.6538C4.69208 50.655 4.69208 50.6561 4.69208 50.6571C4.69208 50.6582 4.69208 50.6592 4.69208 50.6603C4.69208 50.6614 4.69208 50.6624 4.69208 50.6635C4.69208 50.6645 4.69208 50.6656 4.69208 50.6667C4.69208 50.6677 4.69208 50.6688 4.69208 50.6698C4.69208 50.6709 4.69208 50.672 4.69208 50.673C4.69208 50.6741 4.69208 50.6752 4.69208 50.6762C4.69208 50.6773 4.69208 50.6783 4.69208 50.6794C4.69208 50.6805 4.69208 50.6815 4.69208 50.6827C4.69208 50.6838 4.69208 50.6849 4.69208 50.6859C4.69208 50.687 4.69208 50.688 4.69208 50.6891C4.69208 50.6902 4.69208 50.6912 4.69208 50.6923C4.69208 50.6933 4.69208 50.6944 4.69208 50.6955C4.69208 50.6965 4.69208 50.6976 4.69208 50.6986C4.69208 50.6997 4.69208 50.7008 4.69208 50.7018C4.69208 50.7029 4.69208 50.7039 4.69208 50.705C4.69208 50.7061 4.69208 50.7073 4.69208 50.7083C4.69208 50.7094 4.69208 50.7105 4.69208 50.7115C4.69208 50.7126 4.69208 50.7136 4.69208 50.7147C4.69208 50.7158 4.69208 50.7168 4.69208 50.7179C4.69208 50.7189 4.69208 50.72 4.69208 50.7211C4.69208 50.7221 4.69208 50.7232 4.69208 50.7242C4.69208 50.7253 4.69208 50.7264 4.69208 50.7274C4.69208 50.7286 4.69208 50.7297 4.69208 50.7308C4.69208 50.7318 4.69208 50.7329 4.69208 50.7339C4.69208 50.735 4.69208 50.7361 4.69208 50.7371C4.69208 50.7382 4.69208 50.7392 4.69208 50.7403C4.69208 50.7414 4.69208 50.7424 4.69208 50.7435C4.69208 50.7445 4.69208 50.7456 4.69208 50.7467C4.69208 50.7477 4.69208 50.7489 4.69208 50.75C4.69208 50.7511 4.69208 50.7521 4.69208 50.7532C4.69208 50.7542 4.69208 50.7553 4.69208 50.7564C4.69208 50.7574 4.69208 50.7585 4.69208 50.7595C4.69208 50.7606 4.69208 50.7617 4.69208 50.7627C4.69208 50.7638 4.69208 50.7648 4.69208 50.7659C4.69208 50.767 4.69208 50.7682 4.69208 50.7692C4.69208 50.7703 4.69208 50.7714 4.69208 50.7724C4.69208 50.7735 4.69208 50.7745 4.69208 50.7756C4.69208 50.7767 4.69208 50.7777 4.69208 50.7788C4.69208 50.7798 4.69208 50.7809 4.69208 50.782C4.69208 50.783 4.69208 50.7841 4.69208 50.7852C4.69208 50.7864 4.69208 50.7874 4.69208 50.7885C4.69208 50.7895 4.69208 50.7906 4.69208 50.7917C4.69208 50.7927 4.69208 50.7938 4.69208 50.7948C4.69208 50.7959 4.69208 50.797 4.69208 50.798C4.69208 50.7991 4.69208 50.8002 4.69208 50.8012C4.69208 50.8023 4.69208 50.8033 4.69208 50.8044C4.69208 50.8056 4.69208 50.8067 4.69208 50.8077C4.69208 50.8088 4.69208 50.8098 4.69208 50.8109C4.69208 50.812 4.69208 50.813 4.69208 50.8141C4.69208 50.8152 4.69208 50.8162 4.69208 50.8173C4.69208 50.8183 4.69208 50.8194 4.69208 50.8205C4.69208 50.8215 4.69208 50.8226 4.69208 50.8236C4.69208 50.8247 4.69208 50.8259 4.69208 50.827C4.69208 50.828 4.69208 50.8291 4.69208 50.8302C4.69208 50.8312 4.69208 50.8323 4.69208 50.8333C4.69208 50.8344 4.69208 50.8355 4.69208 50.8365C4.69208 50.8376 4.69208 50.8386 4.69208 50.8397C4.69208 50.8408 4.69208 50.8418 4.69208 50.8429C4.69208 50.8439 4.69208 50.8451 4.69208 50.8462C4.69208 50.8473 4.69208 50.8483 4.69208 50.8494C4.69208 50.8505 4.69208 50.8515 4.69208 50.8526C4.69208 50.8536 4.69208 50.8547 4.69208 50.8558C4.69208 50.8568 4.69208 50.8579 4.69208 50.8589C4.69208 50.86 4.69208 50.8611 4.69208 50.8621C4.69208 50.8632 4.69208 50.8642 4.69208 50.8653C4.69208 50.8664 4.69208 50.8676 4.69208 50.8686C4.69208 50.8697 4.69208 50.8708 4.69208 50.8718C4.69208 50.8729 4.69208 50.8739 4.69208 50.875C4.69208 50.8761 4.69208 50.8771 4.69208 50.8782C4.69208 50.8792 4.69208 50.8803 4.69208 50.8814C4.69208 50.8824 4.69208 50.8835 4.69208 50.8845C4.69208 50.8856 4.69208 50.8867 4.69208 50.8877C4.69208 50.8888 4.69208 50.8898 4.69208 50.8909C4.69208 50.892 4.69208 50.8932 4.69208 50.8942C4.69208 50.8953 4.69208 50.8964 4.69208 50.8974C4.69208 50.8985 4.69208 50.8995 4.69208 50.9006C4.69208 50.9017 4.69208 50.9027 4.69208 50.9038C4.69208 50.9048 4.69208 50.9059 4.69208 50.907C4.69208 50.908 4.69208 50.9091 4.69208 50.9102C4.69208 50.9112 4.69208 50.9123 4.69208 50.9133C4.69208 50.9144 4.69208 50.9155 4.69208 50.9165C4.69208 50.9176 4.69208 50.9186 4.69208 50.9197C4.69208 50.9208 4.69208 50.9218 4.69208 50.9229C4.69208 50.9239 4.69208 50.925 4.69208 50.9262C4.69208 50.9273 4.69208 50.9283 4.69208 50.9294C4.69208 50.9305 4.69208 50.9315 4.69208 50.9326C4.69208 50.9336 4.69208 50.9347 4.69208 50.9358C4.69208 50.9368 4.69208 50.9379 4.69208 50.9389C4.69208 50.94 4.69208 50.9411 4.69208 50.9421C4.69208 50.9432 4.69208 50.9442 4.69208 50.9453C4.69208 50.9464 4.69208 50.9474 4.69208 50.9485C4.69208 50.9495 4.69208 50.9506 4.69208 50.9517C4.69208 50.9527 4.69208 50.9538 4.69208 50.9548C4.69208 50.9559 4.69208 50.957 4.69208 50.958C4.69208 50.9591 4.69208 50.9602 4.69208 50.9612C4.69208 50.9623 4.69208 50.9633 4.69208 50.9644C4.69208 50.9655 4.69208 50.9665 4.69208 50.9676C4.69208 50.9686 4.69208 50.9697 4.69208 50.9708C4.69208 50.9718 4.69208 50.9729 4.69208 50.9739C4.69208 50.975 4.69208 50.9761 4.69208 50.9771C4.69208 50.9782 4.69208 50.9792 4.69208 50.9803C4.69208 50.9814 4.69208 50.9824 4.69208 50.9835C4.69208 50.9845 4.69208 50.9856 4.69208 50.9867C4.69208 50.9877 4.69208 50.9888 4.69208 50.9898C4.69208 50.9909 4.69208 50.992 4.69208 50.993C4.69208 50.9941 4.69208 50.9952 4.69208 50.9962C4.69208 50.9973 4.69208 50.9983 4.69208 50.9994C4.69208 51.0005 4.69208 51.0015 4.69208 51.0026C4.69208 51.0036 4.69208 51.0047 4.69208 51.0058C4.69208 51.0068 4.69208 51.0079 4.69208 51.0089C4.69208 51.01 4.69208 51.0111 4.69208 51.0121C4.69208 51.0132 4.69208 51.0142 4.69208 51.0153C4.69208 51.0164 4.69208 51.0174 4.69208 51.0185C4.69208 51.0195 4.69208 51.0206 4.69208 51.0215C4.69208 51.0226 4.69208 51.0236 4.69208 51.0247C4.69208 51.0258 4.69208 51.0268 4.69208 51.0279C4.69208 51.0289 4.69208 51.03 4.69208 51.0311C4.69208 51.0321 4.69208 51.0332 4.69208 51.0342C4.69208 51.0353 4.69208 51.0364 4.69208 51.0374C4.69208 51.0385 4.69208 51.0395 4.69208 51.0406C4.69208 51.0417 4.69208 51.0427 4.69208 51.0438C4.69208 51.0448 4.69208 51.0459 4.69208 51.047C4.69208 51.048 4.69208 51.0489 4.69208 51.05C4.69208 51.0511 4.69208 51.0521 4.69208 51.0532C4.69208 51.0542 4.69208 51.0553 4.69208 51.0564C4.69208 51.0574 4.69208 51.0585 4.69208 51.0595C4.69208 51.0606 4.69208 51.0617 4.69208 51.0627C4.69208 51.0638 4.69208 51.0648 4.69208 51.0659C4.69208 51.0668 4.69208 51.0679 4.69208 51.0689C4.69208 51.07 4.69208 51.0711 4.69208 51.0721C4.69208 51.0732 4.69208 51.0742 4.69208 51.0753C4.69208 51.0764 4.69208 51.0774 4.69208 51.0785C4.69208 51.0795 4.69208 51.0806 4.69208 51.0815C4.69208 51.0826 4.69208 51.0836 4.69208 51.0847C4.69208 51.0858 4.69208 51.0868 4.69208 51.0879C4.69208 51.0889 4.69208 51.09 4.69208 51.0911C4.69208 51.0921 4.69208 51.0932 4.69208 51.0941C4.69208 51.0951 4.69208 51.0962 4.69208 51.0973C4.69208 51.0983 4.69208 51.0994 4.69208 51.1005C4.69208 51.1015 4.69208 51.1026 4.69208 51.1036C4.69208 51.1045 4.69208 51.1056 4.69208 51.1067C4.69208 51.1077 4.69208 51.1088 4.69208 51.1098C4.69208 51.1109 4.69208 51.112 4.69208 51.113C4.69208 51.1139 4.69208 51.115 4.69208 51.1161C4.69208 51.1171 4.69208 51.1182 4.69208 51.1192C4.69208 51.1203 4.69208 51.1214 4.69208 51.1224C4.69208 51.1233 4.69208 51.1244 4.69208 51.1255C4.69208 51.1265 4.69208 51.1276 4.69208 51.1286C4.69208 51.1297 4.69208 51.1308 4.69208 51.1317C4.69208 51.1327 4.69208 51.1338 4.69208 51.1348C4.69208 51.1359 4.69208 51.137 4.69208 51.138C4.69208 51.1391 4.69208 51.14 4.69208 51.1411C4.69208 51.1421 4.69208 51.1432 4.69208 51.1442C4.69208 51.1453 4.69208 51.1462 4.69208 51.1473C4.69208 51.1483 4.69208 51.1494 4.69208 51.1505C4.69208 51.1515 4.69208 51.1526 4.69208 51.1535C4.69208 51.1545 4.69208 51.1556 4.69208 51.1567C4.69208 51.1577 4.69208 51.1588 4.69208 51.1598C4.69208 51.1608 4.69208 51.1618 4.69208 51.1629C4.69208 51.1639 4.69208 51.165 4.69208 51.1661C4.69208 51.167 4.69208 51.168 4.69208 51.1691C4.69208 51.1701 4.69208 51.1712 4.69208 51.1721C4.69208 51.1732 4.69208 51.1742 4.69208 51.1753C4.69208 51.1764 4.69208 51.1774 4.69208 51.1783C4.69208 51.1794 4.69208 51.1805 4.69208 51.1815C4.69208 51.1826 4.69208 51.1835 4.69208 51.1845C4.69208 51.1856 4.69208 51.1867 4.69208 51.1877C4.69208 51.1886 4.69208 51.1897 4.69208 51.1908C4.69208 51.1918 4.69208 51.1929 4.69208 51.1938C4.69208 51.1948 4.69208 51.1959 4.69208 51.197C4.69208 51.198 4.69208 51.1989 4.69208 51.2C4.69208 51.2011 4.69208 51.2021 4.69208 51.2032C4.69208 51.2041 4.69208 51.2052 4.69208 51.2062C4.69208 51.2073 4.69208 51.2083 4.69208 51.2092C4.69208 51.2103 4.69208 51.2114 4.69208 51.2124C4.69208 51.2133 4.69208 51.2144 4.69208 51.2155C4.69208 51.2165 4.69208 51.2174 4.69208 51.2185C4.69208 51.2195 4.69208 51.2206 4.69208 51.2217C4.69208 51.2226 4.69208 51.2236 4.69208 51.2247C4.69208 51.2258 4.69208 51.2267 4.69208 51.2277C4.69208 51.2288 4.69208 51.2299 4.69208 51.2308C4.69208 51.2318 4.69208 51.2329 4.69208 51.2339C4.69208 51.2348 4.69208 51.2359 4.69208 51.237C4.69208 51.2379 4.69208 51.2389 4.69208 51.24C4.69208 51.2411 4.69208 51.242 4.69208 51.243C4.69208 51.2441 4.69208 51.2451 4.69208 51.2461C4.69208 51.2471 4.69208 51.2482 4.69208 51.2491C4.69208 51.2502 4.69208 51.2512 4.69208 51.2523C4.69208 51.2532 4.69208 51.2542 4.69208 51.2553C4.69208 51.2562 4.69208 51.2573 4.69208 51.2583C4.69208 51.2594 4.69208 51.2603 4.69208 51.2614C4.69208 51.2624 4.69208 51.2633 4.69208 51.2644C4.69208 51.2655 4.69208 51.2664 4.69208 51.2674C4.69208 51.2685 4.69208 51.2695 4.69208 51.2705C4.69208 51.2715 4.69208 51.2726 4.69208 51.2735C4.69208 51.2745 4.69208 51.2756 4.69208 51.2765C4.69208 51.2776 4.69208 51.2786 4.69208 51.2795C4.69208 51.2806 4.69208 51.2817 4.69208 51.2826C4.69208 51.2836 4.69208 51.2847 4.69208 51.2856C4.69208 51.2867 4.69208 51.2877 4.69208 51.2886C4.69208 51.2897 4.69208 51.2908 4.69208 51.2917C4.69208 51.2927 4.69208 51.2938 4.69208 51.2947C4.69208 51.2958 4.69208 51.2968 4.69208 51.2977C4.69208 51.2988 4.69208 51.2997 4.69208 51.3008C4.69208 51.3018 4.69208 51.3027 4.69208 51.3038C4.69208 51.3048 4.69208 51.3058 4.69208 51.3068C4.69208 51.3079 4.69208 51.3088 4.69208 51.3098C4.69208 51.3108 4.69208 51.3118 4.69208 51.3129C4.69208 51.3138 4.69208 51.3148 4.69208 51.3159C4.69208 51.3168 4.69208 51.3179 4.69208 51.3188C4.69208 51.3198 4.69208 51.3209 4.69208 51.3218C4.69208 51.3229 4.69208 51.3238 4.69208 51.3248C4.69208 51.3259 4.69208 51.3268 4.69208 51.3279C4.69208 51.3288 4.69208 51.3298 4.69208 51.3308C4.69208 51.3318 4.69208 51.3329 4.69208 51.3338C4.69208 51.3348 4.69208 51.3358 4.69208 51.3368C4.69208 51.3379 4.69208 51.3388 4.69208 51.3398C4.69208 51.3408 4.69208 51.3418 4.69208 51.3427C4.69208 51.3438 4.69208 51.3448 4.69208 51.3458C4.69208 51.3468 4.69208 51.3477 4.69208 51.3488C4.69208 51.3497 4.69208 51.3508 4.69208 51.3517C4.69208 51.3527 4.69208 51.3536 4.69208 51.3547C4.69208 51.3558 4.69208 51.3567 4.69208 51.3577C4.69208 51.3586 4.69208 51.3597 4.69208 51.3606C4.69208 51.3617 4.69208 51.3626 4.69208 51.3636C4.69208 51.3645 4.69208 51.3656 4.69208 51.3665C4.69208 51.3676 4.69208 51.3685 4.69208 51.3695C4.69208 51.3705 4.69208 51.3715 4.69208 51.3724C4.69208 51.3735 4.69208 51.3744 4.69208 51.3755C4.69208 51.3764 4.69208 51.3774 4.69208 51.3783C4.69208 51.3794 4.69208 51.3803 4.69208 51.3814C4.69208 51.3823 4.69208 51.3833 4.69208 51.3842C4.69208 51.3853 4.69208 51.3862 4.69208 51.3873C4.69208 51.3882 4.69208 51.3892 4.69208 51.3902C4.69208 51.3912 4.69208 51.3921 4.69208 51.3932C4.69208 51.3941 4.69208 51.3951 4.69208 51.3961C4.69208 51.3971 4.69208 51.398 4.69208 51.3989C4.69208 51.4 4.69208 51.4009 4.69208 51.402C4.69208 51.4029 4.69208 51.4039 4.69208 51.4048C4.69208 51.4059 4.69208 51.4068 4.69208 51.4077C4.69208 51.4088 4.69208 51.4097 4.69208 51.4108C4.69208 51.4117 4.69208 51.4127 4.69208 51.4136C4.69208 51.4145 4.69208 51.4156 4.69208 51.4165C4.69208 51.4176 4.69208 51.4185 4.69208 51.4194C4.69208 51.4205 4.69208 51.4214 4.69208 51.4224C4.69208 51.4233 4.69208 51.4244 4.69208 51.4253C4.69208 51.4262 4.69208 51.4273 4.69208 51.4282C4.69208 51.4291 4.69208 51.4302 4.69208 51.4311C4.69208 51.4321 4.69208 51.433 4.69208 51.4339C4.69208 51.435 4.69208 51.4359 4.69208 51.437C4.69208 51.4379 4.69208 51.4388 4.69208 51.4398C4.69208 51.4408 4.69208 51.4417 4.69208 51.4427C4.69208 51.4436 4.69208 51.4445 4.69208 51.4456C4.69208 51.4465 4.69208 51.4474 4.69208 51.4485C4.69208 51.4494 4.69208 51.4505 4.69208 51.4514C4.69208 51.4523 4.69208 51.4533 4.69208 51.4542C4.69208 51.4552 4.69208 51.4562 4.69208 51.4571C4.69208 51.458 4.69208 51.4589 4.69208 51.46C4.69208 51.4609 4.69208 51.4618 4.69208 51.4629C4.69208 51.4638 4.69208 51.4647 4.69208 51.4658C4.69208 51.4667 4.69208 51.4676 4.69208 51.4686C4.69208 51.4695 4.69208 51.4705 4.69208 51.4714C4.69208 51.4724 4.69208 51.4733 4.69208 51.4742C4.69208 51.4753 4.69208 51.4762 4.69208 51.4771C4.69208 51.478 4.69208 51.4791 4.69208 51.48C4.69208 51.4809 4.69208 51.482 4.69208 51.4829C4.69208 51.4838 4.69208 51.4847 4.69208 51.4858C4.69208 51.4867 4.69208 51.4876 4.69208 51.4885C4.69208 51.4895 4.69208 51.4905 4.69208 51.4914C4.69208 51.4923 4.69208 51.4933 4.69208 51.4942C4.69208 51.4951 4.69208 51.4961 4.69208 51.497C4.69208 51.498 4.69208 51.4989 4.69208 51.4998C4.69208 51.5008 4.69208 51.5018 4.69208 51.5027C4.69208 51.5036 4.69208 51.5045 4.69208 51.5055C4.69208 51.5065 4.69208 51.5074 4.69208 51.5083C4.69208 51.5092 4.69208 51.5101 4.69208 51.5112C4.69208 51.5121 4.69208 51.513 4.69208 51.5139C4.69208 51.5148 4.69208 51.5159 4.69208 51.5168C4.69208 51.5177 4.69208 51.5186 4.69208 51.5195C4.69208 51.5205 4.69208 51.5215 4.69208 51.5224C4.69208 51.5233 4.69208 51.5242 4.69208 51.5252C4.69208 51.5261 4.69208 51.5271 4.69208 51.528C4.69208 51.5289 4.69208 51.5298 4.69208 51.5308C4.69208 51.5317 4.69208 51.5326 4.69208 51.5336C4.69208 51.5345 4.69208 51.5355 4.69208 51.5364C4.69208 51.5373 4.69208 51.5382 4.69208 51.5391C4.69208 51.54 4.69208 51.5411 4.69208 51.542C4.69208 51.5429 4.69208 51.5438 4.69208 51.5447C4.69208 51.5456 4.69208 51.5465 4.69208 51.5474C4.69208 51.5483 4.69208 51.5492 4.69208 51.5503C4.69208 51.5512 4.69208 51.5521 4.69208 51.553C4.69208 51.5539 4.69208 51.5548 4.69208 51.5558C4.69208 51.5567 4.69208 51.5576 4.69208 51.5585C4.69208 51.5594 4.69208 51.5603 4.69208 51.5612C4.69208 51.5621 4.69208 51.5632 4.69208 51.5641H7.72238ZM7.72238 50C7.72238 28.0936 24.1885 9.97768 45.4682 7.71388L45.1476 4.70059C22.3218 7.12886 4.69208 26.5495 4.69208 50H7.72238ZM53.177 56.2561C53.177 58.0106 51.7545 59.433 50 59.433V62.4633C53.4282 62.4633 56.2073 59.6842 56.2073 56.2561H53.177ZM50 59.433C48.2455 59.433 46.823 58.0106 46.823 56.2561H43.7927C43.7927 59.6842 46.5718 62.4633 50 62.4633V59.433ZM46.823 56.2561C46.823 54.5015 48.2455 53.0792 50 53.0792V50.0489C46.5718 50.0489 43.7927 52.8279 43.7927 56.2561H46.823ZM50 53.0792C51.7545 53.0792 53.177 54.5015 53.177 56.2561H56.2073C56.2073 52.8279 53.4282 50.0489 50 50.0489V53.0792ZM64.0274 82.8445C64.0274 73.9415 69.4364 67.5968 73.0505 64.4345L71.055 62.1539C67.1618 65.5605 60.9971 72.6665 60.9971 82.8445H64.0274ZM73.0123 64.4668C75.3671 62.5402 75.7311 59.1973 74.3 56.7439L71.6824 58.2708C72.4409 59.5711 72.1792 61.2332 71.0933 62.1215L73.0123 64.4668ZM74.3088 56.7591L52.7251 18.7532L50.0902 20.2497L71.6736 58.2556L74.3088 56.7591ZM52.7232 18.7497C52.1279 17.708 51.0652 17.1652 50.0195 17.1652C48.9632 17.1652 47.8586 17.7321 47.3561 18.9045L50.1414 20.0983C50.1394 20.1029 50.1324 20.1168 50.1174 20.1341C50.1027 20.1512 50.0855 20.1655 50.0683 20.1761C50.0347 20.1967 50.0152 20.1955 50.0195 20.1955C50.0239 20.1955 50.0355 20.1971 50.0482 20.2044C50.057 20.2092 50.0733 20.2205 50.0921 20.2532L52.7232 18.7497ZM47.435 18.7468L25.695 56.5962L28.3226 58.1056L50.0626 20.2561L47.435 18.7468ZM25.7 56.5874C24.2262 59.1141 24.8617 62.3994 26.9336 64.2641L28.9608 62.0117C27.9047 61.0611 27.6018 59.3414 28.3176 58.1144L25.7 56.5874ZM26.9447 64.2739C29.5006 66.5291 32.8883 70.2305 34.647 75.3594L37.5133 74.3767C35.5182 68.5574 31.7115 64.4386 28.9497 62.0017L26.9447 64.2739ZM51.5641 95.3079H62.5123V92.2776H51.5641V95.3079ZM62.5123 95.3079C65.0694 95.3079 67.1555 93.222 67.1555 90.6647H64.1252C64.1252 91.5483 63.3959 92.2776 62.5123 92.2776V95.3079ZM67.1555 90.6647V85.9726H64.1252V90.6647H67.1555ZM67.1555 85.9726C67.1555 83.4155 65.0694 81.3294 62.5123 81.3294V84.3597C63.3959 84.3597 64.1252 85.0889 64.1252 85.9726H67.1555ZM62.5123 81.3294H37.4877V84.3597H62.5123V81.3294ZM37.4877 81.3294C34.9306 81.3294 32.8445 83.4155 32.8445 85.9726H35.8748C35.8748 85.0889 36.6041 84.3597 37.4877 84.3597V81.3294ZM32.8445 85.9726V90.6647H35.8748V85.9726H32.8445ZM32.8445 90.6647C32.8445 93.222 34.9306 95.3079 37.4877 95.3079V92.2776C36.6041 92.2776 35.8748 91.5483 35.8748 90.6647H32.8445ZM37.4877 95.3079H40.6158V92.2776H37.4877V95.3079ZM39.0029 98.4848V93.7927H35.9726V98.4848H39.0029ZM64.0274 98.4848V93.7927H60.9971V98.4848H64.0274ZM48.4848 18.7194V51.5641H51.5152V18.7194H48.4848Z" fill="#1E1E1E"/>
<path d="M54.6909 1.51562H45.3066V10.8998H54.6909V1.51562Z" stroke="#00FFFF" stroke-width="2" stroke-miterlimit="10" stroke-linecap="round" stroke-linejoin="round"/>
<path d="M10.8998 51.5645H1.51562V60.9485H10.8998V51.5645Z" stroke="#00FFFF" stroke-width="2" stroke-miterlimit="10" stroke-linecap="round" stroke-linejoin="round"/>
<path d="M6.2077 10.8998C8.79908 10.8998 10.8998 8.79908 10.8998 6.2077C10.8998 3.61634 8.79908 1.51562 6.2077 1.51562C3.61634 1.51562 1.51562 3.61634 1.51562 6.2077C1.51562 8.79908 3.61634 10.8998 6.2077 10.8998Z" stroke="#00FFFF" stroke-width="2" stroke-miterlimit="10" stroke-linecap="round" stroke-linejoin="round"/>
<path d="M93.7937 10.8998C96.385 10.8998 98.4858 8.79908 98.4858 6.2077C98.4858 3.61634 96.385 1.51562 93.7937 1.51562C91.2023 1.51562 89.1016 3.61634 89.1016 6.2077C89.1016 8.79908 91.2023 10.8998 93.7937 10.8998Z" stroke="#00FFFF" stroke-width="2" stroke-miterlimit="10" stroke-linecap="round" stroke-linejoin="round"/>
</svg>
