<svg width="100" height="98" viewBox="0 0 100 98" fill="none" xmlns="http://www.w3.org/2000/svg">
<g clip-path="url(#clip0)">
<path d="M52.4272 38.6077V38.6079C52.4267 39.1589 52.2075 39.6873 51.8178 40.0769C51.4281 40.4666 50.8998 40.6857 50.3488 40.6862L52.4272 38.6077ZM52.4272 38.6077C52.4272 38.1967 52.3053 37.7948 52.0769 37.453C51.8485 37.1112 51.5239 36.8448 51.1441 36.6875C50.7644 36.5302 50.3465 36.489 49.9433 36.5692C49.5401 36.6494 49.1698 36.8474 48.8791 37.1381C48.5884 37.4287 48.3905 37.7991 48.3103 38.2022C48.2301 38.6054 48.2712 39.0233 48.4285 39.4031C48.5858 39.7829 48.8523 40.1075 49.194 40.3359C49.5358 40.5642 49.9375 40.6861 50.3485 40.6862L52.4272 38.6077ZM59.9934 22.8302L60.0468 22.7556L59.9916 22.6823C59.3464 21.8243 59.0099 20.7734 59.0367 19.7002C59.0635 18.6269 59.4521 17.5942 60.1395 16.7695C60.8268 15.9448 61.7726 15.3764 62.8234 15.1566C63.8742 14.9368 64.9685 15.0784 65.9288 15.5584C66.8891 16.0385 67.659 16.8288 68.1138 17.8013C68.5686 18.7738 68.6816 19.8714 68.4343 20.9162C68.1871 21.9609 67.5942 22.8915 66.7518 23.557C65.9094 24.2226 64.8669 24.584 63.7933 24.5828L63.7932 24.7078L63.7932 24.5828C63.2898 24.5828 62.7897 24.5027 62.3116 24.3454L62.2243 24.3167L62.1708 24.3914L54.1483 35.602L54.0949 35.6766L54.1501 35.7499C54.629 36.3867 54.9404 37.1336 55.0556 37.922C55.1708 38.7105 55.0861 39.5152 54.8092 40.2624C54.5324 41.0096 54.0724 41.6753 53.4713 42.1984C52.8702 42.7215 52.1474 43.0852 51.3691 43.2562C50.5909 43.4272 49.7821 43.4 49.0171 43.1771C48.2521 42.9541 47.5554 42.5426 46.9908 41.9803C46.4263 41.418 46.012 40.7229 45.786 39.9588C45.5601 39.1947 45.5297 38.386 45.6976 37.6071L45.7169 37.5174L45.6371 37.472L40.2896 34.4383L40.2098 34.393L40.1427 34.4557C39.2639 35.276 38.1065 35.7323 36.9044 35.7323C35.7022 35.7323 34.5448 35.276 33.6661 34.4557L33.599 34.393L33.5191 34.4383L28.1717 37.472L28.0918 37.5174L28.1112 37.6071C28.3503 38.7164 28.1845 39.8747 27.6437 40.8723C27.1029 41.8699 26.2229 42.641 25.1628 43.046C24.1028 43.451 22.9328 43.4632 21.8645 43.0803C20.7963 42.6974 19.9004 41.9448 19.3389 40.9587C18.7775 39.9725 18.5876 38.8179 18.8037 37.7039C19.0198 36.5899 19.6275 35.59 20.5168 34.8852C21.4062 34.1804 22.5185 33.8172 23.6524 33.8614C24.7863 33.9056 25.867 34.3543 26.6988 35.1262L26.7659 35.1885L26.8455 35.1433L32.1929 32.1096L32.2727 32.0643L32.2534 31.9746C32.1042 31.2808 32.1121 30.5624 32.2765 29.872C32.441 29.1817 32.7577 28.5368 33.2037 27.9848C33.6496 27.4327 34.2134 26.9874 34.8538 26.6815C35.4941 26.3756 36.1948 26.2169 36.9045 26.2169C37.6142 26.2169 38.3148 26.3756 38.9552 26.6815C39.5955 26.9874 40.1593 27.4327 40.6053 27.9848C41.0512 28.5368 41.368 29.1817 41.5324 29.872C41.6969 30.5624 41.7048 31.2808 41.5555 31.9746L41.5362 32.0643L41.6161 32.1096L46.9635 35.1433L47.0434 35.1886L47.1105 35.1259C47.7319 34.5457 48.4978 34.1432 49.3281 33.9603C50.1584 33.7775 51.0225 33.8212 51.8301 34.0868L51.9174 34.1155L51.9708 34.0408L59.9934 22.8302ZM61.715 19.825V19.8252C61.715 20.2362 61.8369 20.638 62.0653 20.9797C62.2937 21.3214 62.6183 21.5877 62.998 21.745C63.3778 21.9023 63.7956 21.9434 64.1987 21.8632C64.6019 21.7829 64.9721 21.585 65.2628 21.2943C65.5534 21.0037 65.7513 20.6334 65.8314 20.2303C65.9116 19.8271 65.8704 19.4093 65.7131 19.0296C65.5558 18.6498 65.2895 18.3253 64.9477 18.0969C64.606 17.8686 64.2042 17.7467 63.7932 17.7467V17.87L63.793 17.7467C63.242 17.7473 62.7138 17.9665 62.3242 18.3561C61.9346 18.7458 61.7155 19.274 61.715 19.825ZM25.5377 38.6079V38.6077C25.5377 38.1966 25.4158 37.7948 25.1874 37.453C24.959 37.1112 24.6344 36.8448 24.2546 36.6875C23.8748 36.5302 23.4569 36.489 23.0537 36.5693C22.6505 36.6495 22.2802 36.8474 21.9895 37.1381C21.6988 37.4288 21.5009 37.7992 21.4207 38.2024C21.3406 38.6056 21.3818 39.0235 21.5391 39.4033C21.6965 39.7831 21.9629 40.1077 22.3047 40.336C22.6466 40.5644 23.0484 40.6862 23.4595 40.6862L23.4595 40.5612L23.4596 40.6862C24.0106 40.6856 24.5389 40.4664 24.9285 40.0768C25.3181 39.6871 25.5372 39.1588 25.5377 38.6079ZM38.9823 30.9742V30.9741C38.9823 30.5631 38.8604 30.1613 38.6321 29.8195C38.4037 29.4778 38.0792 29.2114 37.6994 29.0541C37.3197 28.8968 36.9018 28.8557 36.4987 28.9358C36.0956 29.016 35.7253 29.214 35.4346 29.5046C35.144 29.7952 34.9461 30.1655 34.8659 30.5687C34.7857 30.9718 34.8268 31.3897 34.9841 31.7694C35.1414 32.1491 35.4078 32.4737 35.7495 32.7021C36.0913 32.9304 36.4931 33.0523 36.9041 33.0523V32.9273L36.9043 33.0523C37.4552 33.0517 37.9834 32.8326 38.373 32.443C38.7626 32.0534 38.9817 31.5252 38.9823 30.9742Z" fill="#00FFFF" stroke="black" stroke-width="0.25"/>
<path d="M81.796 72.3446H4.14365C3.82178 72.3443 3.51318 72.2163 3.28559 71.9887C3.058 71.7611 2.93 71.4525 2.92968 71.1307V10.6983C2.93 10.3765 3.058 10.0679 3.28559 9.84028C3.51318 9.61268 3.82178 9.48468 4.14365 9.48437H11.0489C11.4342 9.47947 11.802 9.32298 12.0728 9.0488C12.3435 8.77462 12.4953 8.40483 12.4953 8.01953C12.4953 7.63422 12.3435 7.26443 12.0728 6.99025C11.802 6.71608 11.4342 6.55959 11.0489 6.55469H4.14365C3.04501 6.55575 1.99168 6.99266 1.21482 7.76951C0.437971 8.54636 0.00106673 9.5997 0 10.6983L0 71.1314C0.00106673 72.23 0.437971 73.2834 1.21482 74.0602C1.99168 74.8371 3.04501 75.274 4.14365 75.275H14.2443V78.4984C14.2452 79.3813 14.5964 80.2279 15.2206 80.8523C15.8449 81.4768 16.6913 81.8281 17.5743 81.8293H32.2372L25.3347 95.3055C25.2447 95.4769 25.1895 95.6644 25.1724 95.8573C25.1553 96.0502 25.1766 96.2445 25.235 96.4291C25.2935 96.6137 25.388 96.7848 25.5131 96.9327C25.6381 97.0805 25.7912 97.2021 25.9635 97.2904C26.1359 97.3786 26.324 97.4319 26.517 97.447C26.7101 97.4621 26.9042 97.4388 27.0882 97.3784C27.2721 97.318 27.4423 97.2217 27.5888 97.0952C27.7354 96.9686 27.8553 96.8142 27.9418 96.641L35.5278 81.8293H51.7234L59.3099 96.641C59.3964 96.8142 59.5163 96.9686 59.6629 97.0952C59.8094 97.2217 59.9796 97.318 60.1635 97.3784C60.3475 97.4388 60.5416 97.4621 60.7347 97.447C60.9277 97.4319 61.1158 97.3786 61.2882 97.2904C61.4605 97.2021 61.6136 97.0805 61.7386 96.9327C61.8637 96.7848 61.9582 96.6137 62.0167 96.4291C62.0751 96.2445 62.0964 96.0502 62.0793 95.8573C62.0622 95.6644 62.007 95.4769 61.917 95.3055L55.0145 81.8293H69.6774C70.5605 81.8284 71.4071 81.4771 72.0315 80.8527C72.6559 80.2283 73.0072 79.3817 73.0081 78.4986V75.2753H81.7945C81.9885 75.2777 82.181 75.2417 82.3609 75.1692C82.5407 75.0966 82.7044 74.9891 82.8425 74.8529C82.9805 74.7166 83.09 74.5543 83.1648 74.3753C83.2396 74.1964 83.2781 74.0044 83.2781 73.8104C83.2781 73.6165 83.2396 73.4245 83.1648 73.2455C83.09 73.0666 82.9805 72.9042 82.8425 72.768C82.7044 72.6317 82.5407 72.5242 82.3609 72.4517C82.181 72.3792 81.9885 72.3431 81.7945 72.3456L81.796 72.3446ZM70.0798 78.4981C70.0797 78.6044 70.0374 78.7064 69.9622 78.7815C69.8871 78.8567 69.7851 78.899 69.6788 78.8991H17.5743C17.468 78.899 17.366 78.8567 17.2909 78.7815C17.2157 78.7064 17.1734 78.6044 17.1733 78.4981V75.2748H70.0801L70.0798 78.4981Z" fill="black"/>
<path d="M16.9092 9.48396H83.1104C83.4323 9.48427 83.7409 9.61227 83.9685 9.83987C84.196 10.0675 84.324 10.3761 84.3244 10.6979V24.6258C84.3219 24.8198 84.358 25.0122 84.4305 25.1921C84.503 25.372 84.6105 25.5357 84.7467 25.6737C84.883 25.8117 85.0453 25.9213 85.2243 25.9961C85.4032 26.0709 85.5953 26.1094 85.7892 26.1094C85.9831 26.1094 86.1752 26.0709 86.3541 25.9961C86.5331 25.9213 86.6954 25.8117 86.8317 25.6737C86.9679 25.5357 87.0754 25.372 87.1479 25.1921C87.2204 25.0122 87.2565 24.8198 87.254 24.6258V10.6979C87.253 9.59929 86.8161 8.54595 86.0392 7.7691C85.2624 6.99225 84.209 6.55534 83.1104 6.55428H51.7575V3.67508C51.7564 2.70073 51.3688 1.76662 50.6799 1.07765C49.9909 0.388686 49.0568 0.00112909 48.0824 0H39.1725C38.1982 0.00112909 37.2641 0.388686 36.5751 1.07765C35.8861 1.76662 35.4986 2.70073 35.4974 3.67508V6.55428H16.9092C16.5239 6.55918 16.1561 6.71567 15.8854 6.98984C15.6147 7.26402 15.4629 7.63381 15.4629 8.01912C15.4629 8.40442 15.6147 8.77421 15.8854 9.04839C16.1561 9.32257 16.5239 9.47906 16.9092 9.48396V9.48396ZM38.4271 3.67508C38.4274 3.47746 38.506 3.28801 38.6457 3.14828C38.7855 3.00855 38.9749 2.92993 39.1725 2.92968H48.0822C48.2798 2.92993 48.4693 3.00855 48.609 3.14828C48.7487 3.28801 48.8273 3.47746 48.8276 3.67508V6.55428H38.4274V3.67508H38.4271Z" fill="black"/>
<path d="M20.4884 50.9795C20.296 50.9795 20.1055 51.0173 19.9277 51.0909C19.75 51.1646 19.5885 51.2725 19.4524 51.4085C19.3164 51.5445 19.2085 51.7061 19.1349 51.8838C19.0613 52.0616 19.0234 52.2521 19.0234 52.4445V65.3883C19.0234 65.5807 19.0613 65.7712 19.1349 65.9489C19.2085 66.1267 19.3164 66.2882 19.4524 66.4242C19.5885 66.5603 19.75 66.6682 19.9277 66.7418C20.1055 66.8154 20.296 66.8533 20.4884 66.8532H26.4312C26.6236 66.8533 26.8141 66.8154 26.9918 66.7418C27.1696 66.6682 27.3311 66.5603 27.4671 66.4242C27.6032 66.2882 27.7111 66.1267 27.7847 65.9489C27.8583 65.7712 27.8962 65.5807 27.8961 65.3883V52.4445C27.8962 52.2521 27.8583 52.0616 27.7847 51.8838C27.7111 51.7061 27.6032 51.5445 27.4671 51.4085C27.3311 51.2725 27.1696 51.1646 26.9918 51.0909C26.8141 51.0173 26.6236 50.9795 26.4312 50.9795H20.4884ZM24.9662 63.9233H21.9531V53.9094H24.9662V63.9233Z" fill="black"/>
<path d="M33.9337 43.4941C33.7413 43.4941 33.5508 43.532 33.3731 43.6056C33.1953 43.6792 33.0338 43.7871 32.8978 43.9231C32.7617 44.0592 32.6538 44.2207 32.5802 44.3984C32.5066 44.5762 32.4687 44.7667 32.4688 44.9591V65.3894C32.4688 65.5817 32.5066 65.7722 32.5803 65.9499C32.6539 66.1277 32.7618 66.2891 32.8978 66.4251C33.0339 66.5612 33.1954 66.6691 33.3731 66.7426C33.5508 66.8162 33.7413 66.8541 33.9337 66.8541H39.8765C40.0689 66.8541 40.2594 66.8162 40.4371 66.7426C40.6148 66.6691 40.7763 66.5612 40.9124 66.4251C41.0484 66.2891 41.1563 66.1277 41.2299 65.9499C41.3036 65.7722 41.3415 65.5817 41.3415 65.3894V44.9591C41.3415 44.7667 41.3036 44.5762 41.23 44.3984C41.1564 44.2207 41.0485 44.0592 40.9124 43.9231C40.7764 43.7871 40.6149 43.6792 40.4372 43.6056C40.2594 43.532 40.0689 43.4941 39.8765 43.4941H33.9337ZM38.4118 63.9244H35.3989V46.4238H38.412L38.4118 63.9244Z" fill="black"/>
<path d="M47.3771 50.9795C47.1847 50.9795 46.9942 51.0173 46.8164 51.0909C46.6387 51.1646 46.4772 51.2725 46.3411 51.4085C46.2051 51.5445 46.0972 51.7061 46.0236 51.8838C45.9499 52.0616 45.9121 52.2521 45.9121 52.4445V65.3883C45.9121 65.5807 45.9499 65.7712 46.0236 65.9489C46.0972 66.1267 46.2051 66.2882 46.3411 66.4242C46.4772 66.5603 46.6387 66.6682 46.8164 66.7418C46.9942 66.8154 47.1847 66.8533 47.3771 66.8532H53.3199C53.5122 66.8533 53.7027 66.8154 53.8805 66.7418C54.0583 66.6682 54.2198 66.5603 54.3558 66.4242C54.4918 66.2882 54.5997 66.1267 54.6734 65.9489C54.747 65.7712 54.7848 65.5807 54.7848 65.3883V52.4445C54.7848 52.2521 54.747 52.0616 54.6734 51.8838C54.5997 51.7061 54.4918 51.5445 54.3558 51.4085C54.2198 51.2725 54.0583 51.1646 53.8805 51.0909C53.7027 51.0173 53.5122 50.9795 53.3199 50.9795H47.3771ZM51.8549 63.9233H48.8418V53.9094H51.8549V63.9233Z" fill="black"/>
<path d="M60.8224 59.624C60.63 59.624 60.4395 59.6619 60.2617 59.7355C60.084 59.8091 59.9225 59.917 59.7864 60.053C59.6504 60.1891 59.5425 60.3506 59.4689 60.5283C59.3953 60.7061 59.3574 60.8966 59.3574 61.089V65.3893C59.3574 65.5817 59.3953 65.7722 59.4689 65.9499C59.5425 66.1277 59.6504 66.2892 59.7864 66.4252C59.9225 66.5613 60.084 66.6692 60.2617 66.7428C60.4395 66.8164 60.63 66.8543 60.8224 66.8542H66.7652C66.9591 66.8567 67.1516 66.8206 67.3315 66.7481C67.5114 66.6756 67.6751 66.5681 67.8131 66.4319C67.9511 66.2956 68.0607 66.1333 68.1355 65.9543C68.2102 65.7754 68.2488 65.5834 68.2488 65.3894C68.2488 65.1955 68.2102 65.0034 68.1355 64.8245C68.0607 64.6455 67.9511 64.4832 67.8131 64.347C67.6751 64.2107 67.5114 64.1032 67.3315 64.0307C67.1516 63.9582 66.9591 63.9221 66.7652 63.9246H62.2871V61.089C62.2871 60.8966 62.2493 60.7061 62.1757 60.5284C62.1021 60.3506 61.9942 60.1891 61.8582 60.0531C61.7222 59.9171 61.5607 59.8092 61.383 59.7355C61.2052 59.6619 61.0148 59.624 60.8224 59.624V59.624Z" fill="black"/>
<path d="M99.2532 73.7225L90.8496 59.1666C93.7141 56.1089 95.497 52.1963 95.9253 48.0284C96.3536 43.8605 95.4035 39.6672 93.2207 36.0908C91.0378 32.5145 87.7427 29.7525 83.84 28.228C79.9373 26.7035 75.6425 26.5006 71.6135 27.6505C67.5845 28.8003 64.0436 31.2393 61.5334 34.594C59.0231 37.9486 57.682 42.0337 57.7155 46.2234C57.7489 50.4132 59.1551 54.4764 61.7187 57.7904C64.2822 61.1045 67.8616 63.4867 71.9084 64.572C73.5344 65.0093 75.2108 65.2314 76.8946 65.2326C78.3463 65.2328 79.7931 65.0658 81.2066 64.7349L89.6086 79.2911C89.9742 79.9244 90.461 80.4794 91.0411 80.9246C91.6212 81.3697 92.2834 81.6963 92.9897 81.8855C93.696 82.0748 94.4327 82.1231 95.1577 82.0276C95.8827 81.9322 96.5818 81.6949 97.215 81.3293C97.8483 80.9636 98.4034 80.4769 98.8485 79.8967C99.2937 79.3166 99.6202 78.6545 99.8095 77.9481C99.9987 77.2418 100.047 76.5051 99.9516 75.7801C99.8561 75.0551 99.6188 74.356 99.2532 73.7228V73.7225ZM72.6666 61.7424C69.0426 60.7715 65.8674 58.574 63.682 55.5245C61.4965 52.4749 60.4361 48.7619 60.6814 45.0182C60.9267 41.2744 62.4625 37.7315 65.0271 34.9931C67.5917 32.2548 71.0265 30.4904 74.7462 30.0006C78.4659 29.5109 82.2403 30.326 85.4264 32.3071C88.6124 34.2883 91.013 37.3129 92.219 40.8655C93.425 44.4182 93.3619 48.2791 92.0403 51.7905C90.7188 55.3018 88.2206 58.2463 84.9715 60.1222C83.1294 61.1924 81.0934 61.8866 78.9813 62.1647C76.8692 62.4428 74.7229 62.2993 72.6666 61.7424V61.7424ZM95.7514 78.7917C95.1452 79.141 94.4252 79.2355 93.7494 79.0545C93.0736 78.8735 92.4972 78.4318 92.1467 77.8264L84.0625 63.8214C85.6991 63.1555 87.2362 62.2671 88.6302 61.1814L96.716 75.1865C96.8897 75.4865 97.0025 75.8178 97.0479 76.1614C97.0934 76.5051 97.0707 76.8543 96.981 77.1891C96.8913 77.5239 96.7365 77.8378 96.5254 78.1127C96.3143 78.3876 96.051 78.6182 95.7507 78.7912L95.7514 78.7917Z" fill="black"/>
<path d="M90.1457 50.2049C91.181 46.8889 90.9335 43.305 89.4522 40.1628C89.3703 39.9888 89.2548 39.8326 89.1125 39.7032C88.9702 39.5738 88.8038 39.4737 88.6228 39.4086C88.4418 39.3435 88.2497 39.3147 88.0576 39.3239C87.8654 39.333 87.677 39.3799 87.503 39.4619C87.3289 39.5438 87.1728 39.6593 87.0434 39.8016C86.914 39.9439 86.8139 40.1103 86.7488 40.2913C86.6837 40.4723 86.6549 40.6644 86.664 40.8565C86.6731 41.0487 86.72 41.2371 86.802 41.4111C87.9399 43.8382 88.1499 46.5978 87.3923 49.1691C86.6348 51.7404 84.9622 53.9454 82.6902 55.3679C80.4182 56.7904 77.7041 57.3319 75.0602 56.8903C72.4163 56.4486 70.0255 55.0543 68.3392 52.9706C66.6529 50.8869 65.7878 48.258 65.9071 45.5801C66.0264 42.9022 67.122 40.3606 68.9869 38.4352C70.8519 36.5097 73.3572 35.3336 76.0299 35.1289C78.7026 34.9242 81.3578 35.705 83.4943 37.3239C83.8041 37.5583 84.1943 37.66 84.5791 37.6067C84.9639 37.5534 85.3118 37.3494 85.5462 37.0396C85.7806 36.7298 85.8823 36.3396 85.829 35.9548C85.7757 35.57 85.5717 35.2221 85.2619 34.9877C82.9048 33.202 80.0399 32.2139 77.0831 32.1668C74.1263 32.1197 71.2315 33.0162 68.8187 34.726C66.406 36.4358 64.6009 38.8701 63.6655 41.6754C62.73 44.4807 62.713 47.5112 63.6167 50.3269C64.5204 53.1425 66.298 55.597 68.6913 57.3339C71.0846 59.0708 73.9692 59.9998 76.9263 59.9861C79.8835 59.9724 82.7593 59.0166 85.1364 57.2576C87.5135 55.4985 89.2682 53.0277 90.1457 50.2037V50.2049Z" fill="black"/>
</g>
<defs>
<clipPath id="clip0">
<rect width="100" height="97.4384" fill="white"/>
</clipPath>
</defs>
</svg>
