<svg width="100" height="100" viewBox="0 0 100 100" fill="none" xmlns="http://www.w3.org/2000/svg">
<path d="M79.6875 100V96.875" stroke="#1E1E1E" stroke-width="2" stroke-miterlimit="10" stroke-linejoin="round"/>
<path d="M79.6875 93.75V90.625" stroke="#1E1E1E" stroke-width="2" stroke-miterlimit="10" stroke-linejoin="round"/>
<path d="M79.6875 59.375V56.25" stroke="#1E1E1E" stroke-width="2" stroke-miterlimit="10" stroke-linejoin="round"/>
<path d="M79.6875 65.625V62.5" stroke="#1E1E1E" stroke-width="2" stroke-miterlimit="10" stroke-linejoin="round"/>
<path d="M79.6875 53.125V50" stroke="#1E1E1E" stroke-width="2" stroke-miterlimit="10" stroke-linejoin="round"/>
<path d="M79.6875 46.875V43.75" stroke="#1E1E1E" stroke-width="2" stroke-miterlimit="10" stroke-linejoin="round"/>
<path d="M79.6875 40.625V37.5" stroke="#1E1E1E" stroke-width="2" stroke-miterlimit="10" stroke-linejoin="round"/>
<path d="M79.6875 28.125V25" stroke="#1E1E1E" stroke-width="2" stroke-miterlimit="10" stroke-linejoin="round"/>
<path d="M79.6875 34.375V31.25" stroke="#1E1E1E" stroke-width="2" stroke-miterlimit="10" stroke-linejoin="round"/>
<path d="M79.6875 9.375V6.25" stroke="#1E1E1E" stroke-width="2" stroke-miterlimit="10" stroke-linejoin="round"/>
<path d="M79.6875 3.125V0" stroke="#1E1E1E" stroke-width="2" stroke-miterlimit="10" stroke-linejoin="round"/>
<path d="M20.3125 100V96.875" stroke="#1E1E1E" stroke-width="2" stroke-miterlimit="10" stroke-linejoin="round"/>
<path d="M20.3125 93.75V90.625" stroke="#1E1E1E" stroke-width="2" stroke-miterlimit="10" stroke-linejoin="round"/>
<path d="M20.3125 59.375V56.25" stroke="#1E1E1E" stroke-width="2" stroke-miterlimit="10" stroke-linejoin="round"/>
<path d="M20.3125 65.625V62.5" stroke="#1E1E1E" stroke-width="2" stroke-miterlimit="10" stroke-linejoin="round"/>
<path d="M20.3125 53.125V50" stroke="#1E1E1E" stroke-width="2" stroke-miterlimit="10" stroke-linejoin="round"/>
<path d="M20.3125 46.875V43.75" stroke="#1E1E1E" stroke-width="2" stroke-miterlimit="10" stroke-linejoin="round"/>
<path d="M20.3125 40.625V37.5" stroke="#1E1E1E" stroke-width="2" stroke-miterlimit="10" stroke-linejoin="round"/>
<path d="M20.3125 28.125V25" stroke="#1E1E1E" stroke-width="2" stroke-miterlimit="10" stroke-linejoin="round"/>
<path d="M20.3125 34.375V31.25" stroke="#1E1E1E" stroke-width="2" stroke-miterlimit="10" stroke-linejoin="round"/>
<path d="M20.3125 9.375V6.25" stroke="#1E1E1E" stroke-width="2" stroke-miterlimit="10" stroke-linejoin="round"/>
<path d="M20.3125 3.125V0" stroke="#1E1E1E" stroke-width="2" stroke-miterlimit="10" stroke-linejoin="round"/>
<path d="M100 17.1875H96.875" stroke="#1E1E1E" stroke-width="2" stroke-miterlimit="10" stroke-linejoin="round"/>
<path d="M87.5 17.1875H84.375" stroke="#1E1E1E" stroke-width="2" stroke-miterlimit="10" stroke-linejoin="round"/>
<path d="M93.75 17.1875H90.625" stroke="#1E1E1E" stroke-width="2" stroke-miterlimit="10" stroke-linejoin="round"/>
<path d="M81.25 17.1875H78.125" stroke="#1E1E1E" stroke-width="2" stroke-miterlimit="10" stroke-linejoin="round"/>
<path d="M75 17.1875H71.875" stroke="#1E1E1E" stroke-width="2" stroke-miterlimit="10" stroke-linejoin="round"/>
<path d="M68.75 17.1875H65.625" stroke="#1E1E1E" stroke-width="2" stroke-miterlimit="10" stroke-linejoin="round"/>
<path d="M28.125 17.1875H25" stroke="#1E1E1E" stroke-width="2" stroke-miterlimit="10" stroke-linejoin="round"/>
<path d="M34.375 17.1875H31.25" stroke="#1E1E1E" stroke-width="2" stroke-miterlimit="10" stroke-linejoin="round"/>
<path d="M21.875 17.1875H18.75" stroke="#1E1E1E" stroke-width="2" stroke-miterlimit="10" stroke-linejoin="round"/>
<path d="M15.625 17.1875H12.5" stroke="#1E1E1E" stroke-width="2" stroke-miterlimit="10" stroke-linejoin="round"/>
<path d="M9.375 17.1875H6.25" stroke="#1E1E1E" stroke-width="2" stroke-miterlimit="10" stroke-linejoin="round"/>
<path d="M3.125 17.1875H0" stroke="#1E1E1E" stroke-width="2" stroke-miterlimit="10" stroke-linejoin="round"/>
<path d="M96.875 82.8125H93.75" stroke="#1E1E1E" stroke-width="2" stroke-miterlimit="10" stroke-linejoin="round"/>
<path d="M90.625 82.8125H87.5" stroke="#1E1E1E" stroke-width="2" stroke-miterlimit="10" stroke-linejoin="round"/>
<path d="M57.8125 82.8125H54.6875" stroke="#1E1E1E" stroke-width="2" stroke-miterlimit="10" stroke-linejoin="round"/>
<path d="M51.5625 82.8125H48.4375" stroke="#1E1E1E" stroke-width="2" stroke-miterlimit="10" stroke-linejoin="round"/>
<path d="M45.3125 82.8125H42.1875" stroke="#1E1E1E" stroke-width="2" stroke-miterlimit="10" stroke-linejoin="round"/>
<path d="M12.5 82.8125H9.375" stroke="#1E1E1E" stroke-width="2" stroke-miterlimit="10" stroke-linejoin="round"/>
<path d="M6.25 82.8125H3.125" stroke="#1E1E1E" stroke-width="2" stroke-miterlimit="10" stroke-linejoin="round"/>
<path d="M32.8125 82.8125H20.3125L43.75 17.1875H56.25L79.6875 82.8125H65.625L59.375 65.625H40.625" stroke="#1E1E1E" stroke-width="3" stroke-miterlimit="10" stroke-linecap="round" stroke-linejoin="round"/>
<path d="M50.3125 36.25L56.5625 54.6875" stroke="#1E1E1E" stroke-width="2" stroke-miterlimit="10" stroke-linecap="round" stroke-linejoin="round"/>
<path d="M31.25 92.1875L59.375 9.375" stroke="#00FFFF" stroke-width="2" stroke-miterlimit="10" stroke-linecap="round" stroke-linejoin="round"/>
</svg>
