<svg fill="none" height="611" viewBox="0 0 611 611" width="611" xmlns="http://www.w3.org/2000/svg"><path clip-rule="evenodd" d="m468.285 142.715h-325.57v325.57h325.57zm-468.285-142.715v611h611v-611z" fill="#1e1e1e" fill-rule="evenodd"/><path d="m174.069 148.484-20.638 20.575 1.76 1.756 20.639-20.576z" fill="#0ff"/><path d="m175.239 133.946-36.41 36.299 1.761 1.755 36.41-36.298z" fill="#0ff"/><path d="m172.031 123.746-43.44 43.308 1.76 1.755 43.441-43.307z" fill="#0ff"/><path d="m166.334 116.054-45.453 45.314 1.76 1.755 45.454-45.313z" fill="#0ff"/><path d="m158.624 110.368-43.441 43.307 1.761 1.756 43.441-43.308z" fill="#0ff"/><path d="m148.586 107-36.586 36.474 1.761 1.755 36.586-36.474z" fill="#0ff"/><path d="m134.149 108.023-21.306 21.24 1.761 1.756 21.305-21.24z" fill="#0ff"/><g fill="#f9f9f9"><path d="m501.774 417.451c1.237 0 2.226-.989 2.226-2.225 0-1.237-.989-2.226-2.226-2.226-1.236 0-2.225.989-2.225 2.226 0 1.236.989 2.225 2.225 2.225z"/><path d="m501.774 434.761c-1.236 0-2.225.989-2.225 2.225 0 1.237.989 2.226 2.225 2.226 1.237 0 2.226-.989 2.226-2.226 0-1.483-.989-2.225-2.226-2.225z"/><path d="m501.774 456.274c-1.236 0-2.225.99-2.225 2.226s.989 2.226 2.225 2.226c1.237 0 2.226-.99 2.226-2.226s-.989-2.226-2.226-2.226z"/><path d="m501.774 478.035c-1.236 0-2.225.989-2.225 2.226 0 1.236.989 2.225 2.225 2.225 1.237 0 2.226-.989 2.226-2.225 0-1.484-.989-2.226-2.226-2.226z"/><path d="m501.774 499.549c-1.236 0-2.225.989-2.225 2.225 0 1.237.989 2.226 2.225 2.226 1.237 0 2.226-.989 2.226-2.226 0-1.236-.989-2.225-2.226-2.225z"/><path d="m480.014 413c-1.237 0-2.226.989-2.226 2.226 0 1.236.989 2.225 2.226 2.225 1.236 0 2.225-.989 2.225-2.225 0-1.237-.989-2.226-2.225-2.226z"/><path d="m480.014 434.761c-1.237 0-2.226.989-2.226 2.225 0 1.237.989 2.226 2.226 2.226 1.236 0 2.225-.989 2.225-2.226 0-1.483-.989-2.225-2.225-2.225z"/><path d="m480.014 456.274c-1.237 0-2.226.99-2.226 2.226s.989 2.226 2.226 2.226c1.236 0 2.225-.99 2.225-2.226s-.989-2.226-2.225-2.226z"/><path d="m480.014 478.035c-1.237 0-2.226.989-2.226 2.226 0 1.236.989 2.225 2.226 2.225 1.236 0 2.225-.989 2.225-2.225 0-1.484-.989-2.226-2.225-2.226z"/><path d="m480.014 499.549c-1.237 0-2.226.989-2.226 2.225 0 1.237.989 2.226 2.226 2.226 1.236 0 2.225-.989 2.225-2.226 0-1.236-.989-2.225-2.225-2.225z"/><path d="m458.5 413c-1.236 0-2.226.989-2.226 2.226 0 1.236.99 2.225 2.226 2.225s2.226-.989 2.226-2.225c0-1.237-.99-2.226-2.226-2.226z"/><path d="m458.5 434.761c-1.236 0-2.226.989-2.226 2.225 0 1.237.99 2.226 2.226 2.226s2.226-.989 2.226-2.226c0-1.483-.99-2.225-2.226-2.225z"/><path d="m458.5 456.274c-1.236 0-2.226.99-2.226 2.226s.99 2.226 2.226 2.226 2.226-.99 2.226-2.226-.99-2.226-2.226-2.226z"/><path d="m458.5 478.035c-1.236 0-2.226.989-2.226 2.226 0 1.236.99 2.225 2.226 2.225s2.226-.989 2.226-2.225c0-1.484-.99-2.226-2.226-2.226z"/><path d="m458.5 499.549c-1.236 0-2.226.989-2.226 2.225 0 1.237.99 2.226 2.226 2.226s2.226-.989 2.226-2.226c0-1.236-.99-2.225-2.226-2.225z"/><path d="m436.739 413c-1.236 0-1.978.989-1.978 2.226 0 1.236.989 2.225 2.225 2.225 1.237 0 2.226-.989 2.226-2.225-.247-1.237-1.236-2.226-2.473-2.226z"/><path d="m436.739 434.761c-1.236 0-2.225.989-2.225 2.225 0 1.237.989 2.226 2.225 2.226 1.237 0 2.226-.989 2.226-2.226 0-1.483-.989-2.225-2.226-2.225z"/><path d="m436.739 456.274c-1.236 0-2.225.99-2.225 2.226s.989 2.226 2.225 2.226c1.237 0 2.226-.99 2.226-2.226s-.989-2.226-2.226-2.226z"/><path d="m436.739 478.035c-1.236 0-2.225.989-2.225 2.226 0 1.236.989 2.225 2.225 2.225 1.237 0 2.226-.989 2.226-2.225 0-1.484-.989-2.226-2.226-2.226z"/><path d="m436.739 499.549c-1.236 0-2.225.989-2.225 2.225 0 1.237.989 2.226 2.225 2.226 1.237 0 2.226-.989 2.226-2.226 0-1.236-.989-2.225-2.226-2.225z"/><path d="m415.226 413c-1.237 0-2.226.989-2.226 2.226 0 1.236.989 2.225 2.226 2.225 1.236 0 2.225-.989 2.225-2.225 0-1.237-.989-2.226-2.225-2.226z"/><path d="m415.226 434.761c-1.237 0-2.226.742-2.226 1.978 0 1.237.989 2.226 2.226 2.226 1.236 0 2.225-.989 2.225-2.226 0-1.236-.989-1.978-2.225-1.978z"/><path d="m415.226 456.274c-1.237 0-2.226.99-2.226 2.226s.989 2.226 2.226 2.226c1.236 0 2.225-.99 2.225-2.226s-.989-2.226-2.225-2.226z"/><path d="m415.226 478.035c-1.237 0-2.226.989-2.226 2.226 0 .989.989 1.978 2.226 1.978 1.236 0 2.225-.989 2.225-2.225 0-1.237-.989-1.979-2.225-1.979z"/><path d="m415.226 499.549c-1.237 0-2.226.989-2.226 2.225 0 1.237.989 2.226 2.226 2.226 1.236 0 2.225-.989 2.225-2.226 0-1.236-.989-2.225-2.225-2.225z"/></g></svg>